<?xml version="1.0" standalone="no"?>
<!DOCTYPE svg PUBLIC "-//W3C//DTD SVG 1.1//EN" "http://www.w3.org/Graphics/SVG/1.1/DTD/svg11.dtd" >
<svg xmlns="http://www.w3.org/2000/svg" width="100%" height="100%">
<metadata>
Created by FontXChange 20110222 at Wed Jul 24 12:26:56 2013
 By Luca
Copyright (c) 2012 by atipo. All rights reserved.
</metadata>
<defs>
<font id="Bariol-Light" horiz-adv-x="466" >
  <font-face 
    font-family="Bariol Light"
    font-weight="300"
    font-stretch="normal"
    units-per-em="1000"
    panose-1="2 0 5 6 4 0 0 2 0 3"
    ascent="787"
    descent="-213"
    x-height="454"
    cap-height="681"
    bbox="-124 -227 1028 1014.26"
    underline-thickness="20"
    underline-position="-113"
    stemh="23"
    stemv="27"
    unicode-range="U+0020-FB06"
  />
<missing-glyph horiz-adv-x="580" 
d="M309 124h-55v55h55v-55zM305 229h-47v39c0 111 106 129 106 206c0 46 -35 70 -76 70c-46 0 -79 -21 -79 -81h-48c0 93 57 131 128 131s125 -39 125 -116c0 -106 -109 -114 -109 -210v-39zM88 48h404v603h-404v-603zM40 700h500v-700h-500v700z" />
    <glyph glyph-name="ellipsis" unicode="&#x2e;&#x2e;&#x2e;" horiz-adv-x="733" 
d="M70 -8c-14 0 -23 7 -23 23s9 24 23 24s23 -8 23 -24s-9 -23 -23 -23zM366 -8c-14 0 -23 7 -23 23s9 24 23 24s23 -8 23 -24s-9 -23 -23 -23zM662 -8c-14 0 -23 7 -23 23s9 24 23 24s23 -8 23 -24s-9 -23 -23 -23z" />
    <glyph glyph-name="f_f_i" unicode="ffi" horiz-adv-x="704" 
d="M385 454h234c8 0 15 -7 15 -15v-432c0 -8 -7 -15 -15 -15s-15 7 -15 15v421h-219v-421c0 -8 -7 -15 -15 -15s-15 7 -15 15v421h-230v-421c0 -8 -7 -15 -15 -15s-15 7 -15 15v421h-57c-7 0 -13 6 -13 13s6 13 13 13h57v63c0 88 50 168 168 168c7 0 13 -6 13 -13
s-6 -13 -13 -13c-99 0 -138 -59 -138 -142v-63h230v63c0 86 49 168 160 168c43 0 80 -10 103 -21c6 -3 10 -6 10 -13s-5 -13 -12 -13c-4 0 -7 1 -13 4c-28 12 -52 17 -90 17c-90 0 -128 -62 -128 -142v-63z" />
    <glyph glyph-name="f_f_l" unicode="ffl" horiz-adv-x="729" 
d="M604 100v328h-219v-421c0 -8 -7 -15 -15 -15s-15 7 -15 15v421h-230v-421c0 -8 -7 -15 -15 -15s-15 7 -15 15v421h-57c-7 0 -13 6 -13 13s6 13 13 13h57v63c0 88 50 168 168 168c7 0 13 -6 13 -13s-6 -13 -13 -13c-99 0 -138 -59 -138 -142v-63h230v63
c0 86 47 168 158 168c46 0 86 -14 113 -29c7 -4 8 -8 8 -12v-544c0 -58 20 -82 63 -82c7 0 13 -6 13 -13s-6 -13 -13 -13c-60 0 -93 37 -93 108zM385 454h219v184c-23 11 -51 21 -93 21c-90 0 -126 -62 -126 -142v-63z" />
    <glyph glyph-name="f_f" unicode="ff" horiz-adv-x="535" 
d="M355 428h-230v-421c0 -8 -7 -15 -15 -15s-15 7 -15 15v421h-57c-7 0 -13 6 -13 13s6 13 13 13h57v63c0 88 50 168 168 168c7 0 13 -6 13 -13s-6 -13 -13 -13c-99 0 -138 -59 -138 -142v-63h230v63c0 88 50 168 168 168c7 0 13 -6 13 -13s-6 -13 -13 -13
c-99 0 -138 -59 -138 -142v-63h118c7 0 13 -6 13 -13s-6 -13 -13 -13h-118v-421c0 -8 -7 -15 -15 -15s-15 7 -15 15v421z" />
    <glyph glyph-name="f_j" unicode="fj" horiz-adv-x="448" 
d="M125 454h238c8 0 15 -7 15 -15v-497c0 -80 -58 -143 -139 -143c-7 0 -13 6 -13 13s6 13 13 13c65 0 109 52 109 117v486h-223v-421c0 -8 -7 -15 -15 -15s-15 7 -15 15v421h-57c-7 0 -13 6 -13 13s6 13 13 13h57v63c0 86 47 168 158 168c41 0 77 -8 105 -21
c6 -3 10 -6 10 -13s-6 -13 -13 -13c-4 0 -6 1 -12 4c-20 10 -48 17 -92 17c-90 0 -126 -62 -126 -142v-63z" />
    <glyph glyph-name="f_b" unicode="fb" horiz-adv-x="781" 
d="M537 468c128 0 204 -76 204 -240s-76 -241 -204 -241c-112 0 -193 64 -193 194v457c-23 11 -51 21 -93 21c-90 0 -126 -62 -126 -142v-63h118c7 0 13 -6 13 -13s-6 -13 -13 -13h-118v-421c0 -8 -7 -15 -15 -15s-15 7 -15 15v421h-57c-7 0 -13 6 -13 13s6 13 13 13h57v63
c0 86 47 168 158 168c46 0 86 -14 113 -29c7 -4 8 -8 8 -12v-271s44 95 163 95zM374 325v-144c0 -117 69 -168 163 -168c113 0 174 65 174 215c0 148 -61 214 -174 214c-120 0 -163 -117 -163 -117z" />
    <glyph glyph-name="f_f_b" unicode="ffb" horiz-adv-x="1041" 
d="M634 325v-144c0 -117 69 -168 163 -168c113 0 174 65 174 215c0 148 -61 214 -174 214c-120 0 -163 -117 -163 -117zM125 454h230v63c0 86 47 168 158 168c46 0 86 -14 113 -29c7 -4 8 -8 8 -12v-271s44 95 163 95c128 0 204 -76 204 -240s-76 -241 -204 -241
c-112 0 -193 64 -193 194v457c-23 11 -51 21 -93 21c-90 0 -126 -62 -126 -142v-63h118c7 0 13 -6 13 -13s-6 -13 -13 -13h-118v-421c0 -8 -7 -15 -15 -15s-15 7 -15 15v421h-230v-421c0 -8 -7 -15 -15 -15s-15 7 -15 15v421h-57c-7 0 -13 6 -13 13s6 13 13 13h57v63
c0 88 50 168 168 168c7 0 13 -6 13 -13s-6 -13 -13 -13c-99 0 -138 -59 -138 -142v-63z" />
    <glyph glyph-name="f_h" unicode="fh" horiz-adv-x="770" 
d="M359 -8c-8 0 -15 7 -15 15v631c-23 11 -51 21 -93 21c-90 0 -126 -62 -126 -142v-63h118c7 0 13 -6 13 -13s-6 -13 -13 -13h-118v-421c0 -8 -7 -15 -15 -15s-15 7 -15 15v421h-57c-7 0 -13 6 -13 13s6 13 13 13h57v63c0 86 47 168 158 168c46 0 86 -14 113 -29
c7 -4 8 -8 8 -12v-272c15 40 61 96 157 96c144 0 179 -85 179 -177v-284c0 -8 -7 -15 -15 -15s-15 7 -15 15v284c0 81 -28 151 -150 151c-109 0 -156 -83 -156 -161v-274c0 -8 -7 -15 -15 -15z" />
    <glyph glyph-name="f_f_h" unicode="ffh" horiz-adv-x="1030" 
d="M125 454h230v63c0 86 47 168 158 168c46 0 86 -14 113 -29c7 -4 8 -8 8 -12v-272c15 40 61 96 157 96c144 0 179 -85 179 -177v-284c0 -8 -7 -15 -15 -15s-15 7 -15 15v284c0 81 -28 151 -150 151c-109 0 -156 -83 -156 -161v-274c0 -8 -7 -15 -15 -15s-15 7 -15 15v631
c-23 11 -51 21 -93 21c-90 0 -126 -62 -126 -142v-63h118c7 0 13 -6 13 -13s-6 -13 -13 -13h-118v-421c0 -8 -7 -15 -15 -15s-15 7 -15 15v421h-230v-421c0 -8 -7 -15 -15 -15s-15 7 -15 15v421h-57c-7 0 -13 6 -13 13s6 13 13 13h57v63c0 88 50 168 168 168
c7 0 13 -6 13 -13s-6 -13 -13 -13c-99 0 -138 -59 -138 -142v-63z" />
    <glyph glyph-name="f_k" unicode="fk" horiz-adv-x="710" 
d="M374 644v-425l284 239c4 3 7 4 10 4c8 0 14 -7 14 -13c0 -5 -2 -9 -6 -12l-199 -164l210 -258c3 -4 4 -7 4 -10c0 -7 -6 -13 -13 -13c-5 0 -8 2 -11 5l-210 259l-83 -71v-178c0 -8 -7 -15 -15 -15s-15 7 -15 15v631c-23 11 -51 21 -93 21c-90 0 -126 -62 -126 -142v-63
h118c7 0 13 -6 13 -13s-6 -13 -13 -13h-118v-421c0 -8 -7 -15 -15 -15s-15 7 -15 15v421h-57c-7 0 -13 6 -13 13s6 13 13 13h57v63c0 86 47 168 158 168c46 0 86 -14 113 -29c7 -4 8 -8 8 -12z" />
    <glyph glyph-name="f_f_k" unicode="ffk" horiz-adv-x="970" 
d="M634 644v-425l284 239c4 3 7 4 10 4c8 0 14 -7 14 -13c0 -5 -2 -9 -6 -12l-199 -164l210 -258c3 -4 4 -7 4 -10c0 -7 -6 -13 -13 -13c-5 0 -8 2 -11 5l-210 259l-83 -71v-178c0 -8 -7 -15 -15 -15s-15 7 -15 15v631c-23 11 -51 21 -93 21c-90 0 -126 -62 -126 -142v-63
h118c7 0 13 -6 13 -13s-6 -13 -13 -13h-118v-421c0 -8 -7 -15 -15 -15s-15 7 -15 15v421h-230v-421c0 -8 -7 -15 -15 -15s-15 7 -15 15v421h-57c-7 0 -13 6 -13 13s6 13 13 13h57v63c0 88 50 168 168 168c7 0 13 -6 13 -13s-6 -13 -13 -13c-99 0 -138 -59 -138 -142v-63h230
v63c0 86 47 168 158 168c46 0 86 -14 113 -29c7 -4 8 -8 8 -12z" />
    <glyph glyph-name="f_f_j" unicode="ffj" horiz-adv-x="708" 
d="M385 454h238c8 0 15 -7 15 -15v-497c0 -80 -58 -143 -139 -143c-7 0 -13 6 -13 13s6 13 13 13c65 0 109 52 109 117v486h-223v-421c0 -8 -7 -15 -15 -15s-15 7 -15 15v421h-230v-421c0 -8 -7 -15 -15 -15s-15 7 -15 15v421h-57c-7 0 -13 6 -13 13s6 13 13 13h57v63
c0 88 50 168 168 168c7 0 13 -6 13 -13s-6 -13 -13 -13c-99 0 -138 -59 -138 -142v-63h230v63c0 86 47 168 158 168c41 0 77 -8 105 -21c6 -3 10 -6 10 -13s-6 -13 -13 -13c-4 0 -6 1 -12 4c-20 10 -48 17 -92 17c-90 0 -126 -62 -126 -142v-63z" />
    <glyph glyph-name="fl" unicode="fl" horiz-adv-x="469" 
d="M125 454h219v184c-23 11 -51 21 -93 21c-90 0 -126 -62 -126 -142v-63zM344 428h-219v-421c0 -8 -7 -15 -15 -15s-15 7 -15 15v421h-57c-7 0 -13 6 -13 13s6 13 13 13h57v63c0 86 47 168 158 168c46 0 86 -14 113 -29c7 -4 8 -8 8 -12v-544c0 -58 20 -82 63 -82
c7 0 13 -6 13 -13s-6 -13 -13 -13c-60 0 -93 37 -93 108v328z" />
    <glyph glyph-name="fi" unicode="fi" horiz-adv-x="444" 
d="M125 454h234c8 0 15 -7 15 -15v-432c0 -8 -7 -15 -15 -15s-15 7 -15 15v421h-219v-421c0 -8 -7 -15 -15 -15s-15 7 -15 15v421h-57c-7 0 -13 6 -13 13s6 13 13 13h57v63c0 86 49 168 160 168c43 0 80 -10 103 -21c6 -3 10 -6 10 -13s-5 -13 -12 -13c-4 0 -7 1 -13 4
c-28 12 -52 17 -90 17c-90 0 -128 -62 -128 -142v-63z" />
    <glyph glyph-name=".notdef" horiz-adv-x="580" 
d="M309 124h-55v55h55v-55zM305 229h-47v39c0 111 106 129 106 206c0 46 -35 70 -76 70c-46 0 -79 -21 -79 -81h-48c0 93 57 131 128 131s125 -39 125 -116c0 -106 -109 -114 -109 -210v-39zM88 48h404v603h-404v-603zM40 700h500v-700h-500v700z" />
    <glyph glyph-name="space" unicode=" " horiz-adv-x="250" 
 />
    <glyph glyph-name="numbersign" unicode="#" horiz-adv-x="519" 
d="M295 19l32 204h-166l-35 -220c-1 -7 -7 -11 -13 -11c-7 0 -13 6 -13 13c0 3 1 8 2 14l32 204h-76c-7 0 -13 6 -13 13s6 13 13 13h80l25 158h-78c-7 0 -13 6 -13 13s6 13 13 13h82l34 208c1 7 7 11 13 11c7 0 13 -6 13 -13c0 -3 -1 -8 -2 -14l-31 -192h166l34 208
c1 7 7 11 13 11c7 0 13 -6 13 -13c0 -3 -1 -8 -2 -14l-31 -192h74c7 0 13 -6 13 -13s-6 -13 -13 -13h-78l-25 -158h76c7 0 13 -6 13 -13s-6 -13 -13 -13h-80l-35 -220c-1 -7 -7 -11 -13 -11c-7 0 -13 6 -13 13c0 3 1 8 2 14zM190 407l-25 -158h166l25 158h-166z" />
    <glyph glyph-name="percent" unicode="%" horiz-adv-x="746" 
d="M188 386c86 0 112 61 112 138s-26 138 -112 138s-112 -61 -112 -138s26 -138 112 -138zM188 687c102 0 138 -72 138 -163s-36 -163 -138 -163s-138 72 -138 163s36 163 138 163zM556 661l-334 -661c-2 -5 -8 -8 -12 -8c-7 0 -13 6 -13 13c0 3 1 5 2 7l334 661
c2 5 7 8 12 8c7 0 13 -6 13 -13c0 -2 -1 -5 -2 -7zM558 12c86 0 112 61 112 138s-26 138 -112 138s-112 -61 -112 -138s26 -138 112 -138zM558 313c102 0 138 -72 138 -163s-36 -163 -138 -163s-138 72 -138 163s36 163 138 163z" />
    <glyph glyph-name="ampersand" unicode="&#x26;" horiz-adv-x="608" 
d="M190 379c79 59 146 109 146 182c0 67 -42 101 -94 101c-62 0 -102 -46 -102 -117c0 -66 20 -115 50 -166zM180 340c-56 -42 -106 -91 -106 -170c0 -101 82 -157 179 -157c85 0 140 35 173 71c-109 84 -189 154 -246 256zM449 66c-45 -48 -104 -80 -196 -80
c-118 0 -209 64 -209 184c0 82 51 140 122 193c-25 43 -56 109 -56 182c0 78 46 142 132 142c70 0 124 -46 124 -126c0 -86 -71 -136 -164 -205c56 -98 140 -174 243 -250c35 44 50 97 59 129c2 7 7 11 14 11c8 0 14 -6 14 -14c0 -5 -1 -10 -2 -14c-10 -40 -31 -91 -61 -130
c43 -30 77 -49 124 -70c8 -3 11 -8 11 -12c0 -8 -6 -14 -14 -14c-2 0 -6 1 -9 2c-56 21 -86 41 -132 72z" />
    <glyph glyph-name="quoteright" unicode="&#x2019;" horiz-adv-x="137" 
d="M92 639c0 -43 -16 -86 -33 -109c-3 -4 -6 -5 -10 -5c-5 0 -9 4 -9 9c0 3 1 5 2 7c15 26 20 45 20 60c0 27 -17 40 -17 58c0 12 7 22 22 22c17 0 25 -10 25 -42z" />
    <glyph glyph-name="parenleft" unicode="(" horiz-adv-x="304" 
d="M79 296c0 157 6 374 167 441c2 1 5 1 5 1c8 0 14 -6 14 -14c0 -5 -3 -10 -8 -12c-146 -56 -148 -284 -148 -416s2 -360 148 -416c5 -2 8 -7 8 -12c0 -8 -6 -14 -14 -14c0 0 -3 0 -5 1c-161 67 -167 284 -167 441z" />
    <glyph glyph-name="parenright" unicode=")" horiz-adv-x="304" 
d="M225 296c0 -157 -6 -374 -167 -441c-2 -1 -5 -1 -5 -1c-8 0 -14 6 -14 14c0 5 3 10 8 12c146 56 148 284 148 416s-2 360 -148 416c-5 2 -8 7 -8 12c0 8 6 14 14 14c0 0 3 0 5 -1c161 -67 167 -284 167 -441z" />
    <glyph glyph-name="asterisk" unicode="*" horiz-adv-x="357" 
d="M178 539l-72 -109c-3 -4 -5 -6 -8 -6c-6 0 -17 7 -17 14c0 4 2 6 4 9l75 101l-119 27c-8 2 -11 6 -11 12s4 15 12 15c2 0 6 -1 9 -2l117 -34l-3 120c0 11 5 13 13 13c9 0 14 -2 14 -13l-3 -120l117 34c3 1 7 2 9 2c8 0 12 -9 12 -15s-3 -10 -11 -12l-119 -27l75 -101
c2 -3 4 -5 4 -9c0 -7 -11 -14 -17 -14c-3 0 -5 2 -8 6z" />
    <glyph glyph-name="plus" unicode="+" horiz-adv-x="454" 
d="M454 218c0 -7 -6 -13 -13 -13h-199v-198c0 -8 -7 -15 -15 -15s-15 7 -15 15v198h-199c-7 0 -13 6 -13 13s6 13 13 13h199v199c0 8 7 15 15 15s15 -7 15 -15v-199h199c7 0 13 -6 13 -13z" />
    <glyph glyph-name="comma" unicode="," horiz-adv-x="141" 
d="M94 -3c0 -43 -16 -86 -33 -109c-3 -4 -6 -5 -10 -5c-5 0 -9 4 -9 9c0 3 1 5 2 7c15 26 20 45 20 60c0 27 -17 40 -17 58c0 12 7 22 22 22c17 0 25 -10 25 -42z" />
    <glyph glyph-name="hyphen" unicode="-" horiz-adv-x="282" 
d="M245 252c0 -7 -6 -13 -13 -13h-183c-7 0 -13 6 -13 13s6 13 13 13h183c7 0 13 -6 13 -13z" />
    <glyph glyph-name="period" unicode="." horiz-adv-x="141" 
d="M70 -8c-14 0 -23 7 -23 23s9 24 23 24s23 -8 23 -24s-9 -23 -23 -23z" />
    <glyph glyph-name="slash" unicode="/" horiz-adv-x="407" 
d="M341 751c9 0 16 -7 16 -16c0 -1 0 -2 -1 -5l-276 -818c-2 -6 -8 -10 -15 -10c-9 0 -15 8 -15 15c0 1 0 3 1 6l276 817c2 7 8 11 14 11z" />
    <glyph glyph-name="zero" unicode="0" horiz-adv-x="592" 
d="M296 687c169 0 242 -103 242 -350s-73 -351 -242 -351s-242 104 -242 351s73 350 242 350zM296 13c149 0 211 98 211 324s-62 324 -211 324s-211 -98 -211 -324s62 -324 211 -324z" />
    <glyph glyph-name="one" unicode="1" horiz-adv-x="351" 
d="M225 639l-149 -104c-3 -2 -6 -3 -9 -3c-7 0 -14 6 -14 14c0 5 2 9 6 12l171 119c4 3 7 4 11 4c9 0 15 -6 15 -15v-659c0 -8 -7 -15 -16 -15s-15 7 -15 15v632z" />
    <glyph glyph-name="two" unicode="2" horiz-adv-x="529" 
d="M76 559c26 79 92 128 196 128c133 0 206 -77 206 -192c0 -240 -396 -285 -396 -467h393c8 0 14 -6 14 -14s-6 -14 -14 -14h-411c-8 0 -14 6 -14 14c0 230 396 247 396 481c0 94 -58 164 -174 164c-103 0 -148 -49 -170 -112c-2 -5 -7 -8 -13 -8c-8 0 -14 6 -14 14
c0 1 0 3 1 6z" />
    <glyph glyph-name="three" unicode="3" horiz-adv-x="535" 
d="M225 397h49c157 0 204 -97 204 -205c0 -128 -77 -206 -224 -206c-110 0 -177 42 -210 109c-2 4 -3 7 -3 10c0 8 6 14 14 14c5 0 10 -2 13 -8c32 -64 92 -96 186 -96c128 0 192 66 192 177c0 106 -44 177 -178 177h-73c-8 0 -14 6 -14 14c0 4 2 8 5 11l219 251h-311
c-8 0 -14 6 -14 14s6 14 14 14h342c8 0 14 -6 14 -14c0 -2 0 -5 -3 -9z" />
    <glyph glyph-name="four" unicode="4" horiz-adv-x="529" 
d="M399 192h81c8 0 14 -6 14 -14s-6 -14 -14 -14h-81v-157c0 -8 -6 -15 -15 -15c-10 0 -16 7 -16 15v157h-329c-8 0 -14 6 -14 14c0 3 1 6 3 9l341 485c4 6 8 9 14 9c9 0 16 -7 16 -16v-473zM66 192h302v429z" />
    <glyph glyph-name="five" unicode="5" horiz-adv-x="551" 
d="M271 434c133 0 225 -71 225 -223c0 -156 -92 -225 -225 -225c-109 0 -188 44 -228 135c-1 2 -1 4 -1 5c0 8 6 14 14 14c4 0 10 -2 13 -8c36 -79 105 -118 202 -118c114 0 193 55 193 197c0 138 -79 195 -193 195c-84 0 -135 -26 -186 -81c-3 -3 -6 -6 -12 -6
c-8 0 -14 6 -14 14c0 1 0 3 1 7l62 322c1 6 6 11 13 11h322c8 0 14 -6 14 -14s-6 -14 -14 -14h-310l-57 -282c33 37 92 71 181 71z" />
    <glyph glyph-name="six" unicode="6" horiz-adv-x="566" 
d="M284 423c133 0 228 -69 228 -218c0 -155 -95 -219 -228 -219c-180 0 -230 139 -230 334c0 260 88 367 246 367c77 0 133 -28 157 -52c3 -3 5 -7 5 -11c0 -7 -6 -13 -13 -13c-3 0 -6 1 -10 4c-38 31 -80 44 -139 44c-153 0 -215 -121 -215 -308v-58c30 71 94 130 199 130z
M284 15c114 0 196 46 196 190c0 137 -82 190 -196 190c-103 0 -160 -59 -194 -151c7 -147 71 -229 194 -229z" />
    <glyph glyph-name="seven" unicode="7" horiz-adv-x="483" 
d="M128 5c0 372 293 442 293 640h-377c-8 0 -14 6 -14 14s6 14 14 14h396c7 0 13 -6 13 -13c0 -235 -295 -285 -295 -655c0 -7 -7 -13 -14 -13s-16 6 -16 13z" />
    <glyph glyph-name="eight" unicode="8" horiz-adv-x="550" 
d="M275 -14c-136 0 -228 64 -228 194c0 105 60 168 149 188c-70 15 -117 68 -117 154c0 113 80 165 196 165c117 0 196 -52 196 -165c0 -86 -47 -139 -117 -154c89 -20 149 -83 149 -188c0 -130 -92 -194 -228 -194zM275 660c-103 0 -167 -42 -167 -138
c0 -97 66 -143 167 -143s167 46 167 143c0 96 -63 138 -167 138zM275 352c-116 0 -196 -52 -196 -172c0 -119 86 -166 196 -166c111 0 196 47 196 166c0 120 -81 172 -196 172z" />
    <glyph glyph-name="nine" unicode="9" horiz-adv-x="566" 
d="M282 250c-133 0 -228 69 -228 218c0 155 95 219 228 219c180 0 230 -139 230 -334c0 -260 -88 -367 -246 -367c-77 0 -133 28 -157 52c-3 3 -5 7 -5 11c0 7 6 13 13 13c3 0 6 -1 10 -4c38 -31 80 -44 139 -44c153 0 215 121 215 308v58c-30 -71 -94 -130 -199 -130z
M282 658c-114 0 -196 -46 -196 -190c0 -137 82 -190 196 -190c103 0 160 59 194 151c-7 147 -71 229 -194 229z" />
    <glyph glyph-name="colon" unicode=":" horiz-adv-x="141" 
d="M70 -8c-14 0 -23 7 -23 23s9 24 23 24s23 -8 23 -24s-9 -23 -23 -23zM70 409c-14 0 -23 7 -23 23s9 24 23 24s23 -8 23 -24s-9 -23 -23 -23z" />
    <glyph glyph-name="semicolon" unicode=";" horiz-adv-x="141" 
d="M94 -3c0 -43 -16 -86 -33 -109c-3 -4 -6 -5 -10 -5c-5 0 -9 4 -9 9c0 3 1 5 2 7c15 26 20 45 20 60c0 27 -17 40 -17 58c0 12 7 22 22 22c17 0 25 -10 25 -42zM70 409c-14 0 -23 7 -23 23s9 24 23 24s23 -8 23 -24s-9 -23 -23 -23z" />
    <glyph glyph-name="less" unicode="&#x3c;" horiz-adv-x="344" 
d="M8 235c0 6 3 10 7 13l298 234c3 2 5 3 9 3c8 0 14 -6 14 -14c0 -3 -1 -8 -5 -11l-286 -225l286 -225c4 -3 5 -8 5 -11c0 -8 -6 -14 -14 -14c-4 0 -6 1 -9 3l-298 234c-4 3 -7 7 -7 13z" />
    <glyph glyph-name="equal" unicode="=" horiz-adv-x="454" 
d="M454 295c0 -7 -6 -13 -13 -13h-428c-7 0 -13 6 -13 13s6 13 13 13h428c7 0 13 -6 13 -13zM454 142c0 -7 -6 -13 -13 -13h-428c-7 0 -13 6 -13 13s6 13 13 13h428c7 0 13 -6 13 -13z" />
    <glyph glyph-name="greater" unicode="&#x3e;" horiz-adv-x="344" 
d="M336 235c0 -6 -3 -10 -7 -13l-298 -234c-3 -2 -5 -3 -9 -3c-8 0 -14 6 -14 14c0 3 1 8 5 11l286 225l-286 225c-4 3 -5 8 -5 11c0 8 6 14 14 14c4 0 6 -1 9 -3l298 -234c4 -3 7 -7 7 -13z" />
    <glyph glyph-name="question" unicode="?" horiz-adv-x="461" 
d="M196 128c-21 21 -29 51 -29 76c0 144 222 124 222 311c0 92 -61 146 -163 146c-106 0 -155 -53 -155 -152c0 -8 -7 -15 -15 -15s-15 7 -15 15c0 105 59 178 185 178c120 0 193 -68 193 -172c0 -204 -222 -185 -222 -311c0 -25 8 -41 21 -57c4 -5 4 -7 4 -10
c0 -9 -8 -14 -14 -14c-5 0 -9 2 -12 5zM202 -8c-14 0 -23 7 -23 23s9 24 23 24s23 -8 23 -24s-9 -23 -23 -23z" />
    <glyph glyph-name="at" unicode="@" horiz-adv-x="802" 
d="M389 359c65 0 137 -31 137 -116v-173c0 -50 29 -58 70 -58c70 0 134 43 134 183c0 202 -128 314 -330 314c-207 0 -328 -108 -328 -337c0 -230 121 -336 328 -336c86 0 168 13 238 65c4 3 6 4 10 4c7 0 13 -6 13 -13c0 -4 -2 -8 -6 -11c-60 -49 -147 -71 -255 -71
c-225 0 -358 115 -358 362c0 248 133 363 358 363c209 0 360 -111 360 -340c0 -86 -33 -207 -164 -207c-44 0 -80 9 -94 50c-25 -30 -62 -50 -129 -50c-97 0 -136 50 -136 107c0 75 62 106 157 106h104v46c0 59 -51 86 -109 86c-43 0 -71 -15 -95 -39c-4 -4 -7 -6 -12 -6
c-7 0 -12 6 -12 13c0 4 2 7 4 9c16 18 51 49 115 49zM498 176h-112c-79 0 -119 -25 -119 -81c0 -38 25 -82 106 -82c88 0 125 42 125 82v81z" />
    <glyph glyph-name="A" unicode="A" horiz-adv-x="616" 
d="M459 243l-151 388l-151 -388h302zM469 214h-322l-83 -211c-2 -6 -8 -11 -16 -11c-9 0 -16 7 -16 16c0 2 1 6 2 8l259 654c2 6 7 11 15 11s14 -5 16 -11l258 -654c1 -2 2 -6 2 -8c0 -9 -7 -16 -17 -16c-8 0 -13 5 -16 12z" />
    <glyph glyph-name="B" unicode="B" horiz-adv-x="556" 
d="M122 645v-276h160c108 0 165 50 165 138c0 89 -52 138 -165 138h-160zM122 341v-313h194c110 0 163 59 163 156c0 106 -58 157 -165 157h-192zM316 0h-210c-9 0 -16 7 -16 16v641c0 9 7 16 16 16h176c136 0 197 -64 197 -166c0 -92 -64 -136 -109 -147
c73 -10 141 -62 141 -176c0 -113 -68 -184 -195 -184z" />
    <glyph glyph-name="C" unicode="C" horiz-adv-x="622" 
d="M352 -14c-193 0 -308 103 -308 350c0 237 115 351 308 351c95 0 177 -41 222 -104c2 -3 4 -7 4 -11c0 -8 -6 -14 -14 -14c-4 0 -8 1 -12 6c-40 54 -113 95 -200 95c-176 0 -276 -101 -276 -323c0 -235 100 -322 276 -322c76 0 153 30 200 93c4 5 8 6 12 6
c8 0 14 -6 14 -14c0 -2 -1 -6 -3 -9c-43 -65 -130 -104 -223 -104z" />
    <glyph glyph-name="D" unicode="D" horiz-adv-x="607" 
d="M122 645v-617h133c170 0 276 73 276 308c0 233 -106 309 -276 309h-133zM106 673h149c191 0 308 -90 308 -337s-117 -336 -308 -336h-149c-9 0 -16 7 -16 16v641c0 9 7 16 16 16z" />
    <glyph glyph-name="E" unicode="E" horiz-adv-x="512" 
d="M457 0h-351c-9 0 -16 7 -16 16v641c0 9 7 16 16 16h339c8 0 14 -6 14 -14s-6 -14 -14 -14h-323v-292h252c8 0 14 -6 14 -14s-6 -14 -14 -14h-252v-297h335c8 0 14 -6 14 -14s-6 -14 -14 -14z" />
    <glyph glyph-name="F" unicode="F" horiz-adv-x="512" 
d="M122 315v-299c0 -9 -7 -16 -16 -16s-16 7 -16 16v641c0 9 7 16 16 16h339c8 0 14 -6 14 -14s-6 -14 -14 -14h-323v-302h252c8 0 14 -6 14 -14s-6 -14 -14 -14h-252z" />
    <glyph glyph-name="G" unicode="G" horiz-adv-x="672" 
d="M352 14c108 0 183 49 220 98v175h-196c-8 0 -14 6 -14 14s6 14 14 14h212c7 0 14 -6 14 -13v-185c0 -8 -3 -15 -9 -22c-48 -56 -118 -109 -241 -109c-193 0 -308 103 -308 350s115 351 308 351c95 0 177 -41 222 -104c2 -3 4 -7 4 -11c0 -8 -6 -14 -14 -14
c-4 0 -8 1 -12 6c-40 54 -113 95 -200 95c-173 0 -276 -90 -276 -323c0 -235 100 -322 276 -322z" />
    <glyph glyph-name="H" unicode="H" horiz-adv-x="644" 
d="M522 331h-400v-323c0 -9 -7 -16 -16 -16s-16 7 -16 16v657c0 9 7 16 16 16s16 -7 16 -16v-305h400v305c0 9 7 16 16 16s16 -7 16 -16v-657c0 -9 -7 -16 -16 -16s-16 7 -16 16v323z" />
    <glyph glyph-name="I" unicode="I" horiz-adv-x="212" 
d="M122 665v-657c0 -9 -7 -16 -16 -16s-16 7 -16 16v657c0 9 7 16 16 16s16 -7 16 -16z" />
    <glyph glyph-name="J" unicode="J" horiz-adv-x="401" 
d="M24 9c-5 3 -8 7 -8 13c0 8 7 15 15 15c4 0 6 -1 12 -4c27 -14 57 -19 88 -19c107 0 149 77 149 181v470c0 9 7 16 16 16s16 -7 16 -16v-470c0 -118 -49 -209 -181 -209c-37 0 -81 9 -107 23z" />
    <glyph glyph-name="K" unicode="K" horiz-adv-x="548" 
d="M122 282l344 393c4 4 7 6 13 6c10 0 17 -7 17 -17c0 -5 -2 -9 -5 -12l-232 -261l266 -373c2 -3 3 -6 3 -10c0 -8 -7 -16 -17 -16c-7 0 -11 4 -14 8l-259 366l-116 -129v-229c0 -9 -7 -16 -16 -16s-16 7 -16 16v657c0 9 7 16 16 16s16 -7 16 -16v-383z" />
    <glyph glyph-name="L" unicode="L" horiz-adv-x="477" 
d="M122 28h311c8 0 14 -6 14 -14s-6 -14 -14 -14h-329c-8 0 -14 6 -14 14v651c0 9 7 16 16 16s16 -7 16 -16v-637z" />
    <glyph glyph-name="M" unicode="M" horiz-adv-x="766" 
d="M378 112c-6 0 -11 3 -14 10l-254 485v-600c0 -8 -7 -15 -15 -15s-15 7 -15 15v659c0 8 7 15 15 15c7 0 11 -4 13 -8l270 -516l270 516c2 4 6 8 13 8c8 0 15 -7 15 -15v-659c0 -8 -7 -15 -15 -15s-15 7 -15 15v600l-254 -485c-3 -7 -8 -10 -14 -10z" />
    <glyph glyph-name="N" unicode="N" horiz-adv-x="621" 
d="M526 681c8 0 15 -7 15 -15v-658c0 -9 -7 -16 -16 -16c-7 0 -11 3 -15 9l-400 616v-610c0 -8 -7 -15 -15 -15s-15 7 -15 15v659c0 8 7 15 15 15c6 0 10 -3 12 -6l404 -620v611c0 8 7 15 15 15z" />
    <glyph glyph-name="O" unicode="O" horiz-adv-x="704" 
d="M352 -14c-193 0 -308 114 -308 350c0 237 115 351 308 351s308 -114 308 -351c0 -236 -115 -350 -308 -350zM352 659c-176 0 -276 -101 -276 -323c0 -221 100 -322 276 -322s276 101 276 322c0 222 -100 323 -276 323z" />
    <glyph glyph-name="P" unicode="P" horiz-adv-x="542" 
d="M122 645v-320h184c99 0 161 55 161 160c0 107 -63 160 -161 160h-184zM122 297v-289c0 -9 -7 -16 -16 -16s-16 7 -16 16v649c0 9 7 16 16 16h211c102 0 182 -61 182 -188c0 -125 -78 -188 -182 -188h-195z" />
    <glyph glyph-name="Q" unicode="Q" horiz-adv-x="703" 
d="M352 -14c-193 0 -308 114 -308 350c0 237 115 351 308 351s308 -114 308 -351c0 -189 -79 -301 -206 -336c48 -9 80 -37 117 -75c3 -3 5 -7 5 -12c0 -8 -7 -15 -16 -15c-4 0 -7 1 -11 5c-42 46 -91 83 -167 83h-30zM352 659c-176 0 -276 -101 -276 -323
c0 -221 100 -322 276 -322s276 101 276 322c0 222 -100 323 -276 323z" />
    <glyph glyph-name="R" unicode="R" horiz-adv-x="549" 
d="M122 645v-310h197c87 0 148 67 148 155c0 89 -62 155 -151 155h-194zM122 306v-298c0 -9 -7 -16 -16 -16s-16 7 -16 16v649c0 9 7 16 16 16h210c106 0 183 -81 183 -183s-72 -184 -180 -184h-24s216 -292 213 -288c0 0 3 -4 3 -10c0 -9 -7 -16 -17 -16c-5 0 -10 2 -14 8
l-221 306h-137z" />
    <glyph glyph-name="S" unicode="S" horiz-adv-x="535" 
d="M453 570c-34 45 -83 90 -185 90c-126 0 -173 -63 -173 -134c0 -198 398 -115 398 -354c0 -120 -83 -186 -233 -186c-115 0 -185 54 -228 121c-2 3 -3 6 -3 9c0 8 7 15 15 15c6 0 10 -3 13 -8c38 -60 102 -109 203 -109c130 0 201 51 201 158c0 217 -398 123 -398 354
c0 86 62 161 205 161c94 0 162 -36 209 -99c2 -3 3 -6 3 -9c0 -8 -7 -15 -15 -15c-6 0 -9 2 -12 6z" />
    <glyph glyph-name="T" unicode="T" horiz-adv-x="532" 
d="M250 645h-207c-8 0 -14 6 -14 14s6 14 14 14h446c8 0 14 -6 14 -14s-6 -14 -14 -14h-207v-637c0 -9 -7 -16 -16 -16s-16 7 -16 16v637z" />
    <glyph glyph-name="U" unicode="U" horiz-adv-x="627" 
d="M319 -14c-184 0 -229 106 -229 212v467c0 9 7 16 16 16s16 -7 16 -16v-467c0 -93 35 -184 197 -184s196 91 196 184v467c0 9 7 16 16 16s16 -7 16 -16v-467c0 -106 -44 -212 -228 -212z" />
    <glyph glyph-name="V" unicode="V" horiz-adv-x="568" 
d="M51 670l234 -619l232 619c2 5 6 11 15 11c10 0 17 -7 17 -17c0 -3 -2 -8 -2 -8l-247 -654c-2 -6 -9 -10 -16 -10s-13 4 -15 10l-248 654s-2 4 -2 8c0 10 7 17 16 17s14 -5 16 -11z" />
    <glyph glyph-name="W" unicode="W" horiz-adv-x="824" 
d="M599 57l174 613c2 6 7 11 15 11c10 0 17 -7 17 -17c0 -1 0 -3 -1 -6l-189 -654c-2 -7 -8 -12 -16 -12s-13 4 -15 11l-172 609l-172 -609c-2 -7 -8 -11 -16 -11c-6 0 -13 4 -15 11l-189 656c-1 3 -1 4 -1 5c0 10 7 17 16 17c8 0 14 -5 16 -11l174 -616l172 616
c2 7 8 11 15 11s14 -4 16 -11z" />
    <glyph glyph-name="X" unicode="X" horiz-adv-x="486" 
d="M225 346l-205 309c-2 3 -3 6 -3 9c0 10 7 17 16 17c7 0 12 -3 15 -8l195 -298l194 298c3 5 8 8 14 8c10 0 17 -7 17 -17c0 -3 -1 -6 -3 -9l-204 -309l217 -328c2 -3 3 -5 3 -10c0 -9 -7 -16 -17 -16c-6 0 -10 2 -14 8l-207 318l-208 -318c-3 -5 -9 -8 -15 -8
c-9 0 -16 7 -16 16c0 5 1 7 3 10z" />
    <glyph glyph-name="Y" unicode="Y" horiz-adv-x="503" 
d="M251 -8c-9 0 -16 7 -16 16v310l-215 336c-2 3 -3 7 -3 10c0 10 7 17 16 17c7 0 12 -3 15 -8l203 -325l202 325c4 6 9 8 14 8c10 0 17 -7 17 -17c0 -3 -1 -7 -3 -10l-214 -336v-310c0 -9 -7 -16 -16 -16z" />
    <glyph glyph-name="Z" unicode="Z" horiz-adv-x="497" 
d="M469 0h-445c-7 0 -13 6 -13 14c0 4 1 6 3 9l415 622h-382c-8 0 -14 6 -14 14s6 14 14 14h406c8 0 14 -6 14 -14c0 -3 -1 -6 -3 -9l-413 -622h418c8 0 14 -6 14 -14s-6 -14 -14 -14z" />
    <glyph glyph-name="bracketleft" unicode="[" horiz-adv-x="233" 
d="M191 -133c0 -7 -6 -13 -13 -13h-92c-7 0 -13 6 -13 13v858c0 7 6 13 13 13h92c7 0 13 -6 13 -13s-6 -13 -13 -13h-75v-832h75c7 0 13 -6 13 -13z" />
    <glyph glyph-name="backslash" unicode="\" horiz-adv-x="408" 
d="M66 751c6 0 12 -4 14 -11l276 -817c1 -3 1 -5 1 -6c0 -7 -6 -15 -15 -15c-7 0 -13 4 -15 10l-276 818c-1 3 -1 4 -1 5c0 9 7 16 16 16z" />
    <glyph glyph-name="bracketright" unicode="]" horiz-adv-x="234" 
d="M42 -133c0 7 6 13 13 13h75v832h-75c-7 0 -13 6 -13 13s6 13 13 13h92c7 0 13 -6 13 -13v-858c0 -7 -6 -13 -13 -13h-92c-7 0 -13 6 -13 13z" />
    <glyph glyph-name="asciicircum" unicode="^" horiz-adv-x="468" 
d="M397 377l-163 275l-163 -275c-3 -6 -8 -8 -13 -8c-8 0 -14 6 -14 14c0 3 1 6 3 9l174 290c3 5 6 9 13 9s10 -4 13 -9l174 -290c2 -3 3 -6 3 -9c0 -8 -6 -14 -14 -14c-5 0 -10 2 -13 8z" />
    <glyph glyph-name="underscore" unicode="_" horiz-adv-x="406" 
d="M427 -69c0 -7 -6 -13 -13 -13h-422c-7 0 -13 6 -13 13s6 13 13 13h422c7 0 13 -6 13 -13z" />
    <glyph glyph-name="quoteleft" unicode="&#x2018;" horiz-adv-x="137" 
d="M45 567c0 43 16 86 33 109c3 4 6 5 10 5c5 0 9 -4 9 -9c0 -3 -1 -5 -2 -7c-15 -26 -20 -45 -20 -60c0 -27 17 -40 17 -58c0 -12 -7 -22 -22 -22c-17 0 -25 10 -25 42z" />
    <glyph glyph-name="a" unicode="a" horiz-adv-x="463" 
d="M228 442c-81 0 -113 -36 -137 -73c-3 -5 -8 -7 -12 -7c-8 0 -14 6 -14 14c0 3 1 6 3 9c26 42 76 83 160 83c123 0 175 -66 175 -165v-296c0 -8 -6 -14 -14 -14s-14 6 -14 14v59c-33 -53 -98 -78 -165 -78c-112 0 -174 50 -174 138s71 139 185 139h154v46
c0 85 -55 131 -147 131zM210 14c87 0 165 47 165 141v85h-154c-90 0 -154 -37 -154 -114c0 -69 46 -112 143 -112z" />
    <glyph glyph-name="b" unicode="b" horiz-adv-x="507" 
d="M100 325v-144c0 -117 69 -168 163 -168c113 0 173 65 173 215c0 148 -60 214 -173 214c-120 0 -163 -117 -163 -117zM263 468c128 0 205 -76 205 -240s-77 -241 -205 -241c-112 0 -193 64 -193 194v516c0 8 7 15 15 15s15 -7 15 -15v-324s44 95 163 95z" />
    <glyph glyph-name="c" unicode="c" horiz-adv-x="440" 
d="M39 228c0 164 77 240 205 240c99 0 138 -54 148 -67c2 -3 3 -6 3 -9c0 -7 -6 -13 -13 -13c-5 0 -8 2 -11 6c-17 20 -47 57 -127 57c-113 0 -173 -66 -173 -214c0 -150 60 -215 173 -215c69 0 107 29 133 49c3 2 5 3 8 3c7 0 13 -6 13 -13c0 -3 -1 -7 -6 -11
c-20 -16 -67 -54 -148 -54c-128 0 -205 77 -205 241z" />
    <glyph glyph-name="d" unicode="d" horiz-adv-x="502" 
d="M407 325c0 0 -39 117 -163 117c-113 0 -173 -66 -173 -214c0 -150 60 -215 173 -215c94 0 163 51 163 168v144zM244 468c123 0 163 -95 163 -95v324c0 8 7 15 15 15s15 -7 15 -15v-516c0 -130 -81 -194 -193 -194c-128 0 -205 77 -205 241s77 240 205 240z" />
    <glyph glyph-name="e" unicode="e" 
d="M40 228c0 155 76 240 204 240c166 0 188 -124 188 -191c0 -11 0 -25 -2 -37c-2 -11 -9 -16 -22 -16h-337c0 -144 67 -211 184 -211c75 0 112 26 141 50c3 2 5 3 8 3c7 0 13 -6 13 -13c0 -5 -3 -8 -6 -11c-16 -15 -64 -55 -156 -55c-133 0 -215 72 -215 241zM403 277
c0 80 -31 165 -159 165c-113 0 -169 -74 -173 -193h331s1 20 1 28z" />
    <glyph glyph-name="f" unicode="f" horiz-adv-x="275" 
d="M95 428h-57c-7 0 -13 6 -13 13s6 13 13 13h57v63c0 88 50 168 168 168c7 0 13 -6 13 -13s-6 -13 -13 -13c-99 0 -138 -59 -138 -142v-63h118c7 0 13 -6 13 -13s-6 -13 -13 -13h-118v-421c0 -8 -7 -15 -15 -15s-15 7 -15 15v421z" />
    <glyph glyph-name="g" unicode="g" 
d="M57 306c0 99 64 162 177 162c46 0 86 -11 115 -30c11 36 42 59 90 59c7 0 13 -6 13 -13s-6 -13 -13 -13c-44 0 -61 -17 -70 -50c27 -28 42 -68 42 -115c0 -99 -64 -162 -177 -162c-44 0 -82 9 -110 26c-31 -8 -43 -25 -43 -52c0 -36 25 -54 93 -54h125
c87 0 158 -39 158 -128c0 -99 -90 -137 -211 -137c-102 0 -209 29 -209 133c0 63 44 101 87 111c-32 9 -71 21 -71 75c0 33 18 57 51 68c-31 28 -47 69 -47 120zM380 306c0 85 -49 136 -146 136s-146 -51 -146 -136s49 -136 146 -136s146 51 146 136zM426 -64
c0 75 -57 101 -127 101h-122c-74 -10 -109 -49 -109 -105c0 -81 82 -107 179 -107s179 26 179 111z" />
    <glyph glyph-name="h" unicode="h" horiz-adv-x="496" 
d="M85 -8c-8 0 -15 7 -15 15v690c0 8 7 15 15 15s15 -7 15 -15v-325c15 40 61 96 157 96c144 0 179 -85 179 -177v-284c0 -8 -7 -15 -15 -15s-15 7 -15 15v284c0 81 -28 151 -150 151c-109 0 -156 -83 -156 -161v-274c0 -8 -7 -15 -15 -15z" />
    <glyph glyph-name="i" unicode="i" horiz-adv-x="175" 
d="M90 462c8 0 15 -7 15 -15v-440c0 -8 -7 -15 -15 -15s-15 7 -15 15v440c0 8 7 15 15 15zM90 592c-12 0 -18 6 -18 21s6 21 18 21s18 -6 18 -21s-6 -21 -18 -21z" />
    <glyph glyph-name="j" unicode="j" horiz-adv-x="180" 
d="M95 462c8 0 15 -7 15 -15v-505c0 -80 -58 -143 -139 -143c-7 0 -13 6 -13 13s6 13 13 13c65 0 109 52 109 117v505c0 8 7 15 15 15zM94 592c-12 0 -18 6 -18 21s6 21 18 21s18 -6 18 -21s-6 -21 -18 -21z" />
    <glyph glyph-name="k" unicode="k" horiz-adv-x="438" 
d="M402 -8c-5 0 -8 2 -11 5l-208 259l-83 -71v-178c0 -8 -7 -15 -15 -15s-15 7 -15 15v690c0 8 7 15 15 15s15 -7 15 -15v-476l283 237c4 3 7 4 10 4c8 0 15 -7 15 -15c0 -5 -2 -9 -6 -12l-196 -161l207 -257c3 -4 4 -7 4 -10c0 -8 -7 -15 -15 -15z" />
    <glyph glyph-name="l" unicode="l" horiz-adv-x="195" 
d="M85 712c8 0 15 -7 15 -15v-597c0 -58 20 -82 63 -82c7 0 13 -6 13 -13s-6 -13 -13 -13c-60 0 -93 37 -93 108v597c0 8 7 15 15 15z" />
    <glyph glyph-name="m" unicode="m" horiz-adv-x="808" 
d="M570 468c144 0 178 -85 178 -177v-284c0 -8 -7 -15 -15 -15s-15 7 -15 15v284c0 81 -32 152 -148 152c-105 0 -146 -71 -146 -153v-283c0 -8 -7 -15 -15 -15s-15 7 -15 15v284c0 81 -27 152 -145 152c-105 0 -149 -88 -149 -174v-262c0 -8 -7 -15 -15 -15s-15 7 -15 15
v440c0 8 7 15 15 15s15 -7 15 -15v-76c14 44 61 97 152 97c94 0 143 -40 161 -93c14 42 63 93 157 93z" />
    <glyph glyph-name="n" unicode="n" horiz-adv-x="496" 
d="M85 -8c-8 0 -15 7 -15 15v440c0 8 7 15 15 15s15 -7 15 -15v-75c15 40 63 96 157 96c144 0 179 -85 179 -177v-284c0 -8 -7 -15 -15 -15s-15 7 -15 15v284c0 81 -28 151 -150 151c-109 0 -156 -83 -156 -161v-274c0 -8 -7 -15 -15 -15z" />
    <glyph glyph-name="o" unicode="o" horiz-adv-x="488" 
d="M244 468c128 0 205 -76 205 -240s-77 -241 -205 -241s-205 77 -205 241s77 240 205 240zM244 13c112 0 173 66 173 215c0 147 -61 214 -173 214s-173 -67 -173 -214c0 -149 61 -215 173 -215z" />
    <glyph glyph-name="p" unicode="p" horiz-adv-x="509" 
d="M85 462c8 0 15 -7 15 -15v-78c26 64 81 99 165 99c128 0 205 -76 205 -240s-77 -241 -205 -241c-131 0 -165 96 -165 96v-269c0 -8 -7 -15 -15 -15s-15 7 -15 15v633c0 8 7 15 15 15zM98 228c0 -154 71 -215 167 -215c113 0 173 65 173 215c0 148 -63 214 -176 214
c-101 0 -164 -65 -164 -214z" />
    <glyph glyph-name="q" unicode="q" horiz-adv-x="491" 
d="M415 130v145c0 117 -72 167 -165 167c-113 0 -173 -66 -173 -214c0 -150 60 -215 173 -215c122 0 165 117 165 117zM250 -13c-128 0 -205 77 -205 241s77 240 205 240c114 0 195 -64 195 -193v-461c0 -8 -7 -15 -15 -15s-15 7 -15 15v269s-42 -96 -165 -96z" />
    <glyph glyph-name="r" unicode="r" horiz-adv-x="295" 
d="M85 462c8 0 15 -7 15 -15v-98c21 67 77 118 171 118c7 0 13 -6 13 -13s-6 -13 -13 -13c-115 0 -171 -89 -171 -198v-236c0 -8 -7 -15 -15 -15s-15 7 -15 15v440c0 8 7 15 15 15z" />
    <glyph glyph-name="s" unicode="s" horiz-adv-x="399" 
d="M196 442c-59 0 -117 -21 -117 -86c0 -133 286 -87 286 -245c0 -85 -72 -124 -165 -124c-84 0 -146 36 -170 69c-3 4 -4 6 -4 10c0 8 7 13 13 13c3 0 6 -1 9 -4c34 -38 77 -62 152 -62c73 0 135 26 135 98c0 129 -286 87 -286 245c0 77 65 112 147 112
c68 0 116 -23 149 -60c3 -4 4 -6 4 -10c0 -7 -6 -13 -13 -13c-2 0 -5 0 -9 4c-35 35 -73 53 -131 53z" />
    <glyph glyph-name="t" unicode="t" horiz-adv-x="265" 
d="M95 454v122c0 8 7 15 15 15s15 -7 15 -15v-122h90c7 0 13 -6 13 -13s-6 -13 -13 -13h-90v-318c0 -60 34 -92 83 -92c7 0 13 -6 13 -13s-6 -13 -13 -13c-73 0 -113 50 -113 118v318h-62c-7 0 -13 6 -13 13s6 13 13 13h62z" />
    <glyph glyph-name="u" unicode="u" horiz-adv-x="486" 
d="M75 462c8 0 15 -7 15 -15v-282c0 -82 26 -152 153 -152s153 70 153 152v282c0 8 7 15 15 15s15 -7 15 -15v-282c0 -93 -32 -178 -183 -178s-183 85 -183 178v282c0 8 7 15 15 15z" />
    <glyph glyph-name="v" unicode="v" horiz-adv-x="428" 
d="M214 38l167 414c1 3 5 10 14 10c8 0 15 -7 15 -15c0 -2 -1 -6 -2 -8l-181 -439c-3 -6 -7 -8 -13 -8s-10 2 -13 8l-181 439c-1 2 -2 6 -2 8c0 8 7 15 15 15c9 0 13 -7 14 -10z" />
    <glyph glyph-name="w" unicode="w" horiz-adv-x="656" 
d="M328 406l-120 -404c-2 -6 -6 -10 -15 -10c-7 0 -11 4 -13 10l-160 437c-1 3 -2 5 -2 8c0 8 6 15 14 15s12 -4 14 -10l147 -411l122 412c1 4 5 9 12 9c8 0 12 -5 13 -9l122 -412l148 411c2 6 6 10 14 10s14 -6 14 -14c0 -3 -1 -6 -2 -9l-160 -437c-2 -6 -7 -10 -14 -10
c-8 0 -13 4 -15 10z" />
    <glyph glyph-name="x" unicode="x" horiz-adv-x="385" 
d="M342 -2l-149 211l-150 -211c-3 -4 -8 -6 -12 -6c-8 0 -15 7 -15 15c0 4 1 6 3 9l158 216l-154 206c-2 3 -3 6 -3 9c0 8 7 15 15 15c6 0 10 -3 13 -7l147 -201l142 200c3 4 6 8 13 8c8 0 15 -7 15 -15c0 -3 -1 -6 -3 -9l-151 -210l155 -212c2 -3 3 -5 3 -9
c0 -8 -7 -15 -15 -15c-5 0 -9 2 -12 6z" />
    <glyph glyph-name="y" unicode="y" horiz-adv-x="428" 
d="M214 38l167 414c1 3 5 10 14 10c8 0 15 -7 15 -15c0 -2 -1 -6 -2 -8l-211 -509c-41 -98 -89 -131 -182 -131c-7 0 -13 6 -13 13s6 13 13 13c109 0 134 55 184 179l-179 435c-1 2 -2 6 -2 8c0 8 7 15 15 15c9 0 13 -7 14 -10z" />
    <glyph glyph-name="z" unicode="z" horiz-adv-x="388" 
d="M37 441c0 7 6 13 13 13h298c7 0 13 -6 13 -13c0 -5 -2 -8 -4 -11l-294 -404h292c7 0 13 -6 13 -13s-6 -13 -13 -13h-320c-7 0 -13 6 -13 13c0 3 1 5 3 8l297 407h-272c-7 0 -13 6 -13 13z" />
    <glyph glyph-name="braceleft" unicode="{" horiz-adv-x="294" 
d="M231 -120c7 0 13 -6 13 -13s-6 -13 -13 -13c-53 0 -91 32 -91 84c0 83 13 158 13 237c0 78 -43 109 -104 109h-10c-7 0 -12 5 -12 12s5 12 12 12h10c61 0 104 31 104 109c0 80 -13 154 -13 237c0 53 38 84 91 84c7 0 13 -6 13 -13s-6 -13 -13 -13c-36 0 -59 -19 -59 -58
c0 -78 6 -161 6 -238c0 -70 -37 -120 -99 -120c62 0 99 -50 99 -120c0 -77 -6 -160 -6 -238c0 -39 23 -58 59 -58z" />
    <glyph glyph-name="bar" unicode="|" horiz-adv-x="218" 
d="M124 793v-938c0 -8 -7 -15 -15 -15s-15 7 -15 15v938c0 8 7 15 15 15s15 -7 15 -15z" />
    <glyph glyph-name="braceright" unicode="}" horiz-adv-x="294" 
d="M63 -120c36 0 59 19 59 58c0 78 -6 161 -6 238c0 70 37 120 99 120c-62 0 -99 50 -99 120c0 77 6 160 6 238c0 39 -23 58 -59 58c-7 0 -13 6 -13 13s6 13 13 13c53 0 91 -31 91 -84c0 -83 -13 -157 -13 -237c0 -78 43 -109 104 -109h10c7 0 12 -5 12 -12s-5 -12 -12 -12
h-10c-61 0 -104 -31 -104 -109c0 -79 13 -154 13 -237c0 -52 -38 -84 -91 -84c-7 0 -13 6 -13 13s6 13 13 13z" />
    <glyph glyph-name="asciitilde" unicode="~" horiz-adv-x="477" 
d="M431 350c7 0 12 -6 12 -12c0 -3 -1 -6 -2 -8c-13 -28 -48 -75 -107 -75c-69 0 -111 70 -174 70c-49 0 -71 -38 -85 -61c-3 -5 -5 -8 -12 -8s-12 5 -12 12c0 3 2 7 3 9c13 25 48 74 106 74c76 0 112 -71 174 -71c48 0 72 37 85 61c2 4 5 9 12 9z" />
    <glyph glyph-name="exclamdown" unicode="&#xa1;" horiz-adv-x="141" 
d="M70 468c14 0 23 -7 23 -23s-9 -24 -23 -24s-23 8 -23 24s9 23 23 23zM70 336c5 0 10 -3 10 -9l8 -531c0 -12 -8 -17 -18 -17s-18 5 -18 17l8 531c0 6 5 9 10 9z" />
    <glyph glyph-name="sterling" unicode="&#xa3;" horiz-adv-x="591" 
d="M544 89c8 0 14 -6 14 -13c0 -4 -1 -7 -2 -9c-32 -64 -83 -83 -147 -83c-74 0 -110 51 -182 51c-68 0 -109 -32 -119 -40c-3 -2 -6 -4 -11 -4c-9 0 -15 6 -15 15c0 5 2 9 7 13c42 34 95 100 95 161c0 42 -12 79 -31 118h-65c-7 0 -13 6 -13 13s6 13 13 13h54
c-30 54 -59 109 -59 176c0 108 81 187 210 187c117 0 189 -46 214 -131c1 -3 2 -7 2 -9c0 -8 -7 -15 -15 -15s-13 6 -15 13c-27 76 -77 116 -186 116c-103 0 -180 -62 -180 -161c0 -58 24 -107 62 -176h191c7 0 13 -6 13 -13s-6 -13 -13 -13h-180c17 -35 28 -73 28 -118
c0 -54 -39 -111 -72 -139c24 11 46 20 84 20c87 0 119 -51 183 -51c52 0 97 17 123 71c3 6 8 8 12 8z" />
    <glyph glyph-name="fraction" unicode="&#x2044;" horiz-adv-x="288" 
d="M273 681c6 0 11 -5 11 -11c0 -3 -1 -6 -2 -8l-257 -663c-1 -3 -4 -7 -10 -7s-11 5 -11 11c0 3 1 5 2 8l256 662c2 6 6 8 11 8z" />
    <glyph glyph-name="florin" unicode="&#x192;" horiz-adv-x="410" 
d="M390 664c0 -10 -7 -14 -13 -14c-2 0 -5 1 -8 2c-8 3 -26 9 -55 9c-61 0 -89 -34 -110 -138l-25 -125h103c7 0 13 -6 13 -13s-6 -13 -13 -13h-107l-78 -405c-21 -110 -47 -168 -162 -168c-21 0 -42 6 -51 10c-3 1 -8 5 -8 12s5 12 12 12c4 0 6 -1 9 -2c9 -3 21 -6 42 -6
c76 0 108 37 127 138l79 409h-71c-7 0 -13 6 -13 13s6 13 13 13h75l24 121c23 118 59 168 148 168c22 0 49 -6 59 -11c7 -3 10 -7 10 -12z" />
    <glyph glyph-name="section" unicode="&#xa7;" horiz-adv-x="504" 
d="M77 283c0 -143 183 -127 292 -201c36 26 57 66 57 123c0 142 -180 133 -291 202c-36 -27 -58 -68 -58 -124zM391 66c31 -27 51 -64 51 -112c0 -82 -61 -155 -200 -155c-85 0 -150 36 -188 86c-3 4 -4 7 -4 10c0 8 6 14 13 14s11 -3 14 -8c20 -30 72 -76 165 -76
c122 0 168 62 168 129c0 199 -365 109 -365 329c0 60 29 104 67 138c-31 28 -51 65 -51 114c0 82 59 152 198 152c85 0 154 -36 190 -86c2 -3 3 -6 3 -10c0 -7 -6 -12 -13 -12c-4 0 -8 1 -11 5c-20 24 -66 77 -169 77c-122 0 -166 -59 -166 -126c0 -196 365 -111 365 -330
c0 -56 -30 -111 -67 -139z" />
    <glyph glyph-name="quotesingle" unicode="'" horiz-adv-x="199" 
d="M100 681c10 0 17 -5 17 -17l-8 -171c0 -5 -4 -8 -9 -8c-6 0 -10 3 -10 8l-7 171c0 12 6 17 17 17z" />
    <glyph glyph-name="quotedblleft" unicode="&#x201c;" horiz-adv-x="234" 
d="M45 567c0 43 16 86 33 109c3 4 6 5 10 5c5 0 9 -4 9 -9c0 -3 -1 -5 -2 -7c-15 -26 -20 -45 -20 -60c0 -27 17 -40 17 -58c0 -12 -7 -22 -22 -22c-17 0 -25 10 -25 42zM142 567c0 43 16 86 33 109c3 4 6 5 10 5c5 0 9 -4 9 -9c0 -3 -1 -5 -2 -7c-15 -26 -20 -45 -20 -60
c0 -27 17 -40 17 -58c0 -12 -7 -22 -22 -22c-17 0 -25 10 -25 42z" />
    <glyph glyph-name="guillemotleft" unicode="&#xab;" horiz-adv-x="464" 
d="M91 212l169 -195c2 -2 3 -6 3 -9c0 -8 -6 -14 -14 -14c-4 0 -7 1 -10 4l-176 207c-1 1 -3 3 -3 7s2 6 3 7l176 207c3 3 6 4 10 4c8 0 14 -6 14 -14c0 -3 -1 -7 -3 -9zM231 212l169 -195c2 -2 3 -6 3 -9c0 -8 -6 -14 -14 -14c-4 0 -7 1 -10 4l-176 207c-1 1 -3 3 -3 7
s2 6 3 7l176 207c3 3 6 4 10 4c8 0 14 -6 14 -14c0 -3 -1 -7 -3 -9z" />
    <glyph glyph-name="guilsinglleft" unicode="&#x2039;" horiz-adv-x="324" 
d="M91 212l169 -195c2 -2 3 -6 3 -9c0 -8 -6 -14 -14 -14c-4 0 -7 1 -10 4l-176 207c-1 1 -3 3 -3 7s2 6 3 7l176 207c3 3 6 4 10 4c8 0 14 -6 14 -14c0 -3 -1 -7 -3 -9z" />
    <glyph glyph-name="guilsinglright" unicode="&#x203a;" horiz-adv-x="323" 
d="M63 17l169 195l-169 195c-2 2 -3 6 -3 9c0 8 6 14 14 14c4 0 7 -1 10 -4l176 -207c1 -1 3 -3 3 -7s-2 -6 -3 -7l-176 -207c-3 -3 -6 -4 -10 -4c-8 0 -14 6 -14 14c0 3 1 7 3 9z" />
    <glyph glyph-name="endash" unicode="&#x2013;" horiz-adv-x="584" 
d="M481 282c0 -7 -6 -13 -13 -13h-352c-7 0 -13 6 -13 13s6 13 13 13h352c7 0 13 -6 13 -13z" />
    <glyph glyph-name="dagger" unicode="&#x2020;" horiz-adv-x="421" 
d="M211 -150c-5 0 -10 2 -10 8l-5 621h-120c-10 0 -13 5 -13 13s3 13 13 13h120l-2 190c0 12 5 17 17 17s17 -5 17 -17l-2 -190h120c10 0 13 -5 13 -13s-3 -13 -13 -13h-120l-5 -621c0 -6 -5 -8 -10 -8z" />
    <glyph glyph-name="daggerdbl" unicode="&#x2021;" horiz-adv-x="421" 
d="M196 479h-120c-10 0 -13 5 -13 13s3 13 13 13h120l-2 190c0 12 5 17 17 17s17 -5 17 -17l-2 -190h120c10 0 13 -5 13 -13s-3 -13 -13 -13h-120l-2 -223l2 -223h120c10 0 13 -5 13 -13s-3 -13 -13 -13h-120l2 -190c0 -12 -5 -17 -17 -17s-17 5 -17 17l2 190h-120
c-10 0 -13 5 -13 13s3 13 13 13h120l2 223z" />
    <glyph glyph-name="paragraph" unicode="&#xb6;" horiz-adv-x="434" 
d="M416 660c0 -7 -6 -13 -13 -13h-32v-329c0 -247 -93 -351 -278 -351c-25 0 -50 4 -65 11c-4 2 -7 5 -7 11c0 8 5 13 13 13c1 0 2 0 5 -1c17 -5 37 -8 54 -8c99 0 140 82 140 200v166h-55c-86 0 -156 70 -156 157c0 86 70 157 156 157h225c7 0 13 -6 13 -13zM341 647h-78
v-451c0 -90 -22 -139 -59 -185c79 33 137 117 137 307v329z" />
    <glyph glyph-name="bullet" unicode="&#x2022;" horiz-adv-x="418" 
d="M209 149c-83 0 -130 42 -130 130c0 94 47 136 130 136s130 -42 130 -136c0 -88 -47 -130 -130 -130z" />
    <glyph glyph-name="quotesinglbase" unicode="&#x201a;" horiz-adv-x="141" 
d="M94 -3c0 -43 -16 -86 -33 -109c-3 -4 -6 -5 -10 -5c-5 0 -9 4 -9 9c0 3 1 5 2 7c15 26 20 45 20 60c0 27 -17 40 -17 58c0 12 7 22 22 22c17 0 25 -10 25 -42z" />
    <glyph glyph-name="quotedblbase" unicode="&#x201e;" horiz-adv-x="238" 
d="M191 -3c0 -43 -16 -86 -33 -109c-3 -4 -6 -5 -10 -5c-5 0 -9 4 -9 9c0 3 1 5 2 7c15 26 20 45 20 60c0 27 -17 40 -17 58c0 12 7 22 22 22c17 0 25 -10 25 -42zM94 -3c0 -43 -16 -86 -33 -109c-3 -4 -6 -5 -10 -5c-5 0 -9 4 -9 9c0 3 1 5 2 7c15 26 20 45 20 60
c0 27 -17 40 -17 58c0 12 7 22 22 22c17 0 25 -10 25 -42z" />
    <glyph glyph-name="quotedblright" unicode="&#x201d;" horiz-adv-x="234" 
d="M189 639c0 -43 -16 -86 -33 -109c-3 -4 -6 -5 -10 -5c-5 0 -9 4 -9 9c0 3 1 5 2 7c15 26 20 45 20 60c0 27 -17 40 -17 58c0 12 7 22 22 22c17 0 25 -10 25 -42zM92 639c0 -43 -16 -86 -33 -109c-3 -4 -6 -5 -10 -5c-5 0 -9 4 -9 9c0 3 1 5 2 7c15 26 20 45 20 60
c0 27 -17 40 -17 58c0 12 7 22 22 22c17 0 25 -10 25 -42z" />
    <glyph glyph-name="guillemotright" unicode="&#xbb;" horiz-adv-x="463" 
d="M203 17l169 195l-169 195c-2 2 -3 6 -3 9c0 8 6 14 14 14c4 0 7 -1 10 -4l176 -207c1 -1 3 -3 3 -7s-2 -6 -3 -7l-176 -207c-3 -3 -6 -4 -10 -4c-8 0 -14 6 -14 14c0 3 1 7 3 9zM63 17l169 195l-169 195c-2 2 -3 6 -3 9c0 8 6 14 14 14c4 0 7 -1 10 -4l176 -207
c1 -1 3 -3 3 -7s-2 -6 -3 -7l-176 -207c-3 -3 -6 -4 -10 -4c-8 0 -14 6 -14 14c0 3 1 7 3 9z" />
    <glyph glyph-name="perthousand" unicode="&#x2030;" horiz-adv-x="1078" 
d="M188 386c86 0 112 61 112 138s-26 138 -112 138s-112 -61 -112 -138s26 -138 112 -138zM188 687c102 0 138 -72 138 -163s-36 -163 -138 -163s-138 72 -138 163s36 163 138 163zM556 661l-334 -661c-2 -5 -8 -8 -12 -8c-7 0 -13 6 -13 13c0 3 1 5 2 7l334 661
c2 5 7 8 12 8c7 0 13 -6 13 -13c0 -2 -1 -5 -2 -7zM558 12c86 0 112 61 112 138s-26 138 -112 138s-112 -61 -112 -138s26 -138 112 -138zM558 313c102 0 138 -72 138 -163s-36 -163 -138 -163s-138 72 -138 163s36 163 138 163zM890 12c86 0 112 61 112 138
s-26 138 -112 138s-112 -61 -112 -138s26 -138 112 -138zM890 313c102 0 138 -72 138 -163s-36 -163 -138 -163s-138 72 -138 163s36 163 138 163z" />
    <glyph glyph-name="questiondown" unicode="&#xbf;" horiz-adv-x="461" 
d="M265 332c21 -21 29 -51 29 -76c0 -144 -222 -124 -222 -311c0 -92 61 -146 163 -146c106 0 155 53 155 152c0 8 7 15 15 15s15 -7 15 -15c0 -105 -59 -178 -185 -178c-120 0 -193 68 -193 172c0 204 222 185 222 311c0 25 -8 41 -21 57c-4 5 -4 7 -4 10c0 9 8 14 14 14
c5 0 9 -2 12 -5zM259 468c14 0 23 -7 23 -23s-9 -24 -23 -24s-23 8 -23 24s9 23 23 23z" />
    <glyph glyph-name="grave" unicode="`" horiz-adv-x="370" 
d="M126 657c8 7 16 6 22 -1l99 -118c5 -6 3 -11 -2 -16c-4 -4 -10 -6 -16 1l-104 112c-7 7 -6 16 1 22z" />
    <glyph glyph-name="acute" unicode="&#xb4;" horiz-adv-x="370" 
d="M244 657c7 -6 8 -15 1 -22l-104 -112c-6 -7 -12 -5 -16 -1c-5 5 -7 10 -2 16l99 118c6 7 14 8 22 1z" />
    <glyph glyph-name="circumflex" unicode="&#x2c6;" horiz-adv-x="334" 
d="M260 537l-93 84l-93 -84c-2 -2 -5 -4 -9 -4c-7 0 -13 6 -13 13c0 5 3 8 5 10l99 89c3 3 7 5 11 5s8 -2 11 -5l99 -89c2 -2 5 -5 5 -10c0 -7 -6 -13 -13 -13c-4 0 -7 2 -9 4z" />
    <glyph glyph-name="tilde" unicode="&#x2dc;" horiz-adv-x="378" 
d="M255 535c-57 0 -83 43 -132 43c-30 0 -42 -17 -51 -37c-2 -5 -7 -8 -12 -8c-7 0 -13 6 -13 13c0 3 1 6 2 8c9 21 31 50 74 50c57 0 83 -43 132 -43c32 0 43 19 51 39c2 5 7 8 12 8c7 0 13 -6 13 -13c0 -3 -1 -6 -2 -8c-9 -20 -31 -52 -74 -52z" />
    <glyph glyph-name="macron" unicode="&#xaf;" horiz-adv-x="382" 
d="M309 567c0 -7 -6 -13 -13 -13h-210c-7 0 -13 6 -13 13s6 13 13 13h210c7 0 13 -6 13 -13z" />
    <glyph glyph-name="breve" unicode="&#x2d8;" horiz-adv-x="315" 
d="M157 531c-55 0 -105 26 -105 96c0 7 6 13 13 13s13 -6 13 -13c0 -49 27 -72 79 -72s79 23 79 72c0 7 6 13 13 13s13 -6 13 -13c0 -70 -50 -96 -105 -96z" />
    <glyph glyph-name="dotaccent" unicode="&#x2d9;" horiz-adv-x="277" 
d="M139 549c-14 0 -22 7 -22 22c0 16 8 23 22 23s22 -7 22 -23c0 -15 -8 -22 -22 -22z" />
    <glyph glyph-name="dieresis" unicode="&#xa8;" horiz-adv-x="248" 
d="M44 544c-15 0 -22 7 -22 23s7 23 22 23s22 -7 22 -23s-7 -23 -22 -23zM204 544c-15 0 -22 7 -22 23s7 23 22 23s22 -7 22 -23s-7 -23 -22 -23z" />
    <glyph glyph-name="ring" unicode="&#x2da;" horiz-adv-x="267" 
d="M133 698c71 0 104 -37 104 -98s-33 -98 -104 -98s-104 37 -104 98s33 98 104 98zM133 524c55 0 78 24 78 76s-23 76 -78 76s-78 -24 -78 -76s23 -76 78 -76z" />
    <glyph glyph-name="cedilla" unicode="&#xb8;" horiz-adv-x="315" 
d="M231 -139c0 -49 -32 -85 -92 -85c-28 0 -51 9 -61 18c-2 2 -3 5 -3 7c0 6 4 10 9 10c3 0 5 -1 8 -3c11 -7 25 -14 47 -14c45 0 68 23 68 67c0 48 -29 63 -60 63c-20 0 -31 -6 -37 -6s-11 5 -11 11l4 71h20l-5 -62s13 4 29 4c51 0 84 -28 84 -81z" />
    <glyph glyph-name="ogonek" unicode="&#x2db;" horiz-adv-x="308" 
d="M219 -144c6 0 11 -5 11 -11c0 -5 -3 -8 -6 -10c-16 -9 -36 -14 -59 -14c-66 0 -88 35 -88 73c0 42 27 85 81 106h23c-57 -27 -79 -63 -79 -101c0 -30 15 -54 65 -54c22 0 32 3 45 9c2 1 4 2 7 2z" />
    <glyph glyph-name="caron" unicode="&#x2c7;" horiz-adv-x="330" 
d="M72 646l93 -84l93 84c2 2 5 4 9 4c7 0 13 -6 13 -13c0 -5 -3 -8 -5 -10l-99 -89c-3 -3 -7 -5 -11 -5s-8 2 -11 5l-99 89c-2 2 -5 5 -5 10c0 7 6 13 13 13c4 0 7 -2 9 -4z" />
    <glyph glyph-name="emdash" unicode="&#x2014;" horiz-adv-x="918" 
d="M815 282c0 -7 -6 -13 -13 -13h-686c-7 0 -13 6 -13 13s6 13 13 13h686c7 0 13 -6 13 -13z" />
    <glyph glyph-name="ordfeminine" unicode="&#xaa;" horiz-adv-x="381" 
d="M340 285c0 -7 -6 -13 -13 -13h-274c-7 0 -13 6 -13 13s6 13 13 13h274c7 0 13 -6 13 -13zM193 661c-56 0 -77 -24 -90 -38c-3 -3 -6 -4 -9 -4c-7 0 -13 6 -13 13c0 3 1 5 3 8c17 24 58 47 109 47c86 0 122 -49 122 -116v-194c0 -7 -6 -13 -13 -13s-13 6 -13 13v37
c-22 -36 -63 -53 -109 -53c-76 0 -120 37 -120 96c0 55 45 94 124 94h104v26c0 55 -32 84 -95 84zM180 387c57 0 108 30 108 88v51h-107c-55 0 -93 -22 -93 -69c0 -45 32 -70 92 -70z" />
    <glyph glyph-name="ordmasculine" unicode="&#xba;" horiz-adv-x="333" 
d="M166 687c88 0 140 -53 140 -163s-52 -163 -140 -163s-140 53 -140 163s52 163 140 163zM166 387c71 0 112 42 112 137c0 92 -41 137 -112 137s-112 -45 -112 -137c0 -95 41 -137 112 -137zM324 285c0 -7 -6 -13 -13 -13h-289c-7 0 -13 6 -13 13s6 13 13 13h289
c7 0 13 -6 13 -13z" />
    <glyph glyph-name="germandbls" unicode="&#xdf;" horiz-adv-x="508" 
d="M157 356c0 111 161 95 161 212c0 53 -39 91 -103 91c-90 0 -115 -58 -115 -138v-515c0 -8 -7 -15 -15 -15s-15 7 -15 15v515c0 86 31 164 145 164c74 0 133 -47 133 -117c0 -130 -161 -119 -161 -212c0 -133 286 -87 286 -245c0 -85 -72 -124 -165 -124
c-84 0 -146 36 -170 69c-3 4 -4 6 -4 10c0 8 7 13 13 13c3 0 6 -1 9 -4c34 -38 77 -62 152 -62c73 0 135 26 135 98c0 129 -286 87 -286 245z" />
    <glyph glyph-name="logicalnot" unicode="&#xac;" horiz-adv-x="563" 
d="M480 281h-415c-7 0 -13 6 -13 13s6 13 13 13h432c7 0 13 -6 13 -13v-231c0 -8 -7 -15 -15 -15s-15 7 -15 15v218z" />
    <glyph glyph-name="mu" unicode="&#xb5;" horiz-adv-x="486" 
d="M75 462c8 0 15 -7 15 -15v-282c0 -82 26 -152 153 -152s153 70 153 152v282c0 8 7 15 15 15s15 -7 15 -15v-282c0 -93 -32 -178 -183 -178c-81 0 -134 32 -153 72v-249c0 -8 -7 -15 -15 -15s-15 7 -15 15v637c0 8 7 15 15 15z" />
    <glyph glyph-name="trademark" unicode="&#x2122;" horiz-adv-x="399" 
d="M85 632h-54c-6 0 -10 4 -10 10s4 10 10 10h131c6 0 10 -4 10 -10s-4 -10 -10 -10h-55v-154c0 -6 -5 -11 -11 -11s-11 5 -11 11v154zM224 647l55 -112l55 112c2 4 5 8 11 8s11 -5 11 -11v-167c0 -6 -4 -10 -10 -10s-10 4 -10 10v132l-46 -93c-2 -4 -5 -8 -11 -8
s-9 4 -11 8l-46 93v-132c0 -6 -4 -10 -10 -10s-10 4 -10 10v167c0 6 5 11 11 11s9 -4 11 -8z" />
    <glyph glyph-name="Thorn" unicode="&#xde;" horiz-adv-x="542" 
d="M122 162v-154c0 -9 -7 -16 -16 -16s-16 7 -16 16v657c0 9 7 16 16 16s16 -7 16 -16v-127h195c102 0 182 -61 182 -188c0 -125 -78 -188 -182 -188h-195zM122 510v-320h184c99 0 161 55 161 160c0 107 -63 160 -161 160h-184z" />
    <glyph glyph-name="divide" unicode="&#xf7;" horiz-adv-x="454" 
d="M250 340c0 -12 -10 -23 -23 -23c-12 0 -23 11 -23 23c0 13 11 23 23 23c13 0 23 -10 23 -23zM250 96c0 -13 -10 -24 -23 -24c-12 0 -23 11 -23 24c0 12 11 23 23 23c13 0 23 -11 23 -23zM454 218c0 -7 -6 -13 -13 -13h-428c-7 0 -13 6 -13 13s6 13 13 13h428
c7 0 13 -6 13 -13z" />
    <glyph glyph-name="brokenbar" unicode="&#xa6;" horiz-adv-x="218" 
d="M124 793v-422c0 -8 -7 -15 -15 -15s-15 7 -15 15v422c0 8 7 15 15 15s15 -7 15 -15zM124 278v-423c0 -8 -7 -15 -15 -15s-15 7 -15 15v423c0 8 7 15 15 15s15 -7 15 -15z" />
    <glyph glyph-name="degree" unicode="&#xb0;" horiz-adv-x="356" 
d="M42 550c0 76 61 137 137 137s137 -61 137 -137s-61 -137 -137 -137s-137 61 -137 137zM68 549c0 -60 47 -110 110 -110s112 50 112 110s-49 112 -112 112s-110 -52 -110 -112z" />
    <glyph glyph-name="thorn" unicode="&#xfe;" horiz-adv-x="509" 
d="M85 712c8 0 15 -7 15 -15v-328c26 64 81 99 165 99c128 0 204 -76 204 -240s-76 -241 -204 -241c-131 0 -165 96 -165 96v-269c0 -8 -7 -15 -15 -15s-15 7 -15 15v883c0 8 7 15 15 15zM98 228c0 -154 71 -215 167 -215c113 0 174 65 174 215c0 148 -64 214 -177 214
c-101 0 -164 -65 -164 -214z" />
    <glyph glyph-name="registered" unicode="&#xae;" horiz-adv-x="377" 
d="M188 687c93 0 147 -48 147 -152s-54 -153 -147 -153c-91 0 -146 49 -146 153s55 152 146 152zM188 402c80 0 125 41 125 133c0 90 -45 132 -125 132c-79 0 -124 -42 -124 -132c0 -92 45 -133 124 -133zM208 518l34 -42c3 -3 4 -6 4 -9c0 -6 -5 -11 -11 -11
c-4 0 -7 2 -10 6l-41 56h-28v-51c0 -6 -5 -11 -11 -11s-11 5 -11 11v135c0 6 5 11 11 11h58c31 0 46 -23 46 -48s-17 -45 -41 -47zM156 538h42c18 0 28 11 28 27c0 18 -10 28 -28 28h-42v-55z" />
    <glyph glyph-name="minus" unicode="&#x2212;" horiz-adv-x="454" 
d="M454 218c0 -7 -6 -13 -13 -13h-428c-7 0 -13 6 -13 13s6 13 13 13h428c7 0 13 -6 13 -13z" />
    <glyph glyph-name="eth" unicode="&#xf0;" horiz-adv-x="488" 
d="M244 468c77 0 132 -30 166 -82c-20 81 -55 154 -103 205l-78 -50c-3 -2 -7 -2 -7 -2c-7 0 -12 5 -12 12c0 5 3 9 6 11l74 47c-30 32 -71 61 -109 81c-5 3 -7 7 -7 11c0 6 5 11 11 11c3 0 6 -1 8 -2c42 -22 85 -54 117 -87l62 40c3 2 6 2 7 2c6 0 12 -6 12 -12
c0 -4 -1 -7 -5 -10l-59 -38c78 -92 121 -195 121 -377c0 -164 -76 -241 -204 -241s-204 77 -204 241s76 240 204 240zM244 13c113 0 174 65 174 215c0 148 -61 214 -174 214s-174 -66 -174 -214c0 -150 61 -215 174 -215z" />
    <glyph glyph-name="multiply" unicode="&#xd7;" horiz-adv-x="340" 
d="M315 53l-145 145l-145 -145c-3 -3 -7 -4 -10 -4c-9 0 -15 6 -15 14c0 4 1 8 4 11l146 144l-146 144c-3 3 -4 7 -4 11c0 8 6 14 15 14c3 0 7 -1 10 -4l145 -145l145 145c3 3 7 4 10 4c9 0 15 -6 15 -14c0 -4 -1 -8 -4 -11l-146 -144l146 -144c3 -3 4 -7 4 -11
c0 -8 -6 -14 -15 -14c-3 0 -7 1 -10 4z" />
    <glyph glyph-name="copyright" unicode="&#xa9;" horiz-adv-x="812" 
d="M390 12c196 0 303 102 303 324c0 223 -107 325 -303 325s-303 -102 -303 -325c0 -222 107 -324 303 -324zM391 155c-102 0 -163 48 -163 181s61 184 163 184c63 0 109 -34 123 -60c2 -4 2 -6 2 -8c0 -7 -5 -12 -11 -12c-4 0 -8 1 -11 5c-23 31 -57 49 -103 49
c-84 0 -133 -35 -133 -158c0 -125 49 -154 133 -154c41 0 82 15 102 48c3 5 8 6 11 6c6 0 12 -5 12 -12c0 -4 -1 -7 -3 -10c-24 -34 -71 -59 -122 -59zM390 -14c-209 0 -333 114 -333 350c0 237 124 351 333 351s333 -114 333 -351c0 -236 -124 -350 -333 -350z" />
    <glyph glyph-name="notequal" unicode="&#x2260;" horiz-adv-x="454" 
d="M454 142c0 -7 -6 -13 -13 -13h-262l-40 -60c-2 -3 -5 -6 -11 -6s-11 5 -11 12c0 0 0 3 2 6l33 48h-139c-7 0 -13 6 -13 13s6 13 13 13h156l86 127h-242c-7 0 -13 6 -13 13s6 13 13 13h260l41 60c3 4 6 5 9 5c6 0 11 -5 11 -11c0 0 0 -3 -2 -6l-33 -48h142
c7 0 13 -6 13 -13s-6 -13 -13 -13h-159l-86 -127h245c7 0 13 -6 13 -13z" />
    <glyph glyph-name="radical" unicode="&#x221a;" horiz-adv-x="539" 
d="M478 692l-218 -853c-1 -5 -7 -10 -15 -10c-7 0 -13 4 -15 10l-169 413c-1 3 -1 5 -1 6c0 8 6 14 14 14c7 0 11 -3 13 -8l156 -390l208 827c2 7 7 11 14 11c8 0 14 -6 14 -14c0 -1 0 -3 -1 -6z" />
    <glyph glyph-name="nbspace" unicode="&#xa0;" horiz-adv-x="283" 
 />
    <glyph glyph-name="quotedbl" unicode="&#x22;" horiz-adv-x="295" 
d="M100 681c10 0 17 -5 17 -17l-8 -171c0 -5 -4 -8 -9 -8c-6 0 -10 3 -10 8l-7 171c0 12 6 17 17 17zM195 681c11 0 17 -5 17 -17l-7 -171c0 -5 -4 -8 -10 -8c-5 0 -9 3 -9 8l-8 171c0 12 7 17 17 17z" />
    <glyph glyph-name="exclam" unicode="!" horiz-adv-x="141" 
d="M70 -8c-14 0 -23 7 -23 23s9 24 23 24s23 -8 23 -24s-9 -23 -23 -23zM70 124c-5 0 -10 3 -10 9l-8 531c0 12 8 17 18 17s18 -5 18 -17l-8 -531c0 -6 -5 -9 -10 -9z" />
    <glyph glyph-name="dollar" unicode="$" horiz-adv-x="535" 
d="M453 570c-34 45 -83 90 -185 90c-126 0 -173 -63 -173 -134c0 -198 398 -115 398 -354c0 -114 -76 -179 -212 -185v-86c0 -8 -7 -15 -15 -15s-15 7 -15 15v85c-109 3 -178 56 -219 121c-2 3 -3 6 -3 9c0 8 7 15 15 15c6 0 10 -3 13 -8c38 -60 102 -109 203 -109
c130 0 201 51 201 158c0 217 -398 123 -398 354c0 82 57 154 188 160v87c0 8 7 15 15 15s15 -7 15 -15v-87c86 -3 151 -38 196 -98c2 -3 3 -6 3 -9c0 -8 -7 -15 -15 -15c-6 0 -9 2 -12 6z" />
    <glyph glyph-name="hungarumlaut" unicode="&#x2dd;" horiz-adv-x="489" 
d="M251 657c7 -6 8 -15 1 -22l-104 -112c-6 -7 -12 -5 -16 -1c-5 5 -7 10 -2 16l99 118c6 7 14 8 22 1zM355 657c7 -6 8 -15 1 -22l-104 -112c-6 -7 -12 -5 -16 -1c-5 5 -7 10 -2 16l99 118c6 7 14 8 22 1z" />
    <glyph glyph-name="zero.tab" horiz-adv-x="592" 
d="M296 687c169 0 242 -103 242 -350s-73 -351 -242 -351s-242 104 -242 351s73 350 242 350zM296 13c149 0 211 98 211 324s-62 324 -211 324s-211 -98 -211 -324s62 -324 211 -324z" />
    <glyph glyph-name="one.tab" horiz-adv-x="592" 
d="M342 639l-206 -152c-3 -2 -6 -3 -9 -3c-7 0 -14 6 -14 14c0 5 2 9 6 12l228 167c4 3 7 4 11 4c9 0 15 -6 15 -15v-659c0 -8 -7 -15 -16 -15s-15 7 -15 15v632z" />
    <glyph glyph-name="two.tab" horiz-adv-x="592" 
d="M102 559c26 79 92 128 196 128c133 0 206 -77 206 -192c0 -246 -396 -285 -396 -467h393c8 0 14 -6 14 -14s-6 -14 -14 -14h-411c-8 0 -14 6 -14 14c0 230 396 247 396 481c0 94 -58 164 -174 164c-103 0 -148 -49 -170 -112c-2 -5 -7 -8 -13 -8c-8 0 -14 6 -14 14
c0 1 0 3 1 6z" />
    <glyph glyph-name="three.tab" horiz-adv-x="592" 
d="M261 397h49c157 0 204 -97 204 -205c0 -128 -77 -206 -224 -206c-110 0 -177 42 -210 109c-2 4 -3 7 -3 10c0 8 6 14 14 14c5 0 10 -2 13 -8c32 -64 92 -96 186 -96c128 0 192 66 192 177c0 106 -44 177 -178 177h-73c-8 0 -14 6 -14 14c0 4 2 8 5 11l219 251h-311
c-8 0 -14 6 -14 14s6 14 14 14h342c8 0 14 -6 14 -14c0 -2 0 -5 -3 -9z" />
    <glyph glyph-name="four.tab" horiz-adv-x="592" 
d="M435 192h81c8 0 14 -6 14 -14s-6 -14 -14 -14h-81v-157c0 -8 -6 -15 -15 -15c-10 0 -16 7 -16 15v157h-329c-8 0 -14 6 -14 14c0 3 1 6 3 9l341 485c4 6 8 9 14 9c9 0 16 -7 16 -16v-473zM102 192h302v429z" />
    <glyph glyph-name="five.tab" horiz-adv-x="592" 
d="M298 434c133 0 225 -71 225 -223c0 -156 -92 -225 -225 -225c-109 0 -188 44 -228 135c-1 2 -1 4 -1 5c0 8 6 14 14 14c4 0 10 -2 13 -8c36 -79 105 -118 202 -118c114 0 193 55 193 197c0 138 -79 195 -193 195c-84 0 -135 -26 -186 -81c-3 -3 -6 -6 -12 -6
c-8 0 -14 6 -14 14c0 1 0 3 1 7l62 322c1 6 6 11 13 11h322c8 0 14 -6 14 -14s-6 -14 -14 -14h-310l-57 -282c33 37 92 71 181 71z" />
    <glyph glyph-name="six.tab" horiz-adv-x="592" 
d="M297 423c133 0 228 -69 228 -218c0 -155 -95 -219 -228 -219c-180 0 -230 139 -230 334c0 260 88 367 246 367c77 0 133 -28 157 -52c3 -3 5 -7 5 -11c0 -7 -6 -13 -13 -13c-3 0 -6 1 -10 4c-38 31 -80 44 -139 44c-153 0 -215 -121 -215 -308v-58c30 71 94 130 199 130z
M297 15c114 0 196 46 196 190c0 137 -82 190 -196 190c-103 0 -160 -59 -194 -151c7 -147 71 -229 194 -229z" />
    <glyph glyph-name="seven.tab" horiz-adv-x="592" 
d="M182 5c0 372 293 442 293 640h-377c-8 0 -14 6 -14 14s6 14 14 14h396c7 0 13 -6 13 -13c0 -235 -295 -285 -295 -655c0 -7 -7 -13 -14 -13s-16 6 -16 13z" />
    <glyph glyph-name="eight.tab" horiz-adv-x="592" 
d="M296 -14c-136 0 -228 64 -228 194c0 105 60 168 149 188c-70 15 -117 68 -117 154c0 113 80 165 196 165c117 0 196 -52 196 -165c0 -86 -47 -139 -117 -154c89 -20 149 -83 149 -188c0 -130 -92 -194 -228 -194zM296 660c-103 0 -167 -42 -167 -138
c0 -97 66 -143 167 -143s167 46 167 143c0 96 -63 138 -167 138zM296 352c-116 0 -196 -52 -196 -172c0 -119 86 -166 196 -166c111 0 196 47 196 166c0 120 -81 172 -196 172z" />
    <glyph glyph-name="nine.tab" horiz-adv-x="592" 
d="M295 250c-133 0 -228 69 -228 218c0 155 95 219 228 219c180 0 230 -139 230 -334c0 -260 -88 -367 -246 -367c-77 0 -133 28 -157 52c-3 3 -5 7 -5 11c0 7 6 13 13 13c3 0 6 -1 10 -4c38 -31 80 -44 139 -44c153 0 215 121 215 308v58c-30 -71 -94 -130 -199 -130z
M295 658c-114 0 -196 -46 -196 -190c0 -137 82 -190 196 -190c103 0 160 59 194 151c-7 147 -71 229 -194 229z" />
    <glyph glyph-name="periodcentered" unicode="&#xb7;" horiz-adv-x="164" 
d="M81 271c-18 0 -29 9 -29 29c0 21 11 31 29 31c19 0 30 -10 30 -31c0 -20 -11 -29 -30 -29z" />
    <glyph glyph-name="onesuperior" unicode="&#xb9;" horiz-adv-x="174" 
d="M97 693l-57 -39c-3 -2 -5 -3 -9 -3c-6 0 -11 5 -11 11c0 3 1 8 6 11l73 50c3 2 6 4 10 4c7 0 12 -5 12 -12v-281c0 -7 -5 -12 -12 -12s-12 5 -12 12v259z" />
    <glyph glyph-name="twosuperior" unicode="&#xb2;" horiz-adv-x="259" 
d="M36 670c13 36 48 60 92 60c67 0 105 -36 105 -88c0 -112 -183 -116 -183 -195h170c6 0 11 -5 11 -11s-5 -11 -11 -11h-185c-6 0 -11 5 -11 11c0 116 183 102 183 206c0 36 -22 66 -79 66c-40 0 -59 -19 -72 -48c-2 -5 -6 -7 -10 -7c-6 0 -11 5 -11 11c0 0 0 3 1 6z" />
    <glyph glyph-name="threesuperior" unicode="&#xb3;" horiz-adv-x="257" 
d="M127 607h11c70 0 95 -47 95 -94c0 -56 -34 -94 -110 -94c-49 0 -82 20 -97 50c-2 4 -3 7 -3 9c0 6 4 10 10 10c5 0 7 -2 9 -5c17 -29 40 -42 81 -42c58 0 84 22 84 72c0 46 -19 72 -81 72h-32c-4 0 -6 5 -6 8c0 2 1 4 2 5l95 104h-136c-6 0 -11 5 -11 11s5 11 11 11h159
c6 0 11 -5 11 -11c0 -4 -2 -7 -4 -9z" />
    <glyph glyph-name="onehalf" unicode="&#xbd;" horiz-adv-x="510" 
d="M358 681c6 0 11 -5 11 -11c0 -3 -1 -6 -2 -8l-257 -663c-1 -3 -4 -7 -10 -7s-11 5 -11 11c0 3 1 5 2 8l256 662c2 6 6 8 11 8zM115 650l-57 -39c-3 -2 -5 -3 -9 -3c-6 0 -11 5 -11 11c0 3 1 8 6 11l73 50c3 2 6 4 10 4c7 0 12 -5 12 -12v-281c0 -7 -5 -12 -12 -12
s-12 5 -12 12v259zM287 245c13 36 48 60 92 60c67 0 105 -36 105 -88c0 -112 -183 -116 -183 -195h170c6 0 11 -5 11 -11s-5 -11 -11 -11h-185c-6 0 -11 5 -11 11c0 116 183 102 183 206c0 36 -22 66 -79 66c-40 0 -59 -19 -72 -48c-2 -5 -6 -7 -10 -7c-6 0 -11 5 -11 11
c0 0 0 3 1 6z" />
    <glyph glyph-name="threequarters" unicode="&#xbe;" horiz-adv-x="523" 
d="M412 681c6 0 11 -5 11 -11c0 -3 -1 -6 -2 -8l-257 -663c-1 -3 -4 -7 -10 -7s-11 5 -11 11c0 3 1 5 2 8l256 662c2 6 6 8 11 8zM442 90h31c6 0 11 -5 11 -11s-5 -11 -11 -11h-31v-64c0 -7 -5 -12 -12 -12s-12 5 -12 12v64h-139c-6 0 -11 5 -11 11c0 1 1 6 2 7l149 204
c2 3 5 7 11 7c7 0 12 -5 12 -12v-195zM300 90h118v162zM126 564h12c70 0 95 -47 95 -94c0 -56 -34 -94 -110 -94c-49 0 -82 20 -97 50c-2 4 -3 7 -3 9c0 6 4 10 10 10c5 0 7 -2 9 -5c17 -29 40 -42 81 -42c58 0 84 22 84 72c0 46 -19 72 -81 72h-21c-6 0 -11 5 -11 11
c0 3 1 6 4 9l87 97h-136c-6 0 -11 5 -11 11s5 11 11 11h159c6 0 11 -5 11 -11c0 -4 -2 -7 -4 -9z" />
    <glyph glyph-name="ornament.A" horiz-adv-x="732" 
d="M578 687c67 0 121 -49 121 -116c0 -82 -69 -125 -154 -125c-19 0 -42 1 -68 6c-13 -20 -37 -39 -56 -47c78 0 137 -45 137 -115c0 -189 -282 -74 -282 -200c0 -29 20 -46 49 -46c55 0 25 66 80 66c34 0 44 -20 44 -45c0 -59 -71 -73 -119 -73c-179 0 -253 183 -253 301
c0 96 52 195 166 195c43 0 81 -19 104 -44c-97 -63 -156 -119 -156 -240c0 -13 0 -27 2 -40c1 -9 5 -16 12 -16c8 0 9 6 9 17s-1 26 -1 39c0 99 55 156 138 207c29 18 51 35 67 55c-59 15 -114 54 -152 81c-43 30 -90 88 -137 88c-24 0 -40 -17 -40 -41s18 -39 40 -39
c17 0 25 12 33 20c5 4 10 6 17 6c14 0 26 -12 26 -26c0 -32 -49 -52 -80 -52c-50 0 -92 41 -92 91c0 51 42 93 92 93c51 0 89 -30 122 -58c22 31 60 58 113 58c77 0 142 -64 142 -142c0 -19 -4 -34 -7 -43c22 -4 35 -4 50 -4c43 0 98 17 98 73c0 33 -26 64 -65 64
c-23 0 -28 -12 -44 -12c-15 0 -26 12 -26 26c0 8 4 17 11 22c16 12 34 16 59 16zM440 510c3 8 6 21 6 35c0 42 -31 90 -86 90c-31 0 -56 -14 -71 -42c39 -31 96 -65 151 -83z" />
    <glyph glyph-name="zero.onum" horiz-adv-x="613" 
d="M305 552c153 0 249 -89 249 -282c0 -192 -96 -283 -249 -283c-151 0 -246 91 -246 283c0 193 95 282 246 282zM305 13c136 0 219 80 219 257c0 175 -83 256 -219 256c-133 0 -216 -81 -216 -256c0 -177 83 -257 216 -257z" />
    <glyph glyph-name="one.onum" horiz-adv-x="365" 
d="M64 423l169 118c4 3 7 5 12 5c8 0 15 -7 15 -15v-524c0 -8 -7 -15 -15 -15s-15 7 -15 15v501l-151 -106c-3 -2 -5 -3 -8 -3c-7 0 -13 6 -13 13c0 4 2 8 6 11z" />
    <glyph glyph-name="two.onum" horiz-adv-x="504" 
d="M70 429c24 75 82 123 190 123c133 0 197 -68 197 -158c0 -206 -377 -198 -377 -368h377c7 0 13 -6 13 -13s-6 -13 -13 -13h-395c-8 0 -13 5 -13 13c0 217 378 188 378 381c0 75 -56 132 -167 132c-103 0 -143 -45 -164 -107c-2 -6 -7 -9 -13 -9c-7 0 -14 6 -14 14
c0 1 0 2 1 5z" />
    <glyph glyph-name="three.onum" horiz-adv-x="530" 
d="M224 259h51c157 0 204 -102 204 -210c0 -126 -77 -198 -224 -198c-111 0 -177 43 -210 110c-2 4 -3 6 -3 9c0 7 6 13 13 13c4 0 9 -2 12 -8c32 -64 94 -98 188 -98c130 0 194 61 194 172c0 106 -44 185 -180 185h-72c-7 0 -13 6 -13 13c0 4 2 8 5 11l221 254h-316
c-7 0 -13 6 -13 13s6 13 13 13h344c7 0 13 -6 13 -13c0 -2 0 -4 -3 -8z" />
    <glyph glyph-name="four.onum" horiz-adv-x="529" 
d="M399 55h82c7 0 13 -6 13 -13s-6 -13 -13 -13h-82v-157c0 -8 -7 -15 -15 -15s-15 7 -15 15v157h-331c-7 0 -13 6 -13 13c0 2 0 4 2 7l345 490c3 4 7 7 13 7c8 0 14 -7 14 -15v-476zM64 55h305v433z" />
    <glyph glyph-name="five.onum" horiz-adv-x="558" 
d="M278 299c133 0 225 -71 225 -223c0 -156 -92 -225 -225 -225c-109 0 -189 45 -229 136c-1 2 -1 4 -1 5c0 7 6 13 13 13c4 0 9 -2 12 -8c36 -79 103 -120 205 -120c116 0 195 55 195 199c0 140 -79 197 -195 197c-88 0 -135 -28 -186 -83c-3 -3 -6 -6 -13 -6s-12 6 -12 13
c0 1 0 3 1 7l61 323c1 6 6 11 13 11h323c7 0 13 -6 13 -13s-6 -13 -13 -13h-312l-57 -286c31 37 91 73 182 73z" />
    <glyph glyph-name="six.onum" horiz-adv-x="566" 
d="M284 417c133 0 228 -66 228 -215c0 -155 -95 -216 -228 -216c-180 0 -230 136 -230 328c0 260 88 367 246 367c77 0 133 -28 157 -52c3 -3 5 -7 5 -11c0 -7 -6 -12 -12 -12c-3 0 -6 1 -10 4c-38 31 -81 45 -140 45c-153 0 -216 -123 -216 -310v-58c30 71 94 130 200 130z
M284 13c114 0 198 45 198 189c0 137 -84 189 -198 189c-95 0 -166 -57 -196 -153c0 -142 73 -225 196 -225z" />
    <glyph glyph-name="seven.onum" horiz-adv-x="483" 
d="M128 -130c0 372 295 444 295 642h-380c-7 0 -13 6 -13 13s6 13 13 13h397c7 0 13 -6 13 -13c0 -235 -297 -285 -297 -655c0 -7 -7 -13 -14 -13s-14 6 -14 13z" />
    <glyph glyph-name="eight.onum" horiz-adv-x="550" 
d="M275 -14c-136 0 -228 62 -228 192c0 105 60 166 149 186c-70 15 -117 66 -117 152c0 113 80 164 196 164c117 0 196 -51 196 -164c0 -86 -47 -137 -117 -152c89 -20 149 -81 149 -186c0 -130 -92 -192 -228 -192zM275 655c-103 0 -168 -43 -168 -139
c0 -97 67 -141 168 -141s168 44 168 141c0 96 -64 139 -168 139zM275 348c-118 0 -198 -50 -198 -170c0 -119 86 -166 198 -166c113 0 198 47 198 166c0 120 -81 170 -198 170z" />
    <glyph glyph-name="nine.onum" horiz-adv-x="566" 
d="M282 121c-133 0 -228 66 -228 215c0 155 95 216 228 216c180 0 230 -136 230 -328c0 -260 -88 -367 -246 -367c-77 0 -133 28 -157 52c-3 3 -5 7 -5 11c0 7 6 12 12 12c3 0 6 -1 10 -4c38 -31 81 -45 140 -45c153 0 216 123 216 310v58c-30 -71 -94 -130 -200 -130z
M282 525c-114 0 -198 -45 -198 -189c0 -137 84 -189 198 -189c95 0 166 57 196 153c0 142 -73 225 -196 225z" />
    <glyph glyph-name="aacute" unicode="&#xe1;" horiz-adv-x="463" 
d="M228 442c-81 0 -113 -36 -137 -73c-3 -5 -8 -7 -12 -7c-8 0 -14 6 -14 14c0 3 1 6 3 9c26 42 76 83 160 83c123 0 175 -66 175 -165v-296c0 -8 -6 -14 -14 -14s-14 6 -14 14v59c-33 -53 -98 -78 -165 -78c-112 0 -174 50 -174 138s71 139 185 139h154v46
c0 85 -55 131 -147 131zM210 14c87 0 165 47 165 141v85h-154c-90 0 -154 -37 -154 -114c0 -69 46 -112 143 -112zM303 657c7 -6 8 -15 1 -22l-104 -112c-6 -7 -12 -5 -16 -1c-5 5 -7 10 -2 16l99 118c6 7 14 8 22 1z" />
    <glyph glyph-name="hyphen.case" horiz-adv-x="282" 
d="M245 337c0 -7 -6 -13 -13 -13h-183c-7 0 -13 6 -13 13s6 13 13 13h183c7 0 13 -6 13 -13z" />
    <glyph glyph-name="parenleft.case" horiz-adv-x="304" 
d="M79 337c0 157 6 374 167 441c2 1 5 1 5 1c8 0 14 -6 14 -14c0 -5 -3 -10 -8 -12c-146 -56 -148 -284 -148 -416s2 -360 148 -416c5 -2 8 -7 8 -12c0 -8 -6 -14 -14 -14c0 0 -3 0 -5 1c-161 67 -167 284 -167 441z" />
    <glyph glyph-name="parenright.case" horiz-adv-x="304" 
d="M225 337c0 -157 -6 -374 -167 -441c-2 -1 -5 -1 -5 -1c-8 0 -14 6 -14 14c0 5 3 10 8 12c146 56 148 284 148 416s-2 360 -148 416c-5 2 -8 7 -8 12c0 8 6 14 14 14c0 0 3 0 5 -1c161 -67 167 -284 167 -441z" />
    <glyph glyph-name="bracketleft.case" horiz-adv-x="233" 
d="M191 -92c0 -7 -6 -13 -13 -13h-92c-7 0 -13 6 -13 13v858c0 7 6 13 13 13h92c7 0 13 -6 13 -13s-6 -13 -13 -13h-75v-832h75c7 0 13 -6 13 -13z" />
    <glyph glyph-name="bracketright.case" horiz-adv-x="233" 
d="M42 -92c0 7 6 13 13 13h75v832h-75c-7 0 -13 6 -13 13s6 13 13 13h92c7 0 13 -6 13 -13v-858c0 -7 -6 -13 -13 -13h-92c-7 0 -13 6 -13 13z" />
    <glyph glyph-name="braceleft.case" horiz-adv-x="294" 
d="M231 -79c7 0 13 -6 13 -13s-6 -13 -13 -13c-53 0 -91 32 -91 84c0 83 13 158 13 237c0 78 -43 109 -104 109h-10c-7 0 -12 5 -12 12s5 12 12 12h10c61 0 104 31 104 109c0 80 -13 154 -13 237c0 53 38 84 91 84c7 0 13 -6 13 -13s-6 -13 -13 -13c-36 0 -59 -19 -59 -58
c0 -78 6 -161 6 -238c0 -70 -37 -120 -99 -120c62 0 99 -50 99 -120c0 -77 -6 -160 -6 -238c0 -39 23 -58 59 -58z" />
    <glyph glyph-name="braceright.case" horiz-adv-x="294" 
d="M63 -79c36 0 59 19 59 58c0 78 -6 161 -6 238c0 70 37 120 99 120c-62 0 -99 50 -99 120c0 77 6 160 6 238c0 39 -23 58 -59 58c-7 0 -13 6 -13 13s6 13 13 13c53 0 91 -31 91 -84c0 -83 -13 -157 -13 -237c0 -78 43 -109 104 -109h10c7 0 12 -5 12 -12s-5 -12 -12 -12
h-10c-61 0 -104 -31 -104 -109c0 -79 13 -154 13 -237c0 -52 -38 -84 -91 -84c-7 0 -13 6 -13 13s6 13 13 13z" />
    <glyph glyph-name="guillemotleft.case" horiz-adv-x="464" 
d="M91 337l169 -195c2 -2 3 -6 3 -9c0 -8 -6 -14 -14 -14c-4 0 -7 1 -10 4l-176 207c-1 1 -3 3 -3 7s2 6 3 7l176 207c3 3 6 4 10 4c8 0 14 -6 14 -14c0 -3 -1 -7 -3 -9zM231 337l169 -195c2 -2 3 -6 3 -9c0 -8 -6 -14 -14 -14c-4 0 -7 1 -10 4l-176 207c-1 1 -3 3 -3 7
s2 6 3 7l176 207c3 3 6 4 10 4c8 0 14 -6 14 -14c0 -3 -1 -7 -3 -9z" />
    <glyph glyph-name="guillemotright.case" horiz-adv-x="463" 
d="M203 142l169 195l-169 195c-2 2 -3 6 -3 9c0 8 6 14 14 14c4 0 7 -1 10 -4l176 -207c1 -1 3 -3 3 -7s-2 -6 -3 -7l-176 -207c-3 -3 -6 -4 -10 -4c-8 0 -14 6 -14 14c0 3 1 7 3 9zM63 142l169 195l-169 195c-2 2 -3 6 -3 9c0 8 6 14 14 14c4 0 7 -1 10 -4l176 -207
c1 -1 3 -3 3 -7s-2 -6 -3 -7l-176 -207c-3 -3 -6 -4 -10 -4c-8 0 -14 6 -14 14c0 3 1 7 3 9z" />
    <glyph glyph-name="guilsinglleft.case" horiz-adv-x="324" 
d="M91 337l169 -195c2 -2 3 -6 3 -9c0 -8 -6 -14 -14 -14c-4 0 -7 1 -10 4l-176 207c-1 1 -3 3 -3 7s2 6 3 7l176 207c3 3 6 4 10 4c8 0 14 -6 14 -14c0 -3 -1 -7 -3 -9z" />
    <glyph glyph-name="guilsinglright.case" horiz-adv-x="323" 
d="M63 142l169 195l-169 195c-2 2 -3 6 -3 9c0 8 6 14 14 14c4 0 7 -1 10 -4l176 -207c1 -1 3 -3 3 -7s-2 -6 -3 -7l-176 -207c-3 -3 -6 -4 -10 -4c-8 0 -14 6 -14 14c0 3 1 7 3 9z" />
    <glyph glyph-name="endash.case" horiz-adv-x="584" 
d="M481 337c0 -7 -6 -13 -13 -13h-352c-7 0 -13 6 -13 13s6 13 13 13h352c7 0 13 -6 13 -13z" />
    <glyph glyph-name="emdash.case" horiz-adv-x="918" 
d="M815 337c0 -7 -6 -13 -13 -13h-686c-7 0 -13 6 -13 13s6 13 13 13h686c7 0 13 -6 13 -13z" />
    <glyph glyph-name="periodcentered.case" horiz-adv-x="164" 
d="M81 307c-18 0 -29 9 -29 29c0 21 11 31 29 31c19 0 30 -10 30 -31c0 -20 -11 -29 -30 -29z" />
    <glyph glyph-name="questiondown.case" horiz-adv-x="461" 
d="M265 545c21 -21 29 -51 29 -76c0 -144 -222 -124 -222 -311c0 -92 61 -146 163 -146c106 0 155 53 155 152c0 8 7 15 15 15s15 -7 15 -15c0 -105 -59 -178 -185 -178c-120 0 -193 68 -193 172c0 204 222 185 222 311c0 25 -8 41 -21 57c-4 5 -4 7 -4 10c0 9 8 14 14 14
c5 0 9 -2 12 -5zM259 681c14 0 23 -7 23 -23s-9 -24 -23 -24s-23 8 -23 24s9 23 23 23z" />
    <glyph glyph-name="exclamdown.case" horiz-adv-x="141" 
d="M70 681c14 0 23 -7 23 -23s-9 -24 -23 -24s-23 8 -23 24s9 23 23 23zM70 549c5 0 10 -3 10 -9l8 -531c0 -12 -8 -17 -18 -17s-18 5 -18 17l8 531c0 6 5 9 10 9z" />
    <glyph glyph-name="bullet.case" horiz-adv-x="418" 
d="M209 207c-83 0 -130 42 -130 130c0 94 47 136 130 136s130 -42 130 -136c0 -88 -47 -130 -130 -130z" />
    <glyph glyph-name="dollar.onum" horiz-adv-x="465" 
d="M389 483c-31 43 -74 76 -157 76c-107 0 -147 -51 -147 -111c0 -169 340 -97 340 -303c0 -96 -65 -152 -179 -158v-87c0 -8 -6 -14 -14 -14s-14 6 -14 14v86c-93 3 -152 49 -187 103c-2 3 -3 6 -3 9c0 8 6 14 13 14c6 0 9 -2 13 -8c34 -51 85 -92 171 -92
c111 0 170 42 170 133c0 183 -340 105 -340 303c0 70 50 131 163 136v73c0 8 6 14 14 14s14 -6 14 -14v-73c74 -3 130 -34 164 -85c2 -3 3 -6 3 -9c0 -7 -6 -13 -14 -13c-5 0 -8 3 -10 6z" />
    <glyph glyph-name="cent.onum" horiz-adv-x="502" 
d="M47 270c0 193 92 275 220 282v72c0 8 6 14 14 14s14 -6 14 -14v-72c106 -4 159 -63 167 -74c3 -4 4 -6 4 -10c0 -7 -6 -13 -13 -13c-4 0 -7 2 -10 5c-27 31 -72 66 -157 66c-134 0 -209 -82 -209 -256c0 -176 75 -257 209 -257c85 0 136 38 156 63c4 5 8 6 11 6
c7 0 13 -5 13 -12c0 -3 -1 -6 -4 -10c-9 -12 -61 -67 -167 -73v-87c0 -8 -6 -14 -14 -14s-14 6 -14 14v87c-133 7 -220 88 -220 283z" />
    <glyph glyph-name="sterling.onum" horiz-adv-x="501" 
d="M465 66c7 0 13 -6 13 -13c0 -3 -1 -5 -2 -7c-21 -43 -59 -62 -116 -62c-67 0 -112 38 -177 38c-61 0 -97 -23 -106 -29c-3 -2 -7 -4 -11 -4c-8 0 -12 6 -12 12c0 4 2 8 7 11c46 33 84 87 84 146c0 46 -9 74 -29 111h-57c-7 0 -13 6 -13 13s6 13 13 13h44
c-23 39 -44 82 -44 132c0 81 68 159 187 159c105 0 170 -47 192 -114c1 -3 2 -8 2 -9c0 -7 -6 -13 -13 -13c-6 0 -10 3 -12 8c-20 56 -67 102 -169 102c-93 0 -157 -59 -157 -133c0 -53 20 -87 47 -132h152c7 0 13 -6 13 -13s-6 -13 -13 -13h-140c15 -32 25 -63 25 -110
c0 -41 -24 -94 -55 -123c21 9 39 12 64 12c78 0 120 -38 178 -38c46 0 72 14 94 50c3 4 7 6 11 6z" />
    <glyph glyph-name="yen.onum" horiz-adv-x="482" 
d="M51 572l191 -239l189 239c3 4 6 6 12 6c8 0 15 -7 15 -15c0 -4 -1 -6 -3 -9l-188 -231h130c7 0 13 -6 13 -13s-6 -13 -13 -13h-141v-52h141c7 0 13 -6 13 -13s-6 -13 -13 -13h-141v-212c0 -8 -7 -15 -15 -15s-15 7 -15 15v212h-141c-7 0 -13 6 -13 13s6 13 13 13h141v52
h-141c-7 0 -13 6 -13 13s6 13 13 13h130l-188 231c-2 3 -3 5 -3 9c0 8 7 15 15 15c6 0 9 -2 12 -6z" />
    <glyph glyph-name="florin.onum" horiz-adv-x="410" 
d="M389 657c0 -10 -7 -14 -13 -14c-2 0 -5 1 -8 2c-8 3 -25 9 -54 9c-61 0 -91 -40 -111 -138l-24 -118h103c7 0 13 -6 13 -13s-6 -13 -13 -13h-107l-78 -405c-21 -110 -47 -168 -162 -168c-21 0 -42 6 -51 10c-3 1 -8 5 -8 12s5 12 12 12c4 0 6 -1 9 -2c9 -3 21 -6 42 -6
c76 0 108 37 127 138l79 409h-71c-7 0 -13 6 -13 13s6 13 13 13h75l23 114c25 118 59 168 148 168c22 0 49 -6 59 -11c7 -3 10 -7 10 -12z" />
    <glyph glyph-name="Euro.onum" horiz-adv-x="550" 
d="M257 219h-163c17 -115 81 -206 225 -206c90 0 131 41 157 73c4 5 7 7 12 7c7 0 13 -5 13 -13c0 -3 -1 -7 -4 -11c-50 -60 -111 -82 -178 -82c-154 0 -236 92 -255 232h-33c-7 0 -13 6 -13 13c0 8 6 13 13 13h30c-1 13 -1 27 -1 42c0 22 2 42 2 42h-31c-7 0 -13 6 -13 13
c0 8 6 13 13 13h34c21 126 101 230 254 230c95 0 154 -43 178 -75c3 -4 4 -6 4 -10c0 -7 -6 -13 -13 -13c-5 0 -8 2 -12 7c-21 25 -67 65 -157 65c-126 0 -203 -85 -223 -204h161c7 0 13 -6 13 -13s-6 -13 -13 -13h-165s-2 -15 -2 -42c0 -14 0 -29 1 -42h166
c7 0 13 -6 13 -13s-6 -13 -13 -13z" />
    <glyph glyph-name="ampersand.salt1" horiz-adv-x="555" 
d="M515 211c0 -62 -28 -122 -80 -165c8 -22 14 -50 14 -79c0 -76 -51 -147 -134 -147c-23 0 -46 6 -64 18c-3 2 -6 6 -6 11c0 7 6 13 13 13c4 0 7 -2 9 -3c13 -8 32 -13 47 -13c68 0 107 57 107 121c0 22 -3 45 -10 63c-36 -25 -89 -44 -155 -44c-118 0 -216 64 -216 185
c0 90 56 147 131 192c-26 48 -56 105 -56 185c0 78 50 139 132 139c70 0 124 -43 124 -123c0 -85 -63 -148 -163 -209c59 -100 163 -172 217 -281c49 39 63 94 63 137c0 62 -33 106 -91 141c-5 3 -9 6 -9 13s6 12 12 12c2 0 5 0 10 -3c63 -36 105 -92 105 -163zM145 548
c0 -70 24 -125 50 -171c88 54 146 114 146 187c0 67 -42 98 -94 98c-62 0 -102 -43 -102 -114zM256 12c69 0 116 21 147 45c-52 114 -146 173 -219 284c-68 -41 -114 -91 -114 -170c0 -110 87 -159 186 -159z" />
    <glyph glyph-name="plusminus" unicode="&#xb1;" horiz-adv-x="454" 
d="M454 306c0 -7 -6 -13 -13 -13h-199v-198c0 -8 -7 -15 -15 -15s-15 7 -15 15v198h-199c-7 0 -13 6 -13 13s6 13 13 13h199v199c0 8 7 15 15 15s15 -7 15 -15v-199h199c7 0 13 -6 13 -13zM454 13c0 -7 -6 -13 -13 -13h-428c-7 0 -13 6 -13 13s6 13 13 13h428
c7 0 13 -6 13 -13z" />
    <glyph glyph-name="lessequal" unicode="&#x2264;" horiz-adv-x="344" 
d="M336 13c0 -7 -6 -13 -13 -13h-302c-7 0 -13 6 -13 13s6 13 13 13h302c7 0 13 -6 13 -13zM45 287l286 -173c4 -3 5 -8 5 -11c0 -8 -6 -14 -14 -14c-4 0 -6 1 -9 3l-298 182c-5 3 -7 7 -7 13c0 7 3 10 7 13l298 182c4 2 5 3 9 3c8 0 14 -6 14 -14c0 -3 -1 -8 -5 -11z" />
    <glyph glyph-name="greaterequal" unicode="&#x2265;" horiz-adv-x="344" 
d="M8 13c0 7 6 13 13 13h302c7 0 13 -6 13 -13s-6 -13 -13 -13h-302c-7 0 -13 6 -13 13zM13 114l286 173l-286 173c-4 3 -5 8 -5 11c0 8 6 14 14 14c4 0 6 -1 9 -3l298 -182c4 -3 7 -6 7 -13c0 -6 -2 -10 -7 -13l-298 -182c-3 -2 -5 -3 -9 -3c-8 0 -14 6 -14 14
c0 3 1 8 5 11z" />
    <glyph glyph-name="s_t" unicode="&#xfb06;" horiz-adv-x="655" 
d="M345 408c3 -4 4 -6 4 -10c0 -7 -6 -13 -13 -13c-2 0 -5 0 -9 4c-35 35 -73 53 -131 53c-59 0 -117 -21 -117 -86c0 -133 286 -87 286 -245c0 -85 -72 -124 -165 -124c-84 0 -146 36 -170 69c-3 4 -4 6 -4 10c0 8 7 13 13 13c3 0 6 -1 9 -4c34 -38 77 -62 152 -62
c73 0 135 26 135 98c0 129 -286 87 -286 245c0 77 65 112 147 112c30 0 59 -6 82 -15c-24 23 -54 67 -54 117c0 59 37 117 136 117c101 0 155 -56 155 -180v-53h90c7 0 13 -6 13 -13s-6 -13 -13 -13h-90v-318c0 -60 34 -92 83 -92c7 0 13 -6 13 -13s-6 -13 -13 -13
c-73 0 -113 50 -113 118v318h-62c-7 0 -13 6 -13 13s6 13 13 13h62v52c0 94 -32 155 -127 155c-81 0 -113 -44 -113 -91c0 -74 56 -117 100 -162z" />
    <glyph glyph-name="ornament.B" horiz-adv-x="732" 
d="M591 681c52 0 93 -41 93 -92c0 -90 -109 -123 -185 -123c-8 0 -19 1 -19 1s2 -19 2 -45c0 -157 -125 -283 -214 -321c-4 -2 -6 -6 -6 -11s5 -10 11 -10c3 0 6 1 9 2c100 42 182 132 219 248c54 0 102 -38 102 -115c0 -119 -110 -223 -294 -223c-141 0 -261 72 -261 211
c0 45 20 71 59 71c31 0 43 -18 43 -45c0 -36 -36 -39 -36 -67c0 -24 24 -47 49 -47c28 0 52 25 52 54c0 42 -36 100 -36 163c0 68 51 110 111 110c51 0 98 -23 129 -78c4 11 8 33 8 68c0 24 -2 41 -2 41c-81 15 -194 74 -229 158c-41 -3 -72 -28 -72 -65
c0 -31 21 -48 53 -48c16 0 28 -12 28 -28c0 -15 -12 -28 -28 -28c-55 0 -109 36 -109 104c0 80 74 121 153 121c102 0 208 -68 249 -167c7 -1 17 -2 29 -2c79 0 129 35 129 71c0 20 -16 36 -37 36c-20 0 -36 -16 -36 -36c0 -15 -13 -27 -27 -27c-15 0 -27 12 -27 27
c0 50 37 92 90 92zM252 634c41 -60 88 -82 153 -103c-28 45 -85 95 -153 103z" />
    <glyph glyph-name="onequarter" unicode="&#xbc;" horiz-adv-x="469" 
d="M358 681c6 0 11 -5 11 -11c0 -3 -1 -6 -2 -8l-257 -663c-1 -3 -4 -7 -10 -7s-11 5 -11 11c0 3 1 5 2 8l256 662c2 6 6 8 11 8zM115 650l-57 -39c-3 -2 -5 -3 -9 -3c-6 0 -11 5 -11 11c0 3 1 8 6 11l73 50c3 2 6 4 10 4c7 0 12 -5 12 -12v-281c0 -7 -5 -12 -12 -12
s-12 5 -12 12v259zM388 90h31c6 0 11 -5 11 -11s-5 -11 -11 -11h-31v-64c0 -7 -5 -12 -12 -12s-12 5 -12 12v64h-139c-6 0 -11 5 -11 11c0 1 1 6 2 7l149 204c2 3 5 7 11 7c7 0 12 -5 12 -12v-195zM246 90h118v162z" />
    <glyph glyph-name="slash.case" horiz-adv-x="407" 
d="M341 761c9 0 16 -7 16 -16c0 -1 0 -2 -1 -5l-276 -818c-2 -6 -8 -10 -15 -10c-9 0 -15 8 -15 15c0 1 0 3 1 6l276 817c2 7 8 11 14 11z" />
    <glyph glyph-name="backslash.case" horiz-adv-x="408" 
d="M66 761c6 0 12 -4 14 -11l276 -817c1 -3 1 -5 1 -6c0 -7 -6 -15 -15 -15c-7 0 -13 4 -15 10l-276 818c-1 3 -1 4 -1 5c0 9 7 16 16 16z" />
    <glyph glyph-name="bar.case" horiz-adv-x="218" 
d="M124 806v-938c0 -8 -7 -15 -15 -15s-15 7 -15 15v938c0 8 7 15 15 15s15 -7 15 -15z" />
    <glyph glyph-name="Cacute" unicode="&#x106;" horiz-adv-x="622" 
d="M352 -14c-193 0 -308 103 -308 350c0 237 115 351 308 351c95 0 177 -41 222 -104c2 -3 4 -7 4 -11c0 -8 -6 -14 -14 -14c-4 0 -8 1 -12 6c-40 54 -113 95 -200 95c-176 0 -276 -101 -276 -323c0 -235 100 -322 276 -322c76 0 153 30 200 93c4 5 8 6 12 6
c8 0 14 -6 14 -14c0 -2 -1 -6 -3 -9c-43 -65 -130 -104 -223 -104zM434 860c7 -6 8 -15 1 -22l-104 -112c-6 -7 -12 -5 -16 -1c-5 5 -7 10 -2 16l99 118c6 7 14 8 22 1z" />
    <glyph glyph-name="cacute" unicode="&#x107;" horiz-adv-x="440" 
d="M39 228c0 164 77 240 205 240c99 0 138 -54 148 -67c2 -3 3 -6 3 -9c0 -7 -6 -13 -13 -13c-5 0 -8 2 -11 6c-17 20 -47 57 -127 57c-113 0 -173 -66 -173 -214c0 -150 60 -215 173 -215c69 0 107 29 133 49c3 2 5 3 8 3c7 0 13 -6 13 -13c0 -3 -1 -7 -6 -11
c-20 -16 -67 -54 -148 -54c-128 0 -205 77 -205 241zM303 657c7 -6 8 -15 1 -22l-104 -112c-6 -7 -12 -5 -16 -1c-5 5 -7 10 -2 16l99 118c6 7 14 8 22 1z" />
    <glyph glyph-name="Ccircumflex" unicode="&#x108;" horiz-adv-x="622" 
d="M352 -14c-193 0 -308 103 -308 350c0 237 115 351 308 351c95 0 177 -41 222 -104c2 -3 4 -7 4 -11c0 -8 -6 -14 -14 -14c-4 0 -8 1 -12 6c-40 54 -113 95 -200 95c-176 0 -276 -101 -276 -323c0 -235 100 -322 276 -322c76 0 153 30 200 93c4 5 8 6 12 6
c8 0 14 -6 14 -14c0 -2 -1 -6 -3 -9c-43 -65 -130 -104 -223 -104zM444 729l-93 84l-93 -84c-2 -2 -5 -4 -9 -4c-7 0 -13 6 -13 13c0 5 3 8 5 10l99 89c3 3 7 5 11 5s8 -2 11 -5l99 -89c2 -2 5 -5 5 -10c0 -7 -6 -13 -13 -13c-4 0 -7 2 -9 4z" />
    <glyph glyph-name="ccircumflex" unicode="&#x109;" horiz-adv-x="440" 
d="M39 228c0 164 77 240 205 240c99 0 138 -54 148 -67c2 -3 3 -6 3 -9c0 -7 -6 -13 -13 -13c-5 0 -8 2 -11 6c-17 20 -47 57 -127 57c-113 0 -173 -66 -173 -214c0 -150 60 -215 173 -215c69 0 107 29 133 49c3 2 5 3 8 3c7 0 13 -6 13 -13c0 -3 -1 -7 -6 -11
c-20 -16 -67 -54 -148 -54c-128 0 -205 77 -205 241zM338 537l-93 84l-93 -84c-2 -2 -5 -4 -9 -4c-7 0 -13 6 -13 13c0 5 3 8 5 10l99 89c3 3 7 5 11 5s8 -2 11 -5l99 -89c2 -2 5 -5 5 -10c0 -7 -6 -13 -13 -13c-4 0 -7 2 -9 4z" />
    <glyph glyph-name="Cdotaccent" unicode="&#x10a;" horiz-adv-x="622" 
d="M352 -14c-193 0 -308 103 -308 350c0 237 115 351 308 351c95 0 177 -41 222 -104c2 -3 4 -7 4 -11c0 -8 -6 -14 -14 -14c-4 0 -8 1 -12 6c-40 54 -113 95 -200 95c-176 0 -276 -101 -276 -323c0 -235 100 -322 276 -322c76 0 153 30 200 93c4 5 8 6 12 6
c8 0 14 -6 14 -14c0 -2 -1 -6 -3 -9c-43 -65 -130 -104 -223 -104zM342 750c-14 0 -22 7 -22 22c0 16 8 23 22 23s22 -7 22 -23c0 -15 -8 -22 -22 -22z" />
    <glyph glyph-name="cdotaccent" unicode="&#x10b;" horiz-adv-x="440" 
d="M39 228c0 164 77 240 205 240c99 0 138 -54 148 -67c2 -3 3 -6 3 -9c0 -7 -6 -13 -13 -13c-5 0 -8 2 -11 6c-17 20 -47 57 -127 57c-113 0 -173 -66 -173 -214c0 -150 60 -215 173 -215c69 0 107 29 133 49c3 2 5 3 8 3c7 0 13 -6 13 -13c0 -3 -1 -7 -6 -11
c-20 -16 -67 -54 -148 -54c-128 0 -205 77 -205 241zM245 549c-14 0 -22 7 -22 22c0 16 8 23 22 23s22 -7 22 -23c0 -15 -8 -22 -22 -22z" />
    <glyph glyph-name="Ccaron" unicode="&#x10c;" horiz-adv-x="622" 
d="M352 -14c-193 0 -308 103 -308 350c0 237 115 351 308 351c95 0 177 -41 222 -104c2 -3 4 -7 4 -11c0 -8 -6 -14 -14 -14c-4 0 -8 1 -12 6c-40 54 -113 95 -200 95c-176 0 -276 -101 -276 -323c0 -235 100 -322 276 -322c76 0 153 30 200 93c4 5 8 6 12 6
c8 0 14 -6 14 -14c0 -2 -1 -6 -3 -9c-43 -65 -130 -104 -223 -104zM258 838l93 -84l93 84c2 2 5 4 9 4c7 0 13 -6 13 -13c0 -5 -3 -8 -5 -10l-99 -89c-3 -3 -7 -5 -11 -5s-8 2 -11 5l-99 89c-2 2 -5 5 -5 10c0 7 6 13 13 13c4 0 7 -2 9 -4z" />
    <glyph glyph-name="ccaron" unicode="&#x10d;" horiz-adv-x="440" 
d="M39 228c0 164 77 240 205 240c99 0 138 -54 148 -67c2 -3 3 -6 3 -9c0 -7 -6 -13 -13 -13c-5 0 -8 2 -11 6c-17 20 -47 57 -127 57c-113 0 -173 -66 -173 -214c0 -150 60 -215 173 -215c69 0 107 29 133 49c3 2 5 3 8 3c7 0 13 -6 13 -13c0 -3 -1 -7 -6 -11
c-20 -16 -67 -54 -148 -54c-128 0 -205 77 -205 241zM153 646l93 -84l93 84c2 2 5 4 9 4c7 0 13 -6 13 -13c0 -5 -3 -8 -5 -10l-99 -89c-3 -3 -7 -5 -11 -5s-8 2 -11 5l-99 89c-2 2 -5 5 -5 10c0 7 6 13 13 13c4 0 7 -2 9 -4z" />
    <glyph glyph-name="Dcaron" unicode="&#x10e;" horiz-adv-x="607" 
d="M122 645v-617h133c170 0 276 73 276 308c0 233 -106 309 -276 309h-133zM106 673h149c191 0 308 -90 308 -337s-117 -336 -308 -336h-149c-9 0 -16 7 -16 16v641c0 9 7 16 16 16zM179 838l93 -84l93 84c2 2 5 4 9 4c7 0 13 -6 13 -13c0 -5 -3 -8 -5 -10l-99 -89
c-3 -3 -7 -5 -11 -5s-8 2 -11 5l-99 89c-2 2 -5 5 -5 10c0 7 6 13 13 13c4 0 7 -2 9 -4z" />
    <glyph glyph-name="dcaron" unicode="&#x10f;" horiz-adv-x="507" 
d="M407 325c0 0 -39 117 -163 117c-113 0 -173 -66 -173 -214c0 -150 60 -215 173 -215c94 0 163 51 163 168v144zM244 468c123 0 163 -95 163 -95v324c0 8 7 15 15 15s15 -7 15 -15v-516c0 -130 -81 -194 -193 -194c-128 0 -205 77 -205 241s77 240 205 240zM526 669
c0 -43 -16 -86 -33 -109c-3 -4 -6 -5 -10 -5c-5 0 -9 4 -9 9c0 3 1 5 2 7c15 26 20 45 20 60c0 27 -17 40 -17 58c0 12 7 22 22 22c17 0 25 -10 25 -42z" />
    <glyph glyph-name="Dcroat" unicode="&#x110;" horiz-adv-x="607" 
d="M106 673h149c191 0 308 -90 308 -337s-117 -336 -308 -336h-149c-9 0 -16 7 -16 16v320h-53c-7 0 -13 6 -13 13s6 13 13 13h53v295c0 9 7 16 16 16zM365 349c0 -7 -6 -13 -13 -13h-230v-308h133c170 0 276 73 276 308c0 233 -106 309 -276 309h-133v-283h230
c7 0 13 -6 13 -13z" />
    <glyph glyph-name="dcroat" unicode="&#x111;" horiz-adv-x="502" 
d="M489 587c0 -7 -6 -13 -13 -13h-39v-393c0 -130 -81 -194 -193 -194c-128 0 -204 77 -204 241s76 240 204 240c123 0 163 -95 163 -95v201h-114c-7 0 -13 6 -13 13s6 13 13 13h114v97c0 8 7 15 15 15s15 -7 15 -15v-97h39c7 0 13 -6 13 -13zM407 181v144s-39 117 -163 117
c-113 0 -174 -66 -174 -214c0 -150 61 -215 174 -215c94 0 163 51 163 168z" />
    <glyph glyph-name="Emacron" unicode="&#x112;" horiz-adv-x="512" 
d="M457 0h-351c-9 0 -16 7 -16 16v641c0 9 7 16 16 16h339c8 0 14 -6 14 -14s-6 -14 -14 -14h-323v-292h252c8 0 14 -6 14 -14s-6 -14 -14 -14h-252v-297h335c8 0 14 -6 14 -14s-6 -14 -14 -14zM407 763c0 -7 -6 -13 -13 -13h-210c-7 0 -13 6 -13 13s6 13 13 13h210
c7 0 13 -6 13 -13z" />
    <glyph glyph-name="emacron" unicode="&#x113;" 
d="M40 228c0 155 76 240 204 240c166 0 188 -124 188 -191c0 -11 0 -25 -2 -37c-2 -11 -9 -16 -22 -16h-337c0 -144 67 -211 184 -211c75 0 112 26 141 50c3 2 5 3 8 3c7 0 13 -6 13 -13c0 -5 -3 -8 -6 -11c-16 -15 -64 -55 -156 -55c-133 0 -215 72 -215 241zM403 277
c0 80 -31 165 -159 165c-113 0 -169 -74 -173 -193h331s1 20 1 28zM374 567c0 -7 -6 -13 -13 -13h-210c-7 0 -13 6 -13 13s6 13 13 13h210c7 0 13 -6 13 -13z" />
    <glyph glyph-name="Ebreve" unicode="&#x114;" horiz-adv-x="512" 
d="M457 0h-351c-9 0 -16 7 -16 16v641c0 9 7 16 16 16h339c8 0 14 -6 14 -14s-6 -14 -14 -14h-323v-292h252c8 0 14 -6 14 -14s-6 -14 -14 -14h-252v-297h335c8 0 14 -6 14 -14s-6 -14 -14 -14zM289 732c-55 0 -105 26 -105 96c0 7 6 13 13 13s13 -6 13 -13
c0 -49 27 -72 79 -72s79 23 79 72c0 7 6 13 13 13s13 -6 13 -13c0 -70 -50 -96 -105 -96z" />
    <glyph glyph-name="ebreve" unicode="&#x115;" 
d="M40 228c0 155 76 240 204 240c166 0 188 -124 188 -191c0 -11 0 -25 -2 -37c-2 -11 -9 -16 -22 -16h-337c0 -144 67 -211 184 -211c75 0 112 26 141 50c3 2 5 3 8 3c7 0 13 -6 13 -13c0 -5 -3 -8 -6 -11c-16 -15 -64 -55 -156 -55c-133 0 -215 72 -215 241zM403 277
c0 80 -31 165 -159 165c-113 0 -169 -74 -173 -193h331s1 20 1 28zM244 531c-55 0 -105 26 -105 96c0 7 6 13 13 13s13 -6 13 -13c0 -49 27 -72 79 -72s79 23 79 72c0 7 6 13 13 13s13 -6 13 -13c0 -70 -50 -96 -105 -96z" />
    <glyph glyph-name="Edotaccent" unicode="&#x116;" horiz-adv-x="512" 
d="M457 0h-351c-9 0 -16 7 -16 16v641c0 9 7 16 16 16h339c8 0 14 -6 14 -14s-6 -14 -14 -14h-323v-292h252c8 0 14 -6 14 -14s-6 -14 -14 -14h-252v-297h335c8 0 14 -6 14 -14s-6 -14 -14 -14zM281 750c-14 0 -22 7 -22 22c0 16 8 23 22 23s22 -7 22 -23
c0 -15 -8 -22 -22 -22z" />
    <glyph glyph-name="edotaccent" unicode="&#x117;" 
d="M40 228c0 155 76 240 204 240c166 0 188 -124 188 -191c0 -11 0 -25 -2 -37c-2 -11 -9 -16 -22 -16h-337c0 -144 67 -211 184 -211c75 0 112 26 141 50c3 2 5 3 8 3c7 0 13 -6 13 -13c0 -5 -3 -8 -6 -11c-16 -15 -64 -55 -156 -55c-133 0 -215 72 -215 241zM403 277
c0 80 -31 165 -159 165c-113 0 -169 -74 -173 -193h331s1 20 1 28zM248 549c-14 0 -22 7 -22 22c0 16 8 23 22 23s22 -7 22 -23c0 -15 -8 -22 -22 -22z" />
    <glyph glyph-name="Ecaron" unicode="&#x11a;" horiz-adv-x="512" 
d="M457 0h-351c-9 0 -16 7 -16 16v641c0 9 7 16 16 16h339c8 0 14 -6 14 -14s-6 -14 -14 -14h-323v-292h252c8 0 14 -6 14 -14s-6 -14 -14 -14h-252v-297h335c8 0 14 -6 14 -14s-6 -14 -14 -14zM193 838l93 -84l93 84c2 2 5 4 9 4c7 0 13 -6 13 -13c0 -5 -3 -8 -5 -10
l-99 -89c-3 -3 -7 -5 -11 -5s-8 2 -11 5l-99 89c-2 2 -5 5 -5 10c0 7 6 13 13 13c4 0 7 -2 9 -4z" />
    <glyph glyph-name="ecaron" unicode="&#x11b;" 
d="M40 228c0 155 76 240 204 240c166 0 188 -124 188 -191c0 -11 0 -25 -2 -37c-2 -11 -9 -16 -22 -16h-337c0 -144 67 -211 184 -211c75 0 112 26 141 50c3 2 5 3 8 3c7 0 13 -6 13 -13c0 -5 -3 -8 -6 -11c-16 -15 -64 -55 -156 -55c-133 0 -215 72 -215 241zM403 277
c0 80 -31 165 -159 165c-113 0 -169 -74 -173 -193h331s1 20 1 28zM161 646l93 -84l93 84c2 2 5 4 9 4c7 0 13 -6 13 -13c0 -5 -3 -8 -5 -10l-99 -89c-3 -3 -7 -5 -11 -5s-8 2 -11 5l-99 89c-2 2 -5 5 -5 10c0 7 6 13 13 13c4 0 7 -2 9 -4z" />
    <glyph glyph-name="gcircumflex" unicode="&#x11d;" 
d="M57 306c0 -51 16 -92 47 -120c-33 -11 -51 -35 -51 -68c0 -54 39 -66 71 -75c-43 -10 -87 -48 -87 -111c0 -104 107 -133 209 -133c121 0 211 38 211 137c0 89 -71 128 -158 128h-125c-68 0 -93 18 -93 54c0 27 12 44 43 52c28 -17 66 -26 110 -26c113 0 177 63 177 162
c0 47 -15 87 -42 115c9 33 26 50 70 50c7 0 13 6 13 13s-6 13 -13 13c-48 0 -79 -23 -90 -59c-29 19 -69 30 -115 30c-113 0 -177 -63 -177 -162zM380 306c0 -85 -49 -136 -146 -136s-146 51 -146 136s49 136 146 136s146 -51 146 -136zM426 -64c0 -85 -82 -111 -179 -111
s-179 26 -179 107c0 56 35 95 109 105h122c70 0 127 -26 127 -101zM334 537l-93 84l-93 -84c-2 -2 -5 -4 -9 -4c-7 0 -13 6 -13 13c0 5 3 8 5 10l99 89c3 3 7 5 11 5s8 -2 11 -5l99 -89c2 -2 5 -5 5 -10c0 -7 -6 -13 -13 -13c-4 0 -7 2 -9 4z" />
    <glyph glyph-name="Gbreve" unicode="&#x11e;" horiz-adv-x="647" 
d="M352 14c108 0 183 49 220 98v175h-196c-8 0 -14 6 -14 14s6 14 14 14h212c7 0 14 -6 14 -13v-185c0 -8 -3 -15 -9 -22c-48 -56 -118 -109 -241 -109c-193 0 -308 103 -308 350s115 351 308 351c95 0 177 -41 222 -104c2 -3 4 -7 4 -11c0 -8 -6 -14 -14 -14
c-4 0 -8 1 -12 6c-40 54 -113 95 -200 95c-173 0 -276 -90 -276 -323c0 -235 100 -322 276 -322zM348 732c-55 0 -105 26 -105 96c0 7 6 13 13 13s13 -6 13 -13c0 -49 27 -72 79 -72s79 23 79 72c0 7 6 13 13 13s13 -6 13 -13c0 -70 -50 -96 -105 -96z" />
    <glyph glyph-name="gbreve" unicode="&#x11f;" 
d="M57 306c0 -51 16 -92 47 -120c-33 -11 -51 -35 -51 -68c0 -54 39 -66 71 -75c-43 -10 -87 -48 -87 -111c0 -104 107 -133 209 -133c121 0 211 38 211 137c0 89 -71 128 -158 128h-125c-68 0 -93 18 -93 54c0 27 12 44 43 52c28 -17 66 -26 110 -26c113 0 177 63 177 162
c0 47 -15 87 -42 115c9 33 26 50 70 50c7 0 13 6 13 13s-6 13 -13 13c-48 0 -79 -23 -90 -59c-29 19 -69 30 -115 30c-113 0 -177 -63 -177 -162zM380 306c0 -85 -49 -136 -146 -136s-146 51 -146 136s49 136 146 136s146 -51 146 -136zM426 -64c0 -85 -82 -111 -179 -111
s-179 26 -179 107c0 56 35 95 109 105h122c70 0 127 -26 127 -101zM236 531c-55 0 -105 26 -105 96c0 7 6 13 13 13s13 -6 13 -13c0 -49 27 -72 79 -72s79 23 79 72c0 7 6 13 13 13s13 -6 13 -13c0 -70 -50 -96 -105 -96z" />
    <glyph glyph-name="Gdotaccent" unicode="&#x120;" horiz-adv-x="672" 
d="M352 14c108 0 183 49 220 98v175h-196c-8 0 -14 6 -14 14s6 14 14 14h212c7 0 14 -6 14 -13v-185c0 -8 -3 -15 -9 -22c-48 -56 -118 -109 -241 -109c-193 0 -308 103 -308 350s115 351 308 351c95 0 177 -41 222 -104c2 -3 4 -7 4 -11c0 -8 -6 -14 -14 -14
c-4 0 -8 1 -12 6c-40 54 -113 95 -200 95c-173 0 -276 -90 -276 -323c0 -235 100 -322 276 -322zM342 750c-14 0 -22 7 -22 22c0 16 8 23 22 23s22 -7 22 -23c0 -15 -8 -22 -22 -22z" />
    <glyph glyph-name="gdotaccent" unicode="&#x121;" 
d="M57 306c0 -51 16 -92 47 -120c-33 -11 -51 -35 -51 -68c0 -54 39 -66 71 -75c-43 -10 -87 -48 -87 -111c0 -104 107 -133 209 -133c121 0 211 38 211 137c0 89 -71 128 -158 128h-125c-68 0 -93 18 -93 54c0 27 12 44 43 52c28 -17 66 -26 110 -26c113 0 177 63 177 162
c0 47 -15 87 -42 115c9 33 26 50 70 50c7 0 13 6 13 13s-6 13 -13 13c-48 0 -79 -23 -90 -59c-29 19 -69 30 -115 30c-113 0 -177 -63 -177 -162zM380 306c0 -85 -49 -136 -146 -136s-146 51 -146 136s49 136 146 136s146 -51 146 -136zM426 -64c0 -85 -82 -111 -179 -111
s-179 26 -179 107c0 56 35 95 109 105h122c70 0 127 -26 127 -101zM233 549c-14 0 -22 7 -22 22c0 16 8 23 22 23s22 -7 22 -23c0 -15 -8 -22 -22 -22z" />
    <glyph glyph-name="commaaccent" unicode="&#xf6c3;" horiz-adv-x="141" 
d="M94 -86c0 -43 -15 -70 -32 -93c-3 -4 -5 -6 -9 -6c-5 0 -9 4 -9 9c0 2 1 4 3 7c16 24 18 35 18 50c0 27 -17 35 -17 53c0 12 6 22 21 22c17 0 25 -10 25 -42z" />
    <glyph glyph-name="Gcommaaccent" unicode="&#x122;" horiz-adv-x="672" 
d="M352 14c108 0 183 49 220 98v175h-196c-8 0 -14 6 -14 14s6 14 14 14h212c7 0 14 -6 14 -13v-185c0 -8 -3 -15 -9 -22c-48 -56 -118 -109 -241 -109c-193 0 -308 103 -308 350s115 351 308 351c95 0 177 -41 222 -104c2 -3 4 -7 4 -11c0 -8 -6 -14 -14 -14
c-4 0 -8 1 -12 6c-40 54 -113 95 -200 95c-173 0 -276 -90 -276 -323c0 -235 100 -322 276 -322zM371 -86c0 -43 -15 -70 -32 -93c-3 -4 -5 -6 -9 -6c-5 0 -9 4 -9 9c0 2 1 4 3 7c16 24 18 35 18 50c0 27 -17 35 -17 53c0 12 6 22 21 22c17 0 25 -10 25 -42z" />
    <glyph glyph-name="gcommaaccent" unicode="&#x123;" 
d="M57 306c0 -51 16 -92 47 -120c-33 -11 -51 -35 -51 -68c0 -54 39 -66 71 -75c-43 -10 -87 -48 -87 -111c0 -104 107 -133 209 -133c121 0 211 38 211 137c0 89 -71 128 -158 128h-125c-68 0 -93 18 -93 54c0 27 12 44 43 52c28 -17 66 -26 110 -26c113 0 177 63 177 162
c0 47 -15 87 -42 115c9 33 26 50 70 50c7 0 13 6 13 13s-6 13 -13 13c-48 0 -79 -23 -90 -59c-29 19 -69 30 -115 30c-113 0 -177 -63 -177 -162zM380 306c0 -85 -49 -136 -146 -136s-146 51 -146 136s49 136 146 136s146 -51 146 -136zM426 -64c0 -85 -82 -111 -179 -111
s-179 26 -179 107c0 56 35 95 109 105h122c70 0 127 -26 127 -101zM206 560c0 43 16 86 33 109c3 4 6 5 10 5c5 0 9 -4 9 -9c0 -3 -1 -5 -2 -7c-15 -26 -20 -45 -20 -60c0 -27 17 -40 17 -58c0 -12 -7 -22 -22 -22c-17 0 -25 10 -25 42z" />
    <glyph glyph-name="Hcircumflex" unicode="&#x124;" horiz-adv-x="644" 
d="M522 331h-400v-323c0 -9 -7 -16 -16 -16s-16 7 -16 16v657c0 9 7 16 16 16s16 -7 16 -16v-305h400v305c0 9 7 16 16 16s16 -7 16 -16v-657c0 -9 -7 -16 -16 -16s-16 7 -16 16v323zM416 729l-93 84l-93 -84c-2 -2 -5 -4 -9 -4c-7 0 -13 6 -13 13c0 5 3 8 5 10l99 89
c3 3 7 5 11 5s8 -2 11 -5l99 -89c2 -2 5 -5 5 -10c0 -7 -6 -13 -13 -13c-4 0 -7 2 -9 4z" />
    <glyph glyph-name="hcircumflex" unicode="&#x125;" horiz-adv-x="501" 
d="M88 -8c-8 0 -15 7 -15 15v690c0 8 7 15 15 15s15 -7 15 -15v-325c15 40 61 96 157 96c144 0 179 -85 179 -177v-284c0 -8 -7 -15 -15 -15s-15 7 -15 15v284c0 81 -28 151 -150 151c-109 0 -156 -83 -156 -161v-274c0 -8 -7 -15 -15 -15zM183 729l-93 84l-93 -84
c-2 -2 -5 -4 -9 -4c-7 0 -13 6 -13 13c0 5 3 8 5 10l99 89c3 3 7 5 11 5s8 -2 11 -5l99 -89c2 -2 5 -5 5 -10c0 -7 -6 -13 -13 -13c-4 0 -7 2 -9 4z" />
    <glyph glyph-name="hbar" unicode="&#x127;" horiz-adv-x="496" 
d="M257 587c0 -7 -6 -13 -13 -13h-144v-202c15 40 61 96 157 96c144 0 179 -85 179 -177v-284c0 -8 -7 -15 -15 -15s-15 7 -15 15v284c0 81 -28 151 -150 151c-109 0 -156 -83 -156 -161v-274c0 -8 -7 -15 -15 -15s-15 7 -15 15v567h-46c-7 0 -13 6 -13 13s6 13 13 13h46v97
c0 8 7 15 15 15s15 -7 15 -15v-97h144c7 0 13 -6 13 -13z" />
    <glyph glyph-name="Itilde" unicode="&#x128;" horiz-adv-x="212" 
d="M122 665v-657c0 -9 -7 -16 -16 -16s-16 7 -16 16v657c0 9 7 16 16 16s16 -7 16 -16zM171 731c-57 0 -83 43 -132 43c-30 0 -42 -17 -51 -37c-2 -5 -7 -8 -12 -8c-7 0 -13 6 -13 13c0 3 1 6 2 8c9 21 31 50 74 50c57 0 83 -43 132 -43c32 0 43 19 51 39c2 5 7 8 12 8
c7 0 13 -6 13 -13c0 -3 -1 -6 -2 -8c-9 -20 -31 -52 -74 -52z" />
    <glyph glyph-name="Imacron" unicode="&#x12a;" horiz-adv-x="212" 
d="M122 665v-657c0 -9 -7 -16 -16 -16s-16 7 -16 16v657c0 9 7 16 16 16s16 -7 16 -16zM222 763c0 -7 -6 -13 -13 -13h-210c-7 0 -13 6 -13 13s6 13 13 13h210c7 0 13 -6 13 -13z" />
    <glyph glyph-name="Ibreve" unicode="&#x12c;" horiz-adv-x="212" 
d="M122 665v-657c0 -9 -7 -16 -16 -16s-16 7 -16 16v657c0 9 7 16 16 16s16 -7 16 -16zM105 732c-55 0 -105 26 -105 96c0 7 6 13 13 13s13 -6 13 -13c0 -49 27 -72 79 -72s79 23 79 72c0 7 6 13 13 13s13 -6 13 -13c0 -70 -50 -96 -105 -96z" />
    <glyph glyph-name="Idotaccent" unicode="&#x130;" horiz-adv-x="212" 
d="M122 665v-657c0 -9 -7 -16 -16 -16s-16 7 -16 16v657c0 9 7 16 16 16s16 -7 16 -16zM106 750c-14 0 -22 7 -22 22c0 16 8 23 22 23s22 -7 22 -23c0 -15 -8 -22 -22 -22z" />
    <glyph glyph-name="Jcircumflex" unicode="&#x134;" horiz-adv-x="402" 
d="M24 9c-5 3 -8 7 -8 13c0 8 7 15 15 15c4 0 6 -1 12 -4c27 -14 57 -19 88 -19c107 0 149 77 149 181v470c0 9 7 16 16 16s16 -7 16 -16v-470c0 -118 -49 -209 -181 -209c-37 0 -81 9 -107 23zM382 729l-93 84l-93 -84c-2 -2 -5 -4 -9 -4c-7 0 -13 6 -13 13c0 5 3 8 5 10
l99 89c3 3 7 5 11 5s8 -2 11 -5l99 -89c2 -2 5 -5 5 -10c0 -7 -6 -13 -13 -13c-4 0 -7 2 -9 4z" />
    <glyph glyph-name="Kcommaaccent" unicode="&#x136;" horiz-adv-x="548" 
d="M122 282l344 393c4 4 7 6 13 6c10 0 17 -7 17 -17c0 -5 -2 -9 -5 -12l-232 -261l266 -373c2 -3 3 -6 3 -10c0 -8 -7 -16 -17 -16c-7 0 -11 4 -14 8l-259 366l-116 -129v-229c0 -9 -7 -16 -16 -16s-16 7 -16 16v657c0 9 7 16 16 16s16 -7 16 -16v-383zM322 -86
c0 -43 -15 -70 -32 -93c-3 -4 -5 -6 -9 -6c-5 0 -9 4 -9 9c0 2 1 4 3 7c16 24 18 35 18 50c0 27 -17 35 -17 53c0 12 6 22 21 22c17 0 25 -10 25 -42z" />
    <glyph glyph-name="kcommaaccent" unicode="&#x137;" horiz-adv-x="443" 
d="M402 -8c-5 0 -8 2 -11 5l-208 259l-83 -71v-178c0 -8 -7 -15 -15 -15s-15 7 -15 15v690c0 8 7 15 15 15s15 -7 15 -15v-476l283 237c4 3 7 4 10 4c8 0 15 -7 15 -15c0 -5 -2 -9 -6 -12l-196 -161l207 -257c3 -4 4 -7 4 -10c0 -8 -7 -15 -15 -15zM261 -86
c0 -43 -15 -70 -32 -93c-3 -4 -5 -6 -9 -6c-5 0 -9 4 -9 9c0 2 1 4 3 7c16 24 18 35 18 50c0 27 -17 35 -17 53c0 12 6 22 21 22c17 0 25 -10 25 -42z" />
    <glyph glyph-name="kgreenlandic" unicode="&#x138;" horiz-adv-x="447" 
d="M402 -8c-5 0 -8 2 -11 5l-208 259l-83 -71v-178c0 -8 -7 -15 -15 -15s-15 7 -15 15v440c0 8 7 15 15 15s15 -7 15 -15v-226l283 237c4 3 7 4 10 4c8 0 15 -7 15 -15c0 -5 -2 -9 -6 -12l-196 -161l207 -257c3 -4 4 -7 4 -10c0 -8 -7 -15 -15 -15z" />
    <glyph glyph-name="Lacute" unicode="&#x139;" horiz-adv-x="477" 
d="M122 28h311c8 0 14 -6 14 -14s-6 -14 -14 -14h-329c-8 0 -14 6 -14 14v651c0 9 7 16 16 16s16 -7 16 -16v-637zM204 860c7 -6 8 -15 1 -22l-104 -112c-6 -7 -12 -5 -16 -1c-5 5 -7 10 -2 16l99 118c6 7 14 8 22 1z" />
    <glyph glyph-name="lacute" unicode="&#x13a;" horiz-adv-x="195" 
d="M85 712c8 0 15 -7 15 -15v-597c0 -58 20 -82 63 -82c7 0 13 -6 13 -13s-6 -13 -13 -13c-60 0 -93 37 -93 108v597c0 8 7 15 15 15zM171 868c7 -6 8 -15 1 -22l-104 -112c-6 -7 -12 -5 -16 -1c-5 5 -7 10 -2 16l99 118c6 7 14 8 22 1z" />
    <glyph glyph-name="Lcommaaccent" unicode="&#x13b;" horiz-adv-x="477" 
d="M122 28h311c8 0 14 -6 14 -14s-6 -14 -14 -14h-329c-8 0 -14 6 -14 14v651c0 9 7 16 16 16s16 -7 16 -16v-637zM298 -86c0 -43 -15 -70 -32 -93c-3 -4 -5 -6 -9 -6c-5 0 -9 4 -9 9c0 2 1 4 3 7c16 24 18 35 18 50c0 27 -17 35 -17 53c0 12 6 22 21 22c17 0 25 -10 25 -42
z" />
    <glyph glyph-name="lcommaaccent" unicode="&#x13c;" horiz-adv-x="195" 
d="M85 712c8 0 15 -7 15 -15v-597c0 -58 20 -82 63 -82c7 0 13 -6 13 -13s-6 -13 -13 -13c-60 0 -93 37 -93 108v597c0 8 7 15 15 15zM152 -86c0 -43 -15 -70 -32 -93c-3 -4 -5 -6 -9 -6c-5 0 -9 4 -9 9c0 2 1 4 3 7c16 24 18 35 18 50c0 27 -17 35 -17 53c0 12 6 22 21 22
c17 0 25 -10 25 -42z" />
    <glyph glyph-name="Ldot" unicode="&#x13f;" horiz-adv-x="477" 
d="M122 28h311c8 0 14 -6 14 -14s-6 -14 -14 -14h-329c-8 0 -14 6 -14 14v651c0 9 7 16 16 16s16 -7 16 -16v-637zM382 315c-18 0 -29 9 -29 29c0 21 11 31 29 31c19 0 30 -10 30 -31c0 -20 -11 -29 -30 -29z" />
    <glyph glyph-name="ldot" unicode="&#x140;" horiz-adv-x="230" 
d="M85 712c8 0 15 -7 15 -15v-597c0 -58 20 -82 63 -82c7 0 13 -6 13 -13s-6 -13 -13 -13c-60 0 -93 37 -93 108v597c0 8 7 15 15 15zM196 346c-18 0 -29 9 -29 29c0 21 11 31 29 31c19 0 30 -10 30 -31c0 -20 -11 -29 -30 -29z" />
    <glyph glyph-name="Nacute" unicode="&#x143;" horiz-adv-x="621" 
d="M526 681c8 0 15 -7 15 -15v-658c0 -9 -7 -16 -16 -16c-7 0 -11 3 -15 9l-400 616v-610c0 -8 -7 -15 -15 -15s-15 7 -15 15v659c0 8 7 15 15 15c6 0 10 -3 12 -6l404 -620v611c0 8 7 15 15 15zM399 860c7 -6 8 -15 1 -22l-104 -112c-6 -7 -12 -5 -16 -1c-5 5 -7 10 -2 16
l99 118c6 7 14 8 22 1z" />
    <glyph glyph-name="Eng" unicode="&#x14a;" horiz-adv-x="621" 
d="M526 681c8 0 15 -7 15 -15v-660c0 -118 -80 -207 -214 -207c-8 0 -14 6 -14 14s6 14 14 14c117 0 179 73 185 172l-402 618v-610c0 -8 -7 -15 -15 -15s-15 7 -15 15v659c0 8 7 15 15 15c6 0 10 -3 12 -6l404 -620v611c0 8 7 15 15 15z" />
    <glyph glyph-name="eng" unicode="&#x14b;" horiz-adv-x="496" 
d="M85 -8c-8 0 -15 7 -15 15v440c0 8 7 15 15 15s15 -7 15 -15v-75c15 40 61 96 157 96c144 0 179 -85 179 -177v-349c0 -80 -58 -143 -139 -143c-7 0 -13 6 -13 13s6 13 13 13c65 0 109 52 109 117v349c0 81 -28 151 -150 151c-109 0 -156 -83 -156 -161v-274
c0 -8 -7 -15 -15 -15z" />
    <glyph glyph-name="Omacron" unicode="&#x14c;" horiz-adv-x="704" 
d="M352 -14c-193 0 -308 114 -308 350c0 237 115 351 308 351s308 -114 308 -351c0 -236 -115 -350 -308 -350zM352 659c-176 0 -276 -101 -276 -323c0 -221 100 -322 276 -322s276 101 276 322c0 222 -100 323 -276 323zM475 763c0 -7 -6 -13 -13 -13h-210
c-7 0 -13 6 -13 13s6 13 13 13h210c7 0 13 -6 13 -13z" />
    <glyph glyph-name="omacron" unicode="&#x14d;" horiz-adv-x="488" 
d="M244 468c128 0 205 -76 205 -240s-77 -241 -205 -241s-205 77 -205 241s77 240 205 240zM244 13c112 0 173 66 173 215c0 147 -61 214 -173 214s-173 -67 -173 -214c0 -149 61 -215 173 -215zM360 567c0 -7 -6 -13 -13 -13h-210c-7 0 -13 6 -13 13s6 13 13 13h210
c7 0 13 -6 13 -13z" />
    <glyph glyph-name="Obreve" unicode="&#x14e;" horiz-adv-x="752" 
d="M376 -14c-193 0 -308 114 -308 350c0 237 115 351 308 351s308 -114 308 -351c0 -236 -115 -350 -308 -350zM376 659c-176 0 -276 -101 -276 -323c0 -221 100 -322 276 -322s276 101 276 322c0 222 -100 323 -276 323zM381 732c-55 0 -105 26 -105 96c0 7 6 13 13 13
s13 -6 13 -13c0 -49 27 -72 79 -72s79 23 79 72c0 7 6 13 13 13s13 -6 13 -13c0 -70 -50 -96 -105 -96z" />
    <glyph glyph-name="obreve" unicode="&#x14f;" horiz-adv-x="488" 
d="M244 468c128 0 205 -76 205 -240s-77 -241 -205 -241s-205 77 -205 241s77 240 205 240zM244 13c112 0 173 66 173 215c0 147 -61 214 -173 214s-173 -67 -173 -214c0 -149 61 -215 173 -215zM242 531c-55 0 -105 26 -105 96c0 7 6 13 13 13s13 -6 13 -13
c0 -49 27 -72 79 -72s79 23 79 72c0 7 6 13 13 13s13 -6 13 -13c0 -70 -50 -96 -105 -96z" />
    <glyph glyph-name="Ohungarumlaut" unicode="&#x150;" horiz-adv-x="704" 
d="M352 -14c-193 0 -308 114 -308 350c0 237 115 351 308 351s308 -114 308 -351c0 -236 -115 -350 -308 -350zM352 659c-176 0 -276 -101 -276 -323c0 -221 100 -322 276 -322s276 101 276 322c0 222 -100 323 -276 323zM410 860c7 -6 8 -15 1 -22l-104 -112
c-6 -7 -12 -5 -16 -1c-5 5 -7 10 -2 16l99 118c6 7 14 8 22 1zM514 860c7 -6 8 -15 1 -22l-104 -112c-6 -7 -12 -5 -16 -1c-5 5 -7 10 -2 16l99 118c6 7 14 8 22 1z" />
    <glyph glyph-name="ohungarumlaut" unicode="&#x151;" horiz-adv-x="488" 
d="M244 468c128 0 205 -76 205 -240s-77 -241 -205 -241s-205 77 -205 241s77 240 205 240zM244 13c112 0 173 66 173 215c0 147 -61 214 -173 214s-173 -67 -173 -214c0 -149 61 -215 173 -215zM294 657c7 -6 8 -15 1 -22l-104 -112c-6 -7 -12 -5 -16 -1c-5 5 -7 10 -2 16
l99 118c6 7 14 8 22 1zM398 657c7 -6 8 -15 1 -22l-104 -112c-6 -7 -12 -5 -16 -1c-5 5 -7 10 -2 16l99 118c6 7 14 8 22 1z" />
    <glyph glyph-name="Racute" unicode="&#x154;" horiz-adv-x="549" 
d="M122 645v-310h197c87 0 148 67 148 155c0 89 -62 155 -151 155h-194zM122 306v-298c0 -9 -7 -16 -16 -16s-16 7 -16 16v649c0 9 7 16 16 16h210c106 0 183 -81 183 -183s-72 -184 -180 -184h-24s216 -292 213 -288c0 0 3 -4 3 -10c0 -9 -7 -16 -17 -16c-5 0 -10 2 -14 8
l-221 306h-137zM345 860c7 -6 8 -15 1 -22l-104 -112c-6 -7 -12 -5 -16 -1c-5 5 -7 10 -2 16l99 118c6 7 14 8 22 1z" />
    <glyph glyph-name="Rcommaaccent" unicode="&#x156;" horiz-adv-x="550" 
d="M122 645v-310h197c87 0 148 67 148 155c0 89 -62 155 -151 155h-194zM122 306v-298c0 -9 -7 -16 -16 -16s-16 7 -16 16v649c0 9 7 16 16 16h210c106 0 183 -81 183 -183s-72 -184 -180 -184h-24s216 -292 213 -288c0 0 3 -4 3 -10c0 -9 -7 -16 -17 -16c-5 0 -10 2 -14 8
l-221 306h-137zM312 -86c0 -43 -15 -70 -32 -93c-3 -4 -5 -6 -9 -6c-5 0 -9 4 -9 9c0 2 1 4 3 7c16 24 18 35 18 50c0 27 -17 35 -17 53c0 12 6 22 21 22c17 0 25 -10 25 -42z" />
    <glyph glyph-name="Rcaron" unicode="&#x158;" horiz-adv-x="549" 
d="M122 645v-310h197c87 0 148 67 148 155c0 89 -62 155 -151 155h-194zM122 306v-298c0 -9 -7 -16 -16 -16s-16 7 -16 16v649c0 9 7 16 16 16h210c106 0 183 -81 183 -183s-72 -184 -180 -184h-24s216 -292 213 -288c0 0 3 -4 3 -10c0 -9 -7 -16 -17 -16c-5 0 -10 2 -14 8
l-221 306h-137zM172 838l93 -84l93 84c2 2 5 4 9 4c7 0 13 -6 13 -13c0 -5 -3 -8 -5 -10l-99 -89c-3 -3 -7 -5 -11 -5s-8 2 -11 5l-99 89c-2 2 -5 5 -5 10c0 7 6 13 13 13c4 0 7 -2 9 -4z" />
    <glyph glyph-name="tcommaaccent" unicode="&#x163;" horiz-adv-x="265" 
d="M95 454v122c0 8 7 15 15 15s15 -7 15 -15v-122h90c7 0 13 -6 13 -13s-6 -13 -13 -13h-90v-318c0 -60 34 -92 83 -92c7 0 13 -6 13 -13s-6 -13 -13 -13c-73 0 -113 50 -113 118v318h-62c-7 0 -13 6 -13 13s6 13 13 13h62zM177 -86c0 -43 -15 -70 -32 -93
c-3 -4 -5 -6 -9 -6c-5 0 -9 4 -9 9c0 2 1 4 3 7c16 24 18 35 18 50c0 27 -17 35 -17 53c0 12 6 22 21 22c17 0 25 -10 25 -42z" />
    <glyph glyph-name="tcaron" unicode="&#x165;" horiz-adv-x="265" 
d="M95 454v122c0 8 7 15 15 15s15 -7 15 -15v-122h90c7 0 13 -6 13 -13s-6 -13 -13 -13h-90v-318c0 -60 34 -92 83 -92c7 0 13 -6 13 -13s-6 -13 -13 -13c-73 0 -113 50 -113 118v318h-62c-7 0 -13 6 -13 13s6 13 13 13h62zM237 639c0 -43 -16 -86 -33 -109
c-3 -4 -6 -5 -10 -5c-5 0 -9 4 -9 9c0 3 1 5 2 7c15 26 20 45 20 60c0 27 -17 40 -17 58c0 12 7 22 22 22c17 0 25 -10 25 -42z" />
    <glyph glyph-name="tbar" unicode="&#x167;" horiz-adv-x="265" 
d="M95 454v122c0 8 7 15 15 15s15 -7 15 -15v-122h90c7 0 13 -6 13 -13s-6 -13 -13 -13h-90v-116h90c7 0 13 -6 13 -13s-6 -13 -13 -13h-90v-176c0 -60 34 -92 83 -92c7 0 13 -6 13 -13s-6 -13 -13 -13c-73 0 -113 50 -113 118v176h-62c-7 0 -13 6 -13 13s6 13 13 13h62v116
h-62c-7 0 -13 6 -13 13s6 13 13 13h62z" />
    <glyph glyph-name="Utilde" unicode="&#x168;" horiz-adv-x="627" 
d="M319 -14c-184 0 -229 106 -229 212v467c0 9 7 16 16 16s16 -7 16 -16v-467c0 -93 35 -184 197 -184s196 91 196 184v467c0 9 7 16 16 16s16 -7 16 -16v-467c0 -106 -44 -212 -228 -212zM387 731c-57 0 -83 43 -132 43c-30 0 -42 -17 -51 -37c-2 -5 -7 -8 -12 -8
c-7 0 -13 6 -13 13c0 3 1 6 2 8c9 21 31 50 74 50c57 0 83 -43 132 -43c32 0 43 19 51 39c2 5 7 8 12 8c7 0 13 -6 13 -13c0 -3 -1 -6 -2 -8c-9 -20 -31 -52 -74 -52z" />
    <glyph glyph-name="utilde" unicode="&#x169;" horiz-adv-x="486" 
d="M75 462c8 0 15 -7 15 -15v-282c0 -82 26 -152 153 -152s153 70 153 152v282c0 8 7 15 15 15s15 -7 15 -15v-282c0 -93 -32 -178 -183 -178s-183 85 -183 178v282c0 8 7 15 15 15zM315 535c-57 0 -83 43 -132 43c-30 0 -42 -17 -51 -37c-2 -5 -7 -8 -12 -8
c-7 0 -13 6 -13 13c0 3 1 6 2 8c9 21 31 50 74 50c57 0 83 -43 132 -43c32 0 43 19 51 39c2 5 7 8 12 8c7 0 13 -6 13 -13c0 -3 -1 -6 -2 -8c-9 -20 -31 -52 -74 -52z" />
    <glyph glyph-name="Umacron" unicode="&#x16a;" horiz-adv-x="627" 
d="M319 -14c-184 0 -229 106 -229 212v467c0 9 7 16 16 16s16 -7 16 -16v-467c0 -93 35 -184 197 -184s196 91 196 184v467c0 9 7 16 16 16s16 -7 16 -16v-467c0 -106 -44 -212 -228 -212zM439 763c0 -7 -6 -13 -13 -13h-210c-7 0 -13 6 -13 13s6 13 13 13h210
c7 0 13 -6 13 -13z" />
    <glyph glyph-name="umacron" unicode="&#x16b;" horiz-adv-x="486" 
d="M75 462c8 0 15 -7 15 -15v-282c0 -82 26 -152 153 -152s153 70 153 152v282c0 8 7 15 15 15s15 -7 15 -15v-282c0 -93 -32 -178 -183 -178s-183 85 -183 178v282c0 8 7 15 15 15zM367 567c0 -7 -6 -13 -13 -13h-210c-7 0 -13 6 -13 13s6 13 13 13h210c7 0 13 -6 13 -13z
" />
    <glyph glyph-name="Ubreve" unicode="&#x16c;" horiz-adv-x="627" 
d="M319 -14c-184 0 -229 106 -229 212v467c0 9 7 16 16 16s16 -7 16 -16v-467c0 -93 35 -184 197 -184s196 91 196 184v467c0 9 7 16 16 16s16 -7 16 -16v-467c0 -106 -44 -212 -228 -212zM318 732c-55 0 -105 26 -105 96c0 7 6 13 13 13s13 -6 13 -13c0 -49 27 -72 79 -72
s79 23 79 72c0 7 6 13 13 13s13 -6 13 -13c0 -70 -50 -96 -105 -96z" />
    <glyph glyph-name="ubreve" unicode="&#x16d;" horiz-adv-x="486" 
d="M75 462c8 0 15 -7 15 -15v-282c0 -82 26 -152 153 -152s153 70 153 152v282c0 8 7 15 15 15s15 -7 15 -15v-282c0 -93 -32 -178 -183 -178s-183 85 -183 178v282c0 8 7 15 15 15zM242 531c-55 0 -105 26 -105 96c0 7 6 13 13 13s13 -6 13 -13c0 -49 27 -72 79 -72
s79 23 79 72c0 7 6 13 13 13s13 -6 13 -13c0 -70 -50 -96 -105 -96z" />
    <glyph glyph-name="Uring" unicode="&#x16e;" horiz-adv-x="627" 
d="M319 -14c-184 0 -229 106 -229 212v467c0 9 7 16 16 16s16 -7 16 -16v-467c0 -93 35 -184 197 -184s196 91 196 184v467c0 9 7 16 16 16s16 -7 16 -16v-467c0 -106 -44 -212 -228 -212zM323 899c71 0 104 -37 104 -98s-33 -98 -104 -98s-104 37 -104 98s33 98 104 98z
M323 725c55 0 78 24 78 76s-23 76 -78 76s-78 -24 -78 -76s23 -76 78 -76z" />
    <glyph glyph-name="uring" unicode="&#x16f;" horiz-adv-x="486" 
d="M75 462c8 0 15 -7 15 -15v-282c0 -82 26 -152 153 -152s153 70 153 152v282c0 8 7 15 15 15s15 -7 15 -15v-282c0 -93 -32 -178 -183 -178s-183 85 -183 178v282c0 8 7 15 15 15zM244 698c71 0 104 -37 104 -98s-33 -98 -104 -98s-104 37 -104 98s33 98 104 98zM244 524
c55 0 78 24 78 76s-23 76 -78 76s-78 -24 -78 -76s23 -76 78 -76z" />
    <glyph glyph-name="Uhungarumlaut" unicode="&#x170;" horiz-adv-x="627" 
d="M319 -14c-184 0 -229 106 -229 212v467c0 9 7 16 16 16s16 -7 16 -16v-467c0 -93 35 -184 197 -184s196 91 196 184v467c0 9 7 16 16 16s16 -7 16 -16v-467c0 -106 -44 -212 -228 -212zM359 860c7 -6 8 -15 1 -22l-104 -112c-6 -7 -12 -5 -16 -1c-5 5 -7 10 -2 16l99 118
c6 7 14 8 22 1zM463 860c7 -6 8 -15 1 -22l-104 -112c-6 -7 -12 -5 -16 -1c-5 5 -7 10 -2 16l99 118c6 7 14 8 22 1z" />
    <glyph glyph-name="longs" unicode="&#x17f;" horiz-adv-x="220" 
d="M95 428h-57c-7 0 -13 6 -13 13s6 13 13 13h57v63c0 88 50 168 168 168c7 0 13 -6 13 -13s-6 -13 -13 -13c-99 0 -138 -59 -138 -142v-510c0 -8 -7 -15 -15 -15s-15 7 -15 15v421z" />
    <glyph glyph-name="Aringacute" unicode="&#x1fa;" horiz-adv-x="616" 
d="M392 1007c5 -8 4 -15 -4 -19l-145 -76c-8 -4 -12 -1 -15 4c-4 6 -3 12 4 16l143 80c8 5 14 1 17 -5zM459 243l-151 388l-151 -388h302zM469 214h-322l-83 -211c-2 -6 -8 -11 -16 -11c-9 0 -16 7 -16 16c0 2 1 6 2 8l259 654c2 6 7 11 15 11s14 -5 16 -11l258 -654
c1 -2 2 -6 2 -8c0 -9 -7 -16 -17 -16c-8 0 -13 5 -16 12zM308 899c71 0 104 -37 104 -98s-33 -98 -104 -98s-104 37 -104 98s33 98 104 98zM308 725c55 0 78 24 78 76s-23 76 -78 76s-78 -24 -78 -76s23 -76 78 -76z" />
    <glyph glyph-name="aringacute" unicode="&#x1fb;" horiz-adv-x="463" 
d="M228 442c-81 0 -113 -36 -137 -73c-3 -5 -8 -7 -12 -7c-8 0 -14 6 -14 14c0 3 1 6 3 9c26 42 76 83 160 83c123 0 175 -66 175 -165v-296c0 -8 -6 -14 -14 -14s-14 6 -14 14v59c-33 -53 -98 -78 -165 -78c-112 0 -174 50 -174 138s71 139 185 139h154v46
c0 85 -55 131 -147 131zM210 14c87 0 165 47 165 141v85h-154c-90 0 -154 -37 -154 -114c0 -69 46 -112 143 -112zM237 685c71 0 104 -37 104 -98s-33 -98 -104 -98s-104 37 -104 98s33 98 104 98zM237 511c55 0 78 24 78 76s-23 76 -78 76s-78 -24 -78 -76s23 -76 78 -76z
M289 837c7 -6 8 -15 1 -22l-104 -112c-6 -7 -12 -5 -16 -1c-5 5 -7 10 -2 16l99 118c6 7 14 8 22 1z" />
    <glyph glyph-name="AEacute" unicode="&#x1fc;" horiz-adv-x="854" 
d="M799 0h-351c-9 0 -16 7 -16 16v198h-252l-136 -214c-4 -6 -9 -8 -14 -8c-9 0 -16 7 -16 16c0 3 1 7 4 11l414 643c5 7 9 11 19 11h336c8 0 14 -6 14 -14s-6 -14 -14 -14h-323v-292h252c8 0 14 -6 14 -14s-6 -14 -14 -14h-252v-297h335c8 0 14 -6 14 -14s-6 -14 -14 -14z
M197 243h235v368zM649 860c7 -6 8 -15 1 -22l-104 -112c-6 -7 -12 -5 -16 -1c-5 5 -7 10 -2 16l99 118c6 7 14 8 22 1z" />
    <glyph glyph-name="aeacute" unicode="&#x1fd;" horiz-adv-x="800" 
d="M228 442c-81 0 -113 -36 -137 -73c-3 -5 -8 -7 -12 -7c-8 0 -14 6 -14 14c0 3 1 6 3 9c26 42 76 83 160 83c101 0 153 -44 168 -114c25 73 92 114 181 114c166 0 188 -116 188 -183c0 -11 0 -25 -2 -37c-2 -11 -9 -16 -22 -16h-338c0 -144 62 -219 185 -219
c75 0 112 26 141 50c3 2 5 3 8 3c7 0 13 -6 13 -13c0 -5 -3 -8 -6 -11c-16 -15 -64 -55 -156 -55c-97 0 -167 41 -193 124c-27 -86 -100 -123 -185 -123c-112 0 -176 45 -176 133s72 136 196 136h145v55c0 85 -55 130 -147 130zM210 14c87 0 165 51 165 144v74h-154
c-90 0 -157 -34 -157 -111c0 -69 49 -107 146 -107zM737 285c0 80 -32 157 -160 157c-109 0 -174 -65 -174 -185h333s1 18 1 28zM479 657c7 -6 8 -15 1 -22l-104 -112c-6 -7 -12 -5 -16 -1c-5 5 -7 10 -2 16l99 118c6 7 14 8 22 1z" />
    <glyph glyph-name="Oslashacute" unicode="&#x1fe;" horiz-adv-x="704" 
d="M352 -14c-86 0 -157 22 -209 68l-58 -73c-2 -2 -5 -5 -10 -5c-7 0 -13 6 -13 13c0 4 2 7 3 8l60 76c-52 58 -81 145 -81 263c0 237 115 351 308 351c86 0 156 -23 208 -69l58 74c3 4 7 5 10 5c7 0 13 -6 13 -13c0 -1 0 -4 -2 -7l-61 -77c53 -58 82 -146 82 -264
c0 -236 -115 -350 -308 -350zM628 336c0 108 -24 188 -69 241l-397 -499c46 -44 110 -64 190 -64c176 0 276 101 276 322zM352 659c-176 0 -276 -101 -276 -323c0 -108 23 -187 68 -240l397 499c-46 43 -110 64 -189 64zM434 860c7 -6 8 -15 1 -22l-104 -112
c-6 -7 -12 -5 -16 -1c-5 5 -7 10 -2 16l99 118c6 7 14 8 22 1z" />
    <glyph glyph-name="Wdieresis" unicode="&#x1e84;" horiz-adv-x="824" 
d="M599 57l174 613c2 6 7 11 15 11c10 0 17 -7 17 -17c0 -1 0 -3 -1 -6l-189 -654c-2 -7 -8 -12 -16 -12s-13 4 -15 11l-172 609l-172 -609c-2 -7 -8 -11 -16 -11c-6 0 -13 4 -15 11l-189 656c-1 3 -1 4 -1 5c0 10 7 17 16 17c8 0 14 -5 16 -11l174 -616l172 616
c2 7 8 11 15 11s14 -4 16 -11zM332 741c-15 0 -22 7 -22 23s7 23 22 23s22 -7 22 -23s-7 -23 -22 -23zM492 741c-15 0 -22 7 -22 23s7 23 22 23s22 -7 22 -23s-7 -23 -22 -23z" />
    <glyph glyph-name="Ygrave" unicode="&#x1ef2;" horiz-adv-x="502" 
d="M251 -8c-9 0 -16 7 -16 16v310l-215 336c-2 3 -3 7 -3 10c0 10 7 17 16 17c7 0 12 -3 15 -8l203 -325l202 325c4 6 9 8 14 8c10 0 17 -7 17 -17c0 -3 -1 -7 -3 -10l-214 -336v-310c0 -9 -7 -16 -16 -16zM181 860c8 7 16 6 22 -1l99 -118c5 -6 3 -11 -2 -16
c-4 -4 -10 -6 -16 1l-104 112c-7 7 -6 16 1 22z" />
    <glyph glyph-name="ygrave" unicode="&#x1ef3;" horiz-adv-x="428" 
d="M214 38l167 414c1 3 5 10 14 10c8 0 15 -7 15 -15c0 -2 -1 -6 -2 -8l-211 -509c-41 -98 -89 -131 -182 -131c-7 0 -13 6 -13 13s6 13 13 13c109 0 134 55 184 179l-179 435c-1 2 -2 6 -2 8c0 8 7 15 15 15c9 0 13 -7 14 -10zM149 657c8 7 16 6 22 -1l99 -118
c5 -6 3 -11 -2 -16c-4 -4 -10 -6 -16 1l-104 112c-7 7 -6 16 1 22z" />
    <glyph glyph-name="zero.numerator" horiz-adv-x="288" 
d="M144 687c76 0 121 -45 121 -155s-45 -156 -121 -156c-75 0 -121 46 -121 156s46 155 121 155zM144 398c64 0 95 37 95 134c0 96 -31 133 -95 133c-63 0 -95 -37 -95 -133c0 -97 32 -134 95 -134z" />
    <glyph glyph-name="one.numerator" horiz-adv-x="174" 
d="M97 650l-57 -39c-3 -2 -5 -3 -9 -3c-6 0 -11 5 -11 11c0 3 1 8 6 11l73 50c3 2 6 4 10 4c7 0 12 -5 12 -12v-281c0 -7 -5 -12 -12 -12s-12 5 -12 12v259z" />
    <glyph glyph-name="two.numerator" horiz-adv-x="259" 
d="M36 627c13 36 48 60 92 60c67 0 105 -36 105 -88c0 -112 -183 -116 -183 -195h170c6 0 11 -5 11 -11s-5 -11 -11 -11h-185c-6 0 -11 5 -11 11c0 116 183 102 183 206c0 36 -22 66 -79 66c-40 0 -59 -19 -72 -48c-2 -5 -6 -7 -10 -7c-6 0 -11 5 -11 11c0 0 0 3 1 6z" />
    <glyph glyph-name="three.numerator" horiz-adv-x="257" 
d="M126 564h12c70 0 95 -47 95 -94c0 -56 -34 -94 -110 -94c-49 0 -82 20 -97 50c-2 4 -3 7 -3 9c0 6 4 10 10 10c5 0 7 -2 9 -5c17 -29 40 -42 81 -42c58 0 84 22 84 72c0 46 -19 72 -81 72h-21c-6 0 -11 5 -11 11c0 3 1 6 4 9l87 97h-136c-6 0 -11 5 -11 11s5 11 11 11
h159c6 0 11 -5 11 -11c0 -4 -2 -7 -4 -9z" />
    <glyph glyph-name="four.numerator" horiz-adv-x="254" 
d="M191 477h31c6 0 11 -5 11 -11s-5 -11 -11 -11h-31v-64c0 -7 -5 -12 -12 -12s-12 5 -12 12v64h-137c-6 0 -11 5 -11 11c0 4 1 6 3 9l146 202c2 3 5 7 11 7c7 0 12 -5 12 -12v-195zM50 477h117v161z" />
    <glyph glyph-name="five.numerator" horiz-adv-x="261" 
d="M130 575c58 0 107 -29 107 -99c0 -65 -43 -99 -107 -99c-58 0 -94 33 -109 62c-1 2 -2 5 -2 7c0 6 4 10 10 10c5 0 7 -2 9 -5c19 -31 45 -52 92 -52c51 0 81 23 81 77c0 48 -30 77 -81 77c-30 0 -51 -4 -77 -27c-2 -2 -5 -4 -10 -4c-6 0 -11 5 -11 11c0 0 0 2 1 6l25 132
c1 5 5 9 11 9h146c6 0 11 -5 11 -11s-5 -11 -11 -11h-138l-20 -106c15 13 36 23 73 23z" />
    <glyph glyph-name="six.numerator" horiz-adv-x="266" 
d="M134 570c61 0 109 -31 109 -97c0 -68 -50 -97 -109 -97c-80 0 -110 62 -110 148c0 115 50 163 117 163c34 0 63 -14 74 -24c3 -3 4 -5 4 -9c0 -6 -4 -10 -10 -10c-3 0 -5 1 -8 3c-18 12 -34 18 -60 18c-58 0 -93 -39 -93 -146c8 20 36 51 86 51zM134 398
c51 0 83 22 83 75c0 49 -32 75 -83 75c-35 0 -68 -19 -82 -60c0 -45 28 -90 82 -90z" />
    <glyph glyph-name="seven.numerator" horiz-adv-x="224" 
d="M56 391c0 165 131 173 131 268h-163c-6 0 -11 5 -11 11s5 11 11 11h176c6 0 11 -5 11 -11c0 -128 -131 -115 -131 -279c0 -7 -5 -12 -12 -12s-12 5 -12 12z" />
    <glyph glyph-name="eight.numerator" horiz-adv-x="256" 
d="M128 376c-63 0 -107 30 -107 88c0 47 30 72 66 79c-27 8 -53 27 -53 68c0 50 42 76 94 76s94 -26 94 -76c0 -41 -26 -60 -53 -68c36 -7 66 -32 66 -79c0 -58 -44 -88 -107 -88zM128 665c-46 0 -70 -17 -70 -54c0 -39 25 -56 70 -56s70 17 70 56c0 37 -24 54 -70 54z
M128 531c-47 0 -83 -17 -83 -67c0 -48 36 -66 83 -66s83 18 83 66c0 50 -36 67 -83 67z" />
    <glyph glyph-name="nine.numerator" horiz-adv-x="266" 
d="M132 493c-61 0 -109 31 -109 97c0 68 50 97 109 97c80 0 110 -62 110 -148c0 -115 -50 -163 -117 -163c-34 0 -63 14 -74 24c-3 3 -4 5 -4 9c0 6 4 10 10 10c3 0 5 -1 8 -3c18 -12 34 -18 60 -18c58 0 93 39 93 146c-8 -20 -36 -51 -86 -51zM132 665
c-51 0 -83 -22 -83 -75c0 -49 32 -75 83 -75c35 0 68 19 82 60c0 45 -28 90 -82 90z" />
    <glyph glyph-name="zero.denominator" horiz-adv-x="288" 
d="M144 298c76 0 121 -45 121 -155s-45 -156 -121 -156c-75 0 -121 46 -121 156s46 155 121 155zM144 9c64 0 95 37 95 134c0 96 -31 133 -95 133c-63 0 -95 -37 -95 -133c0 -97 32 -134 95 -134z" />
    <glyph glyph-name="one.denominator" horiz-adv-x="174" 
d="M97 263l-57 -39c-3 -2 -5 -3 -9 -3c-6 0 -11 5 -11 11c0 3 1 8 6 11l73 50c3 2 6 4 10 4c7 0 12 -5 12 -12v-281c0 -7 -5 -12 -12 -12s-12 5 -12 12v259z" />
    <glyph glyph-name="two.denominator" horiz-adv-x="259" 
d="M36 245c13 36 48 60 92 60c67 0 105 -36 105 -88c0 -112 -183 -116 -183 -195h170c6 0 11 -5 11 -11s-5 -11 -11 -11h-185c-6 0 -11 5 -11 11c0 116 183 102 183 206c0 36 -22 66 -79 66c-40 0 -59 -19 -72 -48c-2 -5 -6 -7 -10 -7c-6 0 -11 5 -11 11c0 0 0 3 1 6z" />
    <glyph glyph-name="three.denominator" horiz-adv-x="257" 
d="M126 175h12c70 0 95 -47 95 -94c0 -56 -34 -94 -110 -94c-49 0 -82 20 -97 50c-2 4 -3 7 -3 9c0 6 4 10 10 10c5 0 7 -2 9 -5c17 -29 40 -42 81 -42c58 0 84 22 84 72c0 46 -19 72 -81 72h-21c-6 0 -11 5 -11 11c0 3 1 6 4 9l87 97h-136c-6 0 -11 5 -11 11s5 11 11 11
h159c6 0 11 -5 11 -11c0 -4 -2 -7 -4 -9z" />
    <glyph glyph-name="four.denominator" horiz-adv-x="254" 
d="M191 90h31c6 0 11 -5 11 -11s-5 -11 -11 -11h-31v-64c0 -7 -5 -12 -12 -12s-12 5 -12 12v64h-137c-6 0 -11 5 -11 11c0 4 1 6 3 9l146 202c2 3 5 7 11 7c7 0 12 -5 12 -12v-195zM50 90h117v161z" />
    <glyph glyph-name="five.denominator" horiz-adv-x="261" 
d="M130 184c58 0 107 -29 107 -99c0 -65 -43 -99 -107 -99c-58 0 -94 33 -109 62c-1 2 -2 5 -2 7c0 6 4 10 10 10c5 0 7 -2 9 -5c19 -31 45 -52 92 -52c51 0 81 23 81 77c0 48 -30 77 -81 77c-30 0 -51 -4 -77 -27c-2 -2 -5 -4 -10 -4c-6 0 -11 5 -11 11c0 0 0 2 1 6l25 132
c1 5 5 9 11 9h146c6 0 11 -5 11 -11s-5 -11 -11 -11h-138l-20 -106c15 13 36 23 73 23z" />
    <glyph glyph-name="six.denominator" horiz-adv-x="266" 
d="M134 180c61 0 109 -31 109 -97c0 -68 -50 -97 -109 -97c-80 0 -110 62 -110 148c0 115 50 163 117 163c34 0 63 -14 74 -24c3 -3 4 -5 4 -9c0 -6 -4 -10 -10 -10c-3 0 -5 1 -8 3c-18 12 -34 18 -60 18c-58 0 -93 -39 -93 -146c8 20 36 51 86 51zM134 8c51 0 83 22 83 75
c0 49 -32 75 -83 75c-35 0 -68 -19 -82 -60c0 -45 28 -90 82 -90z" />
    <glyph glyph-name="seven.denominator" horiz-adv-x="224" 
d="M56 3c0 165 131 172 131 267h-163c-6 0 -11 5 -11 11s5 11 11 11h176c6 0 11 -5 11 -11c0 -128 -131 -114 -131 -278c0 -7 -5 -12 -12 -12s-12 5 -12 12z" />
    <glyph glyph-name="eight.denominator" horiz-adv-x="256" 
d="M128 -14c-63 0 -107 30 -107 88c0 47 30 72 66 79c-27 8 -53 27 -53 68c0 50 42 76 94 76s94 -26 94 -76c0 -41 -26 -60 -53 -68c36 -7 66 -32 66 -79c0 -58 -44 -88 -107 -88zM128 275c-46 0 -70 -17 -70 -54c0 -39 25 -56 70 -56s70 17 70 56c0 37 -24 54 -70 54z
M128 141c-47 0 -83 -17 -83 -67c0 -48 36 -66 83 -66s83 18 83 66c0 50 -36 67 -83 67z" />
    <glyph glyph-name="nine.denominator" horiz-adv-x="266" 
d="M132 103c-61 0 -109 31 -109 97c0 68 50 97 109 97c80 0 110 -62 110 -148c0 -115 -50 -163 -117 -163c-34 0 -63 14 -74 24c-3 3 -4 5 -4 9c0 6 4 10 10 10c3 0 5 -1 8 -3c18 -12 34 -18 60 -18c58 0 93 39 93 146c-8 -20 -36 -51 -86 -51zM132 275
c-51 0 -83 -22 -83 -75c0 -49 32 -75 83 -75c35 0 68 19 82 60c0 45 -28 90 -82 90z" />
    <glyph glyph-name="thinspace" unicode="&#x2009;" horiz-adv-x="14" 
 />
    <glyph glyph-name="zerosuperior" unicode="&#x2070;" horiz-adv-x="288" 
d="M144 730c76 0 121 -45 121 -155s-45 -156 -121 -156c-75 0 -121 46 -121 156s46 155 121 155zM144 441c64 0 95 37 95 134c0 96 -31 133 -95 133c-63 0 -95 -37 -95 -133c0 -97 32 -134 95 -134z" />
    <glyph glyph-name="foursuperior" unicode="&#x2074;" horiz-adv-x="254" 
d="M191 520h31c6 0 11 -5 11 -11s-5 -11 -11 -11h-31v-64c0 -7 -5 -12 -12 -12s-12 5 -12 12v64h-137c-6 0 -11 5 -11 11c0 4 1 6 3 9l146 202c2 3 5 7 11 7c7 0 12 -5 12 -12v-195zM50 520h117v161z" />
    <glyph glyph-name="fivesuperior" unicode="&#x2075;" horiz-adv-x="261" 
d="M130 617c58 0 107 -29 107 -99c0 -65 -43 -99 -107 -99c-58 0 -94 33 -109 62c-1 2 -2 5 -2 7c0 6 4 10 10 10c5 0 7 -2 9 -5c19 -31 45 -52 92 -52c51 0 81 23 81 77c0 48 -30 77 -81 77c-30 0 -51 -4 -77 -27c-2 -2 -5 -4 -10 -4c-6 0 -11 5 -11 11c0 0 0 2 1 6l25 132
c1 5 5 9 11 9h146c6 0 11 -5 11 -11s-5 -11 -11 -11h-138l-20 -106c15 13 36 23 73 23z" />
    <glyph glyph-name="sixsuperior" unicode="&#x2076;" horiz-adv-x="266" 
d="M134 613c61 0 109 -31 109 -97c0 -68 -50 -97 -109 -97c-80 0 -110 62 -110 148c0 115 50 163 117 163c34 0 63 -14 74 -24c3 -3 4 -5 4 -9c0 -6 -4 -10 -10 -10c-3 0 -5 1 -8 3c-18 12 -34 18 -60 18c-58 0 -93 -39 -93 -146c8 20 36 51 86 51zM134 441
c51 0 83 22 83 75c0 49 -32 75 -83 75c-35 0 -68 -19 -82 -60c0 -45 28 -90 82 -90z" />
    <glyph glyph-name="sevensuperior" unicode="&#x2077;" horiz-adv-x="224" 
d="M56 433c0 165 131 172 131 267h-163c-6 0 -11 5 -11 11s5 11 11 11h176c6 0 11 -5 11 -11c0 -128 -131 -114 -131 -278c0 -7 -5 -12 -12 -12s-12 5 -12 12z" />
    <glyph glyph-name="eightsuperior" unicode="&#x2078;" horiz-adv-x="256" 
d="M128 419c-63 0 -107 30 -107 88c0 47 30 72 66 79c-27 8 -53 27 -53 68c0 50 42 76 94 76s94 -26 94 -76c0 -41 -26 -60 -53 -68c36 -7 66 -32 66 -79c0 -58 -44 -88 -107 -88zM128 708c-46 0 -70 -17 -70 -54c0 -39 25 -56 70 -56s70 17 70 56c0 37 -24 54 -70 54z
M128 574c-47 0 -83 -17 -83 -67c0 -48 36 -66 83 -66s83 18 83 66c0 50 -36 67 -83 67z" />
    <glyph glyph-name="ninesuperior" unicode="&#x2079;" horiz-adv-x="266" 
d="M132 536c-61 0 -109 31 -109 97c0 68 50 97 109 97c80 0 110 -62 110 -148c0 -115 -50 -163 -117 -163c-34 0 -63 14 -74 24c-3 3 -4 5 -4 9c0 6 4 10 10 10c3 0 5 -1 8 -3c18 -12 34 -18 60 -18c58 0 93 39 93 146c-8 -20 -36 -51 -86 -51zM132 708
c-51 0 -83 -22 -83 -75c0 -49 32 -75 83 -75c35 0 68 19 82 60c0 45 -28 90 -82 90z" />
    <glyph glyph-name="zeroinferior" unicode="&#x2080;" horiz-adv-x="288" 
d="M144 254c76 0 121 -45 121 -155s-45 -156 -121 -156c-75 0 -121 46 -121 156s46 155 121 155zM144 -35c64 0 95 37 95 134c0 96 -31 133 -95 133c-63 0 -95 -37 -95 -133c0 -97 32 -134 95 -134z" />
    <glyph glyph-name="oneinferior" unicode="&#x2081;" horiz-adv-x="174" 
d="M97 219l-57 -39c-3 -2 -5 -3 -9 -3c-6 0 -11 5 -11 11c0 3 1 8 6 11l73 50c3 2 6 4 10 4c7 0 12 -5 12 -12v-281c0 -7 -5 -12 -12 -12s-12 5 -12 12v259z" />
    <glyph glyph-name="twoinferior" unicode="&#x2082;" horiz-adv-x="259" 
d="M36 194c13 36 48 60 92 60c67 0 105 -36 105 -88c0 -112 -183 -116 -183 -195h170c6 0 11 -5 11 -11s-5 -11 -11 -11h-185c-6 0 -11 5 -11 11c0 116 183 102 183 206c0 36 -22 66 -79 66c-40 0 -59 -19 -72 -48c-2 -5 -6 -7 -10 -7c-6 0 -11 5 -11 11c0 0 0 3 1 6z" />
    <glyph glyph-name="threeinferior" unicode="&#x2083;" horiz-adv-x="257" 
d="M126 131h12c70 0 95 -47 95 -94c0 -56 -34 -94 -110 -94c-49 0 -82 20 -97 50c-2 4 -3 7 -3 9c0 6 4 10 10 10c5 0 7 -2 9 -5c17 -29 40 -42 81 -42c58 0 84 22 84 72c0 46 -19 72 -81 72h-21c-6 0 -11 5 -11 11c0 3 1 6 4 9l87 97h-136c-6 0 -11 5 -11 11s5 11 11 11
h159c6 0 11 -5 11 -11c0 -4 -2 -7 -4 -9z" />
    <glyph glyph-name="fourinferior" unicode="&#x2084;" horiz-adv-x="254" 
d="M191 46h31c6 0 11 -5 11 -11s-5 -11 -11 -11h-31v-64c0 -7 -5 -12 -12 -12s-12 5 -12 12v64h-137c-6 0 -11 5 -11 11c0 4 1 6 3 9l146 202c2 3 5 7 11 7c7 0 12 -5 12 -12v-195zM50 46h117v161z" />
    <glyph glyph-name="fiveinferior" unicode="&#x2085;" horiz-adv-x="261" 
d="M130 141c58 0 107 -29 107 -99c0 -65 -43 -99 -107 -99c-58 0 -94 33 -109 62c-1 2 -2 5 -2 7c0 6 4 10 10 10c5 0 7 -2 9 -5c19 -31 45 -52 92 -52c51 0 81 23 81 77c0 48 -30 77 -81 77c-30 0 -51 -4 -77 -27c-2 -2 -5 -4 -10 -4c-6 0 -11 5 -11 11c0 0 0 2 1 6l25 132
c1 5 5 9 11 9h146c6 0 11 -5 11 -11s-5 -11 -11 -11h-138l-20 -106c15 13 36 23 73 23z" />
    <glyph glyph-name="sixinferior" unicode="&#x2086;" horiz-adv-x="266" 
d="M134 137c61 0 109 -31 109 -97c0 -68 -50 -97 -109 -97c-80 0 -110 62 -110 148c0 115 50 163 117 163c34 0 63 -14 74 -24c3 -3 4 -5 4 -9c0 -6 -4 -10 -10 -10c-3 0 -5 1 -8 3c-18 12 -34 18 -60 18c-58 0 -93 -39 -93 -146c8 20 36 51 86 51zM134 -35
c51 0 83 22 83 75c0 49 -32 75 -83 75c-35 0 -68 -19 -82 -60c0 -45 28 -90 82 -90z" />
    <glyph glyph-name="seveninferior" unicode="&#x2087;" horiz-adv-x="224" 
d="M56 -41c0 165 131 172 131 267h-163c-6 0 -11 5 -11 11s5 11 11 11h176c6 0 11 -5 11 -11c0 -128 -131 -114 -131 -278c0 -7 -5 -12 -12 -12s-12 5 -12 12z" />
    <glyph glyph-name="eightinferior" unicode="&#x2088;" horiz-adv-x="256" 
d="M128 -57c-63 0 -107 30 -107 88c0 47 30 72 66 79c-27 8 -53 27 -53 68c0 50 42 76 94 76s94 -26 94 -76c0 -41 -26 -60 -53 -68c36 -7 66 -32 66 -79c0 -58 -44 -88 -107 -88zM128 232c-46 0 -70 -17 -70 -54c0 -39 25 -56 70 -56s70 17 70 56c0 37 -24 54 -70 54z
M128 98c-47 0 -83 -17 -83 -67c0 -48 36 -66 83 -66s83 18 83 66c0 50 -36 67 -83 67z" />
    <glyph glyph-name="nineinferior" unicode="&#x2089;" horiz-adv-x="266" 
d="M132 60c-61 0 -109 31 -109 97c0 68 50 97 109 97c80 0 110 -62 110 -148c0 -115 -50 -163 -117 -163c-34 0 -63 14 -74 24c-3 3 -4 5 -4 9c0 6 4 10 10 10c3 0 5 -1 8 -3c18 -12 34 -18 60 -18c58 0 93 39 93 146c-8 -20 -36 -51 -86 -51zM132 232
c-51 0 -83 -22 -83 -75c0 -49 32 -75 83 -75c35 0 68 19 82 60c0 45 -28 90 -82 90z" />
    <glyph glyph-name="AEmacron" unicode="&#x1e2;" horiz-adv-x="854" 
d="M799 0h-351c-9 0 -16 7 -16 16v198h-252l-136 -214c-4 -6 -9 -8 -14 -8c-9 0 -16 7 -16 16c0 3 1 7 4 11l414 643c5 7 9 11 19 11h336c8 0 14 -6 14 -14s-6 -14 -14 -14h-323v-292h252c8 0 14 -6 14 -14s-6 -14 -14 -14h-252v-297h335c8 0 14 -6 14 -14s-6 -14 -14 -14z
M197 243h235v368zM661 763c0 -7 -6 -13 -13 -13h-210c-7 0 -13 6 -13 13s6 13 13 13h210c7 0 13 -6 13 -13z" />
    <glyph glyph-name="aemacron" unicode="&#x1e3;" horiz-adv-x="800" 
d="M228 442c-81 0 -113 -36 -137 -73c-3 -5 -8 -7 -12 -7c-8 0 -14 6 -14 14c0 3 1 6 3 9c26 42 76 83 160 83c101 0 153 -44 168 -114c25 73 92 114 181 114c166 0 188 -116 188 -183c0 -11 0 -25 -2 -37c-2 -11 -9 -16 -22 -16h-338c0 -144 62 -219 185 -219
c75 0 112 26 141 50c3 2 5 3 8 3c7 0 13 -6 13 -13c0 -5 -3 -8 -6 -11c-16 -15 -64 -55 -156 -55c-97 0 -167 41 -193 124c-27 -86 -100 -123 -185 -123c-112 0 -176 45 -176 133s72 136 196 136h145v55c0 85 -55 130 -147 130zM210 14c87 0 165 51 165 144v74h-154
c-90 0 -157 -34 -157 -111c0 -69 49 -107 146 -107zM737 285c0 80 -32 157 -160 157c-109 0 -174 -65 -174 -185h333s1 18 1 28zM507 567c0 -7 -6 -13 -13 -13h-210c-7 0 -13 6 -13 13s6 13 13 13h210c7 0 13 -6 13 -13z" />
    <glyph glyph-name="a.salt" horiz-adv-x="506" 
d="M243 468c88 0 147 -29 175 -92v72c0 8 6 14 14 14s14 -6 14 -14v-442c0 -8 -6 -14 -14 -14s-14 6 -14 14v83c-29 -64 -83 -102 -175 -102c-128 0 -203 77 -203 241s75 240 203 240zM243 13c112 0 176 67 176 215c0 151 -58 214 -176 214c-113 0 -173 -66 -173 -214
c0 -150 60 -215 173 -215z" />
    <glyph glyph-name="aacute.salt" horiz-adv-x="506" 
d="M243 468c88 0 147 -29 175 -92v72c0 8 6 14 14 14s14 -6 14 -14v-442c0 -8 -6 -14 -14 -14s-14 6 -14 14v83c-29 -64 -83 -102 -175 -102c-128 0 -203 77 -203 241s75 240 203 240zM243 13c112 0 176 67 176 215c0 151 -58 214 -176 214c-113 0 -173 -66 -173 -214
c0 -150 60 -215 173 -215zM326 657c7 -6 8 -15 1 -22l-104 -112c-6 -7 -12 -5 -16 -1c-5 5 -7 10 -2 16l99 118c6 7 14 8 22 1z" />
    <glyph glyph-name="abreve.salt" horiz-adv-x="506" 
d="M243 468c88 0 147 -29 175 -92v72c0 8 6 14 14 14s14 -6 14 -14v-442c0 -8 -6 -14 -14 -14s-14 6 -14 14v83c-29 -64 -83 -102 -175 -102c-128 0 -203 77 -203 241s75 240 203 240zM243 13c112 0 176 67 176 215c0 151 -58 214 -176 214c-113 0 -173 -66 -173 -214
c0 -150 60 -215 173 -215zM254 531c-55 0 -105 26 -105 96c0 7 6 13 13 13s13 -6 13 -13c0 -49 27 -72 79 -72s79 23 79 72c0 7 6 13 13 13s13 -6 13 -13c0 -70 -50 -96 -105 -96z" />
    <glyph glyph-name="acircumflex.salt" horiz-adv-x="506" 
d="M243 468c88 0 147 -29 175 -92v72c0 8 6 14 14 14s14 -6 14 -14v-442c0 -8 -6 -14 -14 -14s-14 6 -14 14v83c-29 -64 -83 -102 -175 -102c-128 0 -203 77 -203 241s75 240 203 240zM243 13c112 0 176 67 176 215c0 151 -58 214 -176 214c-113 0 -173 -66 -173 -214
c0 -150 60 -215 173 -215zM345 537l-93 84l-93 -84c-2 -2 -5 -4 -9 -4c-7 0 -13 6 -13 13c0 5 3 8 5 10l99 89c3 3 7 5 11 5s8 -2 11 -5l99 -89c2 -2 5 -5 5 -10c0 -7 -6 -13 -13 -13c-4 0 -7 2 -9 4z" />
    <glyph glyph-name="adieresis.salt" horiz-adv-x="507" 
d="M243 468c88 0 147 -29 175 -92v72c0 8 6 14 14 14s14 -6 14 -14v-442c0 -8 -6 -14 -14 -14s-14 6 -14 14v83c-29 -64 -83 -102 -175 -102c-128 0 -203 77 -203 241s75 240 203 240zM243 13c112 0 176 67 176 215c0 151 -58 214 -176 214c-113 0 -173 -66 -173 -214
c0 -150 60 -215 173 -215zM173 544c-15 0 -22 7 -22 23s7 23 22 23s22 -7 22 -23s-7 -23 -22 -23zM333 544c-15 0 -22 7 -22 23s7 23 22 23s22 -7 22 -23s-7 -23 -22 -23z" />
    <glyph glyph-name="agrave.salt" horiz-adv-x="506" 
d="M243 468c88 0 147 -29 175 -92v72c0 8 6 14 14 14s14 -6 14 -14v-442c0 -8 -6 -14 -14 -14s-14 6 -14 14v83c-29 -64 -83 -102 -175 -102c-128 0 -203 77 -203 241s75 240 203 240zM243 13c112 0 176 67 176 215c0 151 -58 214 -176 214c-113 0 -173 -66 -173 -214
c0 -150 60 -215 173 -215zM193 657c8 7 16 6 22 -1l99 -118c5 -6 3 -11 -2 -16c-4 -4 -10 -6 -16 1l-104 112c-7 7 -6 16 1 22z" />
    <glyph glyph-name="amacron.salt" horiz-adv-x="506" 
d="M243 468c88 0 147 -29 175 -92v72c0 8 6 14 14 14s14 -6 14 -14v-442c0 -8 -6 -14 -14 -14s-14 6 -14 14v83c-29 -64 -83 -102 -175 -102c-128 0 -203 77 -203 241s75 240 203 240zM243 13c112 0 176 67 176 215c0 151 -58 214 -176 214c-113 0 -173 -66 -173 -214
c0 -150 60 -215 173 -215zM369 567c0 -7 -6 -13 -13 -13h-210c-7 0 -13 6 -13 13s6 13 13 13h210c7 0 13 -6 13 -13z" />
    <glyph glyph-name="aogonek.salt" horiz-adv-x="506" 
d="M243 468c88 0 147 -29 175 -92v72c0 8 6 14 14 14s14 -6 14 -14v-442c0 -6 -3 -10 -9 -13c-45 -23 -66 -59 -66 -94c0 -30 15 -54 65 -54c22 0 32 3 45 9c2 1 4 2 7 2c6 0 11 -5 11 -11c0 -5 -3 -8 -6 -10c-16 -9 -36 -14 -59 -14c-66 0 -88 35 -88 73c0 41 23 79 72 104
v91c-29 -64 -83 -102 -175 -102c-128 0 -203 77 -203 241s75 240 203 240zM243 13c112 0 176 67 176 215c0 151 -58 214 -176 214c-113 0 -173 -66 -173 -214c0 -150 60 -215 173 -215z" />
    <glyph glyph-name="aring.salt" horiz-adv-x="506" 
d="M243 468c88 0 147 -29 175 -92v72c0 8 6 14 14 14s14 -6 14 -14v-442c0 -8 -6 -14 -14 -14s-14 6 -14 14v83c-29 -64 -83 -102 -175 -102c-128 0 -203 77 -203 241s75 240 203 240zM243 13c112 0 176 67 176 215c0 151 -58 214 -176 214c-113 0 -173 -66 -173 -214
c0 -150 60 -215 173 -215zM248 698c71 0 104 -37 104 -98s-33 -98 -104 -98s-104 37 -104 98s33 98 104 98zM248 524c55 0 78 24 78 76s-23 76 -78 76s-78 -24 -78 -76s23 -76 78 -76z" />
    <glyph glyph-name="aringacute.salt" horiz-adv-x="506" 
d="M243 468c88 0 147 -29 175 -92v72c0 8 6 14 14 14s14 -6 14 -14v-442c0 -8 -6 -14 -14 -14s-14 6 -14 14v83c-29 -64 -83 -102 -175 -102c-128 0 -203 77 -203 241s75 240 203 240zM243 13c112 0 176 67 176 215c0 151 -58 214 -176 214c-113 0 -173 -66 -173 -214
c0 -150 60 -215 173 -215zM242 685c71 0 104 -37 104 -98s-33 -98 -104 -98s-104 37 -104 98s33 98 104 98zM242 511c55 0 78 24 78 76s-23 76 -78 76s-78 -24 -78 -76s23 -76 78 -76zM294 837c7 -6 8 -15 1 -22l-104 -112c-6 -7 -12 -5 -16 -1c-5 5 -7 10 -2 16l99 118
c6 7 14 8 22 1z" />
    <glyph glyph-name="atilde.salt" horiz-adv-x="506" 
d="M243 468c88 0 147 -29 175 -92v72c0 8 6 14 14 14s14 -6 14 -14v-442c0 -8 -6 -14 -14 -14s-14 6 -14 14v83c-29 -64 -83 -102 -175 -102c-128 0 -203 77 -203 241s75 240 203 240zM243 13c112 0 176 67 176 215c0 151 -58 214 -176 214c-113 0 -173 -66 -173 -214
c0 -150 60 -215 173 -215zM317 535c-57 0 -83 43 -132 43c-30 0 -42 -17 -51 -37c-2 -5 -7 -8 -12 -8c-7 0 -13 6 -13 13c0 3 1 6 2 8c9 21 31 50 74 50c57 0 83 -43 132 -43c32 0 43 19 51 39c2 5 7 8 12 8c7 0 13 -6 13 -13c0 -3 -1 -6 -2 -8c-9 -20 -31 -52 -74 -52z" />
    <glyph glyph-name="ae" unicode="&#xe6;" horiz-adv-x="800" 
d="M228 442c-81 0 -113 -36 -137 -73c-3 -5 -8 -7 -12 -7c-8 0 -14 6 -14 14c0 3 1 6 3 9c26 42 76 83 160 83c101 0 153 -44 168 -114c25 73 92 114 181 114c166 0 188 -116 188 -183c0 -11 0 -25 -2 -37c-2 -11 -9 -16 -22 -16h-338c0 -144 62 -219 185 -219
c75 0 112 26 141 50c3 2 5 3 8 3c7 0 13 -6 13 -13c0 -5 -3 -8 -6 -11c-16 -15 -64 -55 -156 -55c-97 0 -167 41 -193 124c-27 -86 -100 -123 -185 -123c-112 0 -176 45 -176 133s72 136 196 136h145v55c0 85 -55 130 -147 130zM210 14c87 0 165 51 165 144v74h-154
c-90 0 -156 -34 -156 -111c0 -69 48 -107 145 -107zM736 285c0 80 -31 157 -159 157c-109 0 -174 -65 -174 -185h332s1 18 1 28z" />
    <glyph glyph-name="agrave" unicode="&#xe0;" horiz-adv-x="463" 
d="M228 442c-81 0 -113 -36 -137 -73c-3 -5 -8 -7 -12 -7c-8 0 -14 6 -14 14c0 3 1 6 3 9c26 42 76 83 160 83c123 0 175 -66 175 -165v-296c0 -8 -6 -14 -14 -14s-14 6 -14 14v59c-33 -53 -98 -78 -165 -78c-112 0 -174 50 -174 138s71 139 185 139h154v46
c0 85 -55 131 -147 131zM210 14c87 0 165 47 165 141v85h-154c-90 0 -154 -37 -154 -114c0 -69 46 -112 143 -112zM172 657c8 7 16 6 22 -1l99 -118c5 -6 3 -11 -2 -16c-4 -4 -10 -6 -16 1l-104 112c-7 7 -6 16 1 22z" />
    <glyph glyph-name="acircumflex" unicode="&#xe2;" horiz-adv-x="463" 
d="M228 442c-81 0 -113 -36 -137 -73c-3 -5 -8 -7 -12 -7c-8 0 -14 6 -14 14c0 3 1 6 3 9c26 42 76 83 160 83c123 0 175 -66 175 -165v-296c0 -8 -6 -14 -14 -14s-14 6 -14 14v59c-33 -53 -98 -78 -165 -78c-112 0 -174 50 -174 138s71 139 185 139h154v46
c0 85 -55 131 -147 131zM210 14c87 0 165 47 165 141v85h-154c-90 0 -154 -37 -154 -114c0 -69 46 -112 143 -112zM331 537l-93 84l-93 -84c-2 -2 -5 -4 -9 -4c-7 0 -13 6 -13 13c0 5 3 8 5 10l99 89c3 3 7 5 11 5s8 -2 11 -5l99 -89c2 -2 5 -5 5 -10c0 -7 -6 -13 -13 -13
c-4 0 -7 2 -9 4z" />
    <glyph glyph-name="Adieresis" unicode="&#xc4;" horiz-adv-x="616" 
d="M459 243l-151 388l-151 -388h302zM469 214h-322l-83 -211c-2 -6 -8 -11 -16 -11c-9 0 -16 7 -16 16c0 2 1 6 2 8l259 654c2 6 7 11 15 11s14 -5 16 -11l258 -654c1 -2 2 -6 2 -8c0 -9 -7 -16 -17 -16c-8 0 -13 5 -16 12zM228 741c-15 0 -22 7 -22 23s7 23 22 23
s22 -7 22 -23s-7 -23 -22 -23zM388 741c-15 0 -22 7 -22 23s7 23 22 23s22 -7 22 -23s-7 -23 -22 -23z" />
    <glyph glyph-name="Aring" unicode="&#xc5;" horiz-adv-x="616" 
d="M459 243l-151 388l-151 -388h302zM469 214h-322l-83 -211c-2 -6 -8 -11 -16 -11c-9 0 -16 7 -16 16c0 2 1 6 2 8l259 654c2 6 7 11 15 11s14 -5 16 -11l258 -654c1 -2 2 -6 2 -8c0 -9 -7 -16 -17 -16c-8 0 -13 5 -16 12zM308 899c71 0 104 -37 104 -98s-33 -98 -104 -98
s-104 37 -104 98s33 98 104 98zM308 725c55 0 78 24 78 76s-23 76 -78 76s-78 -24 -78 -76s23 -76 78 -76z" />
    <glyph glyph-name="adieresis" unicode="&#xe4;" horiz-adv-x="463" 
d="M228 442c-81 0 -113 -36 -137 -73c-3 -5 -8 -7 -12 -7c-8 0 -14 6 -14 14c0 3 1 6 3 9c26 42 76 83 160 83c123 0 175 -66 175 -165v-296c0 -8 -6 -14 -14 -14s-14 6 -14 14v59c-33 -53 -98 -78 -165 -78c-112 0 -174 50 -174 138s71 139 185 139h154v46
c0 85 -55 131 -147 131zM210 14c87 0 165 47 165 141v85h-154c-90 0 -154 -37 -154 -114c0 -69 46 -112 143 -112zM156 544c-15 0 -22 7 -22 23s7 23 22 23s22 -7 22 -23s-7 -23 -22 -23zM316 544c-15 0 -22 7 -22 23s7 23 22 23s22 -7 22 -23s-7 -23 -22 -23z" />
    <glyph glyph-name="atilde" unicode="&#xe3;" horiz-adv-x="463" 
d="M228 442c-81 0 -113 -36 -137 -73c-3 -5 -8 -7 -12 -7c-8 0 -14 6 -14 14c0 3 1 6 3 9c26 42 76 83 160 83c123 0 175 -66 175 -165v-296c0 -8 -6 -14 -14 -14s-14 6 -14 14v59c-33 -53 -98 -78 -165 -78c-112 0 -174 50 -174 138s71 139 185 139h154v46
c0 85 -55 131 -147 131zM210 14c87 0 165 47 165 141v85h-154c-90 0 -154 -37 -154 -114c0 -69 46 -112 143 -112zM296 535c-57 0 -83 43 -132 43c-30 0 -42 -17 -51 -37c-2 -5 -7 -8 -12 -8c-7 0 -13 6 -13 13c0 3 1 6 2 8c9 21 31 50 74 50c57 0 83 -43 132 -43
c32 0 43 19 51 39c2 5 7 8 12 8c7 0 13 -6 13 -13c0 -3 -1 -6 -2 -8c-9 -20 -31 -52 -74 -52z" />
    <glyph glyph-name="aring" unicode="&#xe5;" horiz-adv-x="463" 
d="M228 442c-81 0 -113 -36 -137 -73c-3 -5 -8 -7 -12 -7c-8 0 -14 6 -14 14c0 3 1 6 3 9c26 42 76 83 160 83c123 0 175 -66 175 -165v-296c0 -8 -6 -14 -14 -14s-14 6 -14 14v59c-33 -53 -98 -78 -165 -78c-112 0 -174 50 -174 138s71 139 185 139h154v46
c0 85 -55 131 -147 131zM210 14c87 0 165 47 165 141v85h-154c-90 0 -154 -37 -154 -114c0 -69 46 -112 143 -112zM230 698c71 0 104 -37 104 -98s-33 -98 -104 -98s-104 37 -104 98s33 98 104 98zM230 524c55 0 78 24 78 76s-23 76 -78 76s-78 -24 -78 -76s23 -76 78 -76z
" />
    <glyph glyph-name="Ccedilla" unicode="&#xc7;" horiz-adv-x="622" 
d="M448 -139c0 -49 -32 -85 -92 -85c-28 0 -51 9 -61 18c-2 2 -3 5 -3 7c0 6 4 10 9 10c3 0 5 -1 8 -3c11 -7 25 -14 47 -14c45 0 68 23 68 67c0 48 -29 63 -60 63c-20 0 -31 -6 -37 -6s-11 5 -11 11l3 59c-173 11 -275 115 -275 348c0 237 115 351 308 351
c95 0 177 -41 222 -104c2 -3 4 -7 4 -11c0 -8 -6 -14 -14 -14c-4 0 -8 1 -12 6c-40 54 -113 95 -200 95c-176 0 -276 -101 -276 -323c0 -235 100 -322 276 -322c76 0 153 30 200 93c4 5 8 6 12 6c8 0 14 -6 14 -14c0 -2 -1 -6 -3 -9c-43 -65 -130 -104 -223 -104h-13l-4 -48
s13 4 29 4c51 0 84 -28 84 -81z" />
    <glyph glyph-name="Eacute" unicode="&#xc9;" horiz-adv-x="512" 
d="M457 0h-351c-9 0 -16 7 -16 16v641c0 9 7 16 16 16h339c8 0 14 -6 14 -14s-6 -14 -14 -14h-323v-292h252c8 0 14 -6 14 -14s-6 -14 -14 -14h-252v-297h335c8 0 14 -6 14 -14s-6 -14 -14 -14zM353 860c7 -6 8 -15 1 -22l-104 -112c-6 -7 -12 -5 -16 -1c-5 5 -7 10 -2 16
l99 118c6 7 14 8 22 1z" />
    <glyph glyph-name="Ntilde" unicode="&#xd1;" horiz-adv-x="621" 
d="M526 681c8 0 15 -7 15 -15v-658c0 -9 -7 -16 -16 -16c-7 0 -11 3 -15 9l-400 616v-610c0 -8 -7 -15 -15 -15s-15 7 -15 15v659c0 8 7 15 15 15c6 0 10 -3 12 -6l404 -620v611c0 8 7 15 15 15zM387 731c-57 0 -83 43 -132 43c-30 0 -42 -17 -51 -37c-2 -5 -7 -8 -12 -8
c-7 0 -13 6 -13 13c0 3 1 6 2 8c9 21 31 50 74 50c57 0 83 -43 132 -43c32 0 43 19 51 39c2 5 7 8 12 8c7 0 13 -6 13 -13c0 -3 -1 -6 -2 -8c-9 -20 -31 -52 -74 -52z" />
    <glyph glyph-name="Odieresis" unicode="&#xd6;" horiz-adv-x="704" 
d="M352 -14c-193 0 -308 114 -308 350c0 237 115 351 308 351s308 -114 308 -351c0 -236 -115 -350 -308 -350zM352 659c-176 0 -276 -101 -276 -323c0 -221 100 -322 276 -322s276 101 276 322c0 222 -100 323 -276 323zM272 741c-15 0 -22 7 -22 23s7 23 22 23
s22 -7 22 -23s-7 -23 -22 -23zM432 741c-15 0 -22 7 -22 23s7 23 22 23s22 -7 22 -23s-7 -23 -22 -23z" />
    <glyph glyph-name="Udieresis" unicode="&#xdc;" horiz-adv-x="627" 
d="M319 -14c-184 0 -229 106 -229 212v467c0 9 7 16 16 16s16 -7 16 -16v-467c0 -93 35 -184 197 -184s196 91 196 184v467c0 9 7 16 16 16s16 -7 16 -16v-467c0 -106 -44 -212 -228 -212zM239 741c-15 0 -22 7 -22 23s7 23 22 23s22 -7 22 -23s-7 -23 -22 -23zM399 741
c-15 0 -22 7 -22 23s7 23 22 23s22 -7 22 -23s-7 -23 -22 -23z" />
    <glyph glyph-name="eacute" unicode="&#xe9;" 
d="M40 228c0 155 76 240 204 240c166 0 188 -124 188 -191c0 -11 0 -25 -2 -37c-2 -11 -9 -16 -22 -16h-337c0 -144 67 -211 184 -211c75 0 112 26 141 50c3 2 5 3 8 3c7 0 13 -6 13 -13c0 -5 -3 -8 -6 -11c-16 -15 -64 -55 -156 -55c-133 0 -215 72 -215 241zM403 277
c0 80 -31 165 -159 165c-113 0 -169 -74 -173 -193h331s1 20 1 28zM320 657c7 -6 8 -15 1 -22l-104 -112c-6 -7 -12 -5 -16 -1c-5 5 -7 10 -2 16l99 118c6 7 14 8 22 1z" />
    <glyph glyph-name="egrave" unicode="&#xe8;" 
d="M40 228c0 155 76 240 204 240c166 0 188 -124 188 -191c0 -11 0 -25 -2 -37c-2 -11 -9 -16 -22 -16h-337c0 -144 67 -211 184 -211c75 0 112 26 141 50c3 2 5 3 8 3c7 0 13 -6 13 -13c0 -5 -3 -8 -6 -11c-16 -15 -64 -55 -156 -55c-133 0 -215 72 -215 241zM403 277
c0 80 -31 165 -159 165c-113 0 -169 -74 -173 -193h331s1 20 1 28zM175 657c8 7 16 6 22 -1l99 -118c5 -6 3 -11 -2 -16c-4 -4 -10 -6 -16 1l-104 112c-7 7 -6 16 1 22z" />
    <glyph glyph-name="ecircumflex" unicode="&#xea;" 
d="M40 228c0 155 76 240 204 240c166 0 188 -124 188 -191c0 -11 0 -25 -2 -37c-2 -11 -9 -16 -22 -16h-337c0 -144 67 -211 184 -211c75 0 112 26 141 50c3 2 5 3 8 3c7 0 13 -6 13 -13c0 -5 -3 -8 -6 -11c-16 -15 -64 -55 -156 -55c-133 0 -215 72 -215 241zM403 277
c0 80 -31 165 -159 165c-113 0 -169 -74 -173 -193h331s1 20 1 28zM341 537l-93 84l-93 -84c-2 -2 -5 -4 -9 -4c-7 0 -13 6 -13 13c0 5 3 8 5 10l99 89c3 3 7 5 11 5s8 -2 11 -5l99 -89c2 -2 5 -5 5 -10c0 -7 -6 -13 -13 -13c-4 0 -7 2 -9 4z" />
    <glyph glyph-name="edieresis" unicode="&#xeb;" 
d="M40 228c0 155 76 240 204 240c166 0 188 -124 188 -191c0 -11 0 -25 -2 -37c-2 -11 -9 -16 -22 -16h-337c0 -144 67 -211 184 -211c75 0 112 26 141 50c3 2 5 3 8 3c7 0 13 -6 13 -13c0 -5 -3 -8 -6 -11c-16 -15 -64 -55 -156 -55c-133 0 -215 72 -215 241zM403 277
c0 80 -31 165 -159 165c-113 0 -169 -74 -173 -193h331s1 20 1 28zM171 544c-15 0 -22 7 -22 23s7 23 22 23s22 -7 22 -23s-7 -23 -22 -23zM331 544c-15 0 -22 7 -22 23s7 23 22 23s22 -7 22 -23s-7 -23 -22 -23z" />
    <glyph glyph-name="ntilde" unicode="&#xf1;" horiz-adv-x="496" 
d="M89 -8c-8 0 -15 7 -15 15v440c0 8 7 15 15 15s15 -7 15 -15v-75c15 40 63 96 157 96c144 0 179 -85 179 -177v-284c0 -8 -7 -15 -15 -15s-15 7 -15 15v284c0 81 -28 151 -150 151c-109 0 -156 -83 -156 -161v-274c0 -8 -7 -15 -15 -15zM314 535c-57 0 -83 43 -132 43
c-30 0 -42 -17 -51 -37c-2 -5 -7 -8 -12 -8c-7 0 -13 6 -13 13c0 3 1 6 2 8c9 21 31 50 74 50c57 0 83 -43 132 -43c32 0 43 19 51 39c2 5 7 8 12 8c7 0 13 -6 13 -13c0 -3 -1 -6 -2 -8c-9 -20 -31 -52 -74 -52z" />
    <glyph glyph-name="uacute" unicode="&#xfa;" horiz-adv-x="486" 
d="M75 462c8 0 15 -7 15 -15v-282c0 -82 26 -152 153 -152s153 70 153 152v282c0 8 7 15 15 15s15 -7 15 -15v-282c0 -93 -32 -178 -183 -178s-183 85 -183 178v282c0 8 7 15 15 15zM313 657c7 -6 8 -15 1 -22l-104 -112c-6 -7 -12 -5 -16 -1c-5 5 -7 10 -2 16l99 118
c6 7 14 8 22 1z" />
    <glyph glyph-name="ugrave" unicode="&#xf9;" horiz-adv-x="486" 
d="M75 462c8 0 15 -7 15 -15v-282c0 -82 26 -152 153 -152s153 70 153 152v282c0 8 7 15 15 15s15 -7 15 -15v-282c0 -93 -32 -178 -183 -178s-183 85 -183 178v282c0 8 7 15 15 15zM172 657c8 7 16 6 22 -1l99 -118c5 -6 3 -11 -2 -16c-4 -4 -10 -6 -16 1l-104 112
c-7 7 -6 16 1 22z" />
    <glyph glyph-name="ucircumflex" unicode="&#xfb;" horiz-adv-x="486" 
d="M75 462c8 0 15 -7 15 -15v-282c0 -82 26 -152 153 -152s153 70 153 152v282c0 8 7 15 15 15s15 -7 15 -15v-282c0 -93 -32 -178 -183 -178s-183 85 -183 178v282c0 8 7 15 15 15zM340 537l-93 84l-93 -84c-2 -2 -5 -4 -9 -4c-7 0 -13 6 -13 13c0 5 3 8 5 10l99 89
c3 3 7 5 11 5s8 -2 11 -5l99 -89c2 -2 5 -5 5 -10c0 -7 -6 -13 -13 -13c-4 0 -7 2 -9 4z" />
    <glyph glyph-name="udieresis" unicode="&#xfc;" horiz-adv-x="486" 
d="M75 462c8 0 15 -7 15 -15v-282c0 -82 26 -152 153 -152s153 70 153 152v282c0 8 7 15 15 15s15 -7 15 -15v-282c0 -93 -32 -178 -183 -178s-183 85 -183 178v282c0 8 7 15 15 15zM163 544c-15 0 -22 7 -22 23s7 23 22 23s22 -7 22 -23s-7 -23 -22 -23zM323 544
c-15 0 -22 7 -22 23s7 23 22 23s22 -7 22 -23s-7 -23 -22 -23z" />
    <glyph glyph-name="cent" unicode="&#xa2;" horiz-adv-x="440" 
d="M40 228c0 157 70 233 190 239v68c0 8 6 14 14 14s14 -6 14 -14v-68c94 -5 132 -57 139 -66c2 -3 3 -6 3 -9c0 -7 -6 -13 -13 -13c-5 0 -8 2 -11 6c-17 20 -50 57 -132 57c-113 0 -174 -66 -174 -214c0 -150 61 -215 174 -215c69 0 107 29 133 49c3 2 5 3 8 3
c7 0 13 -6 13 -13c0 -3 -1 -7 -6 -11c-19 -15 -62 -49 -134 -53v-81c0 -8 -6 -14 -14 -14s-14 6 -14 14v81c-120 6 -190 82 -190 240z" />
    <glyph glyph-name="dotlessi" unicode="&#x131;" horiz-adv-x="175" 
d="M90 462c8 0 15 -7 15 -15v-440c0 -8 -7 -15 -15 -15s-15 7 -15 15v440c0 8 7 15 15 15z" />
    <glyph glyph-name="iacute" unicode="&#xed;" horiz-adv-x="175" 
d="M90 462c8 0 15 -7 15 -15v-440c0 -8 -7 -15 -15 -15s-15 7 -15 15v440c0 8 7 15 15 15zM177 657c7 -6 8 -15 1 -22l-104 -112c-6 -7 -12 -5 -16 -1c-5 5 -7 10 -2 16l99 118c6 7 14 8 22 1z" />
    <glyph glyph-name="igrave" unicode="&#xec;" horiz-adv-x="175" 
d="M90 462c8 0 15 -7 15 -15v-440c0 -8 -7 -15 -15 -15s-15 7 -15 15v440c0 8 7 15 15 15zM7 657c8 7 16 6 22 -1l99 -118c5 -6 3 -11 -2 -16c-4 -4 -10 -6 -16 1l-104 112c-7 7 -6 16 1 22z" />
    <glyph glyph-name="icircumflex" unicode="&#xee;" horiz-adv-x="175" 
d="M90 462c8 0 15 -7 15 -15v-440c0 -8 -7 -15 -15 -15s-15 7 -15 15v440c0 8 7 15 15 15zM181 537l-93 84l-93 -84c-2 -2 -5 -4 -9 -4c-7 0 -13 6 -13 13c0 5 3 8 5 10l99 89c3 3 7 5 11 5s8 -2 11 -5l99 -89c2 -2 5 -5 5 -10c0 -7 -6 -13 -13 -13c-4 0 -7 2 -9 4z" />
    <glyph glyph-name="idieresis" unicode="&#xef;" horiz-adv-x="175" 
d="M90 462c8 0 15 -7 15 -15v-440c0 -8 -7 -15 -15 -15s-15 7 -15 15v440c0 8 7 15 15 15zM10 544c-15 0 -22 7 -22 23s7 23 22 23s22 -7 22 -23s-7 -23 -22 -23zM170 544c-15 0 -22 7 -22 23s7 23 22 23s22 -7 22 -23s-7 -23 -22 -23z" />
    <glyph glyph-name="ydieresis" unicode="&#xff;" horiz-adv-x="428" 
d="M214 38l167 414c1 3 5 10 14 10c8 0 15 -7 15 -15c0 -2 -1 -6 -2 -8l-211 -509c-41 -98 -89 -131 -182 -131c-7 0 -13 6 -13 13s6 13 13 13c109 0 134 55 184 179l-179 435c-1 2 -2 6 -2 8c0 8 7 15 15 15c9 0 13 -7 14 -10zM134 544c-15 0 -22 7 -22 23s7 23 22 23
s22 -7 22 -23s-7 -23 -22 -23zM294 544c-15 0 -22 7 -22 23s7 23 22 23s22 -7 22 -23s-7 -23 -22 -23z" />
    <glyph glyph-name="Ydieresis" unicode="&#x178;" horiz-adv-x="502" 
d="M251 -8c-9 0 -16 7 -16 16v310l-215 336c-2 3 -3 7 -3 10c0 10 7 17 16 17c7 0 12 -3 15 -8l203 -325l202 325c4 6 9 8 14 8c10 0 17 -7 17 -17c0 -3 -1 -7 -3 -10l-214 -336v-310c0 -9 -7 -16 -16 -16zM170 741c-15 0 -22 7 -22 23s7 23 22 23s22 -7 22 -23
s-7 -23 -22 -23zM330 741c-15 0 -22 7 -22 23s7 23 22 23s22 -7 22 -23s-7 -23 -22 -23z" />
    <glyph glyph-name="Agrave" unicode="&#xc0;" horiz-adv-x="616" 
d="M459 243l-151 388l-151 -388h302zM469 214h-322l-83 -211c-2 -6 -8 -11 -16 -11c-9 0 -16 7 -16 16c0 2 1 6 2 8l259 654c2 6 7 11 15 11s14 -5 16 -11l258 -654c1 -2 2 -6 2 -8c0 -9 -7 -16 -17 -16c-8 0 -13 5 -16 12zM231 860c8 7 16 6 22 -1l99 -118
c5 -6 3 -11 -2 -16c-4 -4 -10 -6 -16 1l-104 112c-7 7 -6 16 1 22z" />
    <glyph glyph-name="Atilde" unicode="&#xc3;" horiz-adv-x="616" 
d="M459 243l-151 388l-151 -388h302zM469 214h-322l-83 -211c-2 -6 -8 -11 -16 -11c-9 0 -16 7 -16 16c0 2 1 6 2 8l259 654c2 6 7 11 15 11s14 -5 16 -11l258 -654c1 -2 2 -6 2 -8c0 -9 -7 -16 -17 -16c-8 0 -13 5 -16 12zM373 731c-57 0 -83 43 -132 43
c-30 0 -42 -17 -51 -37c-2 -5 -7 -8 -12 -8c-7 0 -13 6 -13 13c0 3 1 6 2 8c9 21 31 50 74 50c57 0 83 -43 132 -43c32 0 43 19 51 39c2 5 7 8 12 8c7 0 13 -6 13 -13c0 -3 -1 -6 -2 -8c-9 -20 -31 -52 -74 -52z" />
    <glyph glyph-name="Otilde" unicode="&#xd5;" horiz-adv-x="704" 
d="M352 -14c-193 0 -308 114 -308 350c0 237 115 351 308 351s308 -114 308 -351c0 -236 -115 -350 -308 -350zM352 659c-176 0 -276 -101 -276 -323c0 -221 100 -322 276 -322s276 101 276 322c0 222 -100 323 -276 323zM418 731c-57 0 -83 43 -132 43
c-30 0 -42 -17 -51 -37c-2 -5 -7 -8 -12 -8c-7 0 -13 6 -13 13c0 3 1 6 2 8c9 21 31 50 74 50c57 0 83 -43 132 -43c32 0 43 19 51 39c2 5 7 8 12 8c7 0 13 -6 13 -13c0 -3 -1 -6 -2 -8c-9 -20 -31 -52 -74 -52z" />
    <glyph glyph-name="OE" unicode="&#x152;" horiz-adv-x="942" 
d="M887 0h-351c-9 0 -16 7 -16 16v10c-47 -26 -103 -40 -168 -40c-193 0 -308 114 -308 350c0 237 115 351 308 351c65 0 121 -14 168 -40v10c0 9 7 16 16 16h339c8 0 14 -6 14 -14s-6 -14 -14 -14h-323v-292h252c8 0 14 -6 14 -14s-6 -14 -14 -14h-252v-297h335
c8 0 14 -6 14 -14s-6 -14 -14 -14zM352 14c67 0 124 15 168 46v553c-44 31 -101 46 -168 46c-176 0 -276 -101 -276 -323c0 -221 100 -322 276 -322z" />
    <glyph glyph-name="Acircumflex" unicode="&#xc2;" horiz-adv-x="616" 
d="M459 243l-151 388l-151 -388h302zM469 214h-322l-83 -211c-2 -6 -8 -11 -16 -11c-9 0 -16 7 -16 16c0 2 1 6 2 8l259 654c2 6 7 11 15 11s14 -5 16 -11l258 -654c1 -2 2 -6 2 -8c0 -9 -7 -16 -17 -16c-8 0 -13 5 -16 12zM401 729l-93 84l-93 -84c-2 -2 -5 -4 -9 -4
c-7 0 -13 6 -13 13c0 5 3 8 5 10l99 89c3 3 7 5 11 5s8 -2 11 -5l99 -89c2 -2 5 -5 5 -10c0 -7 -6 -13 -13 -13c-4 0 -7 2 -9 4z" />
    <glyph glyph-name="Ecircumflex" unicode="&#xca;" horiz-adv-x="512" 
d="M457 0h-351c-9 0 -16 7 -16 16v641c0 9 7 16 16 16h339c8 0 14 -6 14 -14s-6 -14 -14 -14h-323v-292h252c8 0 14 -6 14 -14s-6 -14 -14 -14h-252v-297h335c8 0 14 -6 14 -14s-6 -14 -14 -14zM374 729l-93 84l-93 -84c-2 -2 -5 -4 -9 -4c-7 0 -13 6 -13 13c0 5 3 8 5 10
l99 89c3 3 7 5 11 5s8 -2 11 -5l99 -89c2 -2 5 -5 5 -10c0 -7 -6 -13 -13 -13c-4 0 -7 2 -9 4z" />
    <glyph glyph-name="Aacute" unicode="&#xc1;" horiz-adv-x="616" 
d="M459 243l-151 388l-151 -388h302zM469 214h-322l-83 -211c-2 -6 -8 -11 -16 -11c-9 0 -16 7 -16 16c0 2 1 6 2 8l259 654c2 6 7 11 15 11s14 -5 16 -11l258 -654c1 -2 2 -6 2 -8c0 -9 -7 -16 -17 -16c-8 0 -13 5 -16 12zM378 860c7 -6 8 -15 1 -22l-104 -112
c-6 -7 -12 -5 -16 -1c-5 5 -7 10 -2 16l99 118c6 7 14 8 22 1z" />
    <glyph glyph-name="Edieresis" unicode="&#xcb;" horiz-adv-x="512" 
d="M457 0h-351c-9 0 -16 7 -16 16v641c0 9 7 16 16 16h339c8 0 14 -6 14 -14s-6 -14 -14 -14h-323v-292h252c8 0 14 -6 14 -14s-6 -14 -14 -14h-252v-297h335c8 0 14 -6 14 -14s-6 -14 -14 -14zM202 741c-15 0 -22 7 -22 23s7 23 22 23s22 -7 22 -23s-7 -23 -22 -23z
M362 741c-15 0 -22 7 -22 23s7 23 22 23s22 -7 22 -23s-7 -23 -22 -23z" />
    <glyph glyph-name="Egrave" unicode="&#xc8;" horiz-adv-x="512" 
d="M457 0h-351c-9 0 -16 7 -16 16v641c0 9 7 16 16 16h339c8 0 14 -6 14 -14s-6 -14 -14 -14h-323v-292h252c8 0 14 -6 14 -14s-6 -14 -14 -14h-252v-297h335c8 0 14 -6 14 -14s-6 -14 -14 -14zM216 860c8 7 16 6 22 -1l99 -118c5 -6 3 -11 -2 -16c-4 -4 -10 -6 -16 1
l-104 112c-7 7 -6 16 1 22z" />
    <glyph glyph-name="Iacute" unicode="&#xcd;" horiz-adv-x="212" 
d="M122 665v-657c0 -9 -7 -16 -16 -16s-16 7 -16 16v657c0 9 7 16 16 16s16 -7 16 -16zM186 860c7 -6 8 -15 1 -22l-104 -112c-6 -7 -12 -5 -16 -1c-5 5 -7 10 -2 16l99 118c6 7 14 8 22 1z" />
    <glyph glyph-name="Icircumflex" unicode="&#xce;" horiz-adv-x="212" 
d="M122 665v-657c0 -9 -7 -16 -16 -16s-16 7 -16 16v657c0 9 7 16 16 16s16 -7 16 -16zM198 729l-93 84l-93 -84c-2 -2 -5 -4 -9 -4c-7 0 -13 6 -13 13c0 5 3 8 5 10l99 89c3 3 7 5 11 5s8 -2 11 -5l99 -89c2 -2 5 -5 5 -10c0 -7 -6 -13 -13 -13c-4 0 -7 2 -9 4z" />
    <glyph glyph-name="Idieresis" unicode="&#xcf;" horiz-adv-x="212" 
d="M122 665v-657c0 -9 -7 -16 -16 -16s-16 7 -16 16v657c0 9 7 16 16 16s16 -7 16 -16zM25 741c-15 0 -22 7 -22 23s7 23 22 23s22 -7 22 -23s-7 -23 -22 -23zM185 741c-15 0 -22 7 -22 23s7 23 22 23s22 -7 22 -23s-7 -23 -22 -23z" />
    <glyph glyph-name="Igrave" unicode="&#xcc;" horiz-adv-x="212" 
d="M122 665v-657c0 -9 -7 -16 -16 -16s-16 7 -16 16v657c0 9 7 16 16 16s16 -7 16 -16zM32 860c8 7 16 6 22 -1l99 -118c5 -6 3 -11 -2 -16c-4 -4 -10 -6 -16 1l-104 112c-7 7 -6 16 1 22z" />
    <glyph glyph-name="Oacute" unicode="&#xd3;" horiz-adv-x="704" 
d="M352 -14c-193 0 -308 114 -308 350c0 237 115 351 308 351s308 -114 308 -351c0 -236 -115 -350 -308 -350zM352 659c-176 0 -276 -101 -276 -323c0 -221 100 -322 276 -322s276 101 276 322c0 222 -100 323 -276 323zM434 860c7 -6 8 -15 1 -22l-104 -112
c-6 -7 -12 -5 -16 -1c-5 5 -7 10 -2 16l99 118c6 7 14 8 22 1z" />
    <glyph glyph-name="Ocircumflex" unicode="&#xd4;" horiz-adv-x="704" 
d="M352 -14c-193 0 -308 114 -308 350c0 237 115 351 308 351s308 -114 308 -351c0 -236 -115 -350 -308 -350zM352 659c-176 0 -276 -101 -276 -323c0 -221 100 -322 276 -322s276 101 276 322c0 222 -100 323 -276 323zM445 729l-93 84l-93 -84c-2 -2 -5 -4 -9 -4
c-7 0 -13 6 -13 13c0 5 3 8 5 10l99 89c3 3 7 5 11 5s8 -2 11 -5l99 -89c2 -2 5 -5 5 -10c0 -7 -6 -13 -13 -13c-4 0 -7 2 -9 4z" />
    <glyph glyph-name="Ograve" unicode="&#xd2;" horiz-adv-x="704" 
d="M352 -14c-193 0 -308 114 -308 350c0 237 115 351 308 351s308 -114 308 -351c0 -236 -115 -350 -308 -350zM352 659c-176 0 -276 -101 -276 -323c0 -221 100 -322 276 -322s276 101 276 322c0 222 -100 323 -276 323zM263 860c8 7 16 6 22 -1l99 -118c5 -6 3 -11 -2 -16
c-4 -4 -10 -6 -16 1l-104 112c-7 7 -6 16 1 22z" />
    <glyph glyph-name="Uacute" unicode="&#xda;" horiz-adv-x="627" 
d="M319 -14c-184 0 -229 106 -229 212v467c0 9 7 16 16 16s16 -7 16 -16v-467c0 -93 35 -184 197 -184s196 91 196 184v467c0 9 7 16 16 16s16 -7 16 -16v-467c0 -106 -44 -212 -228 -212zM398 860c7 -6 8 -15 1 -22l-104 -112c-6 -7 -12 -5 -16 -1c-5 5 -7 10 -2 16l99 118
c6 7 14 8 22 1z" />
    <glyph glyph-name="Ucircumflex" unicode="&#xdb;" horiz-adv-x="627" 
d="M319 -14c-184 0 -229 106 -229 212v467c0 9 7 16 16 16s16 -7 16 -16v-467c0 -93 35 -184 197 -184s196 91 196 184v467c0 9 7 16 16 16s16 -7 16 -16v-467c0 -106 -44 -212 -228 -212zM416 729l-93 84l-93 -84c-2 -2 -5 -4 -9 -4c-7 0 -13 6 -13 13c0 5 3 8 5 10l99 89
c3 3 7 5 11 5s8 -2 11 -5l99 -89c2 -2 5 -5 5 -10c0 -7 -6 -13 -13 -13c-4 0 -7 2 -9 4z" />
    <glyph glyph-name="Ugrave" unicode="&#xd9;" horiz-adv-x="627" 
d="M319 -14c-184 0 -229 106 -229 212v467c0 9 7 16 16 16s16 -7 16 -16v-467c0 -93 35 -184 197 -184s196 91 196 184v467c0 9 7 16 16 16s16 -7 16 -16v-467c0 -106 -44 -212 -228 -212zM263 860c8 7 16 6 22 -1l99 -118c5 -6 3 -11 -2 -16c-4 -4 -10 -6 -16 1l-104 112
c-7 7 -6 16 1 22z" />
    <glyph glyph-name="oe" unicode="&#x153;" horiz-adv-x="843" 
d="M244 468c96 0 162 -43 190 -133c27 86 92 133 187 133c166 0 188 -124 188 -191c0 -11 0 -25 -2 -37c-2 -11 -9 -16 -22 -16h-337c0 -148 69 -211 184 -211c75 0 112 26 141 50c3 2 5 3 8 3c7 0 13 -6 13 -13c0 -5 -3 -8 -6 -11c-16 -15 -64 -55 -156 -55
c-100 0 -170 40 -199 132c-27 -90 -94 -132 -189 -132c-128 0 -204 77 -204 241s76 240 204 240zM244 13c113 0 174 65 174 215c0 148 -61 214 -174 214s-174 -66 -174 -214c0 -150 61 -215 174 -215zM781 277c0 80 -32 165 -160 165c-113 0 -171 -73 -173 -193h332
s1 18 1 28z" />
    <glyph glyph-name="Oslash" unicode="&#xd8;" horiz-adv-x="704" 
d="M352 -14c-86 0 -157 22 -209 68l-58 -73c-2 -2 -5 -5 -10 -5c-7 0 -13 6 -13 13c0 4 2 7 3 8l60 76c-52 58 -81 145 -81 263c0 237 115 351 308 351c86 0 156 -23 208 -69l58 74c3 4 7 5 10 5c7 0 13 -6 13 -13c0 -1 0 -4 -2 -7l-61 -77c53 -58 82 -146 82 -264
c0 -236 -115 -350 -308 -350zM628 336c0 108 -24 187 -69 240l-396 -498c46 -44 109 -64 189 -64c176 0 276 101 276 322zM352 659c-176 0 -276 -101 -276 -323c0 -108 23 -186 68 -239l396 498c-46 43 -109 64 -188 64z" />
    <glyph glyph-name="Euro" unicode="&#x20ac;" horiz-adv-x="622" 
d="M352 -14c-172 0 -283 82 -304 275h-39c-7 0 -13 6 -13 13s6 13 13 13h37c-1 15 -2 32 -2 49c0 14 0 28 1 41h-36c-7 0 -13 6 -13 13s6 13 13 13h38c20 191 131 284 305 284c95 0 177 -41 222 -104c2 -3 4 -7 4 -11c0 -8 -6 -14 -14 -14c-4 0 -8 1 -12 6
c-40 54 -113 95 -200 95c-157 0 -254 -81 -273 -256h209c7 0 13 -6 13 -13s-6 -13 -13 -13h-211c-1 -13 -1 -27 -1 -41c0 -17 0 -34 1 -49h211c7 0 13 -6 13 -13s-6 -13 -13 -13h-208c20 -179 116 -247 272 -247c76 0 153 30 200 93c4 5 8 6 12 6c8 0 14 -6 14 -14
c0 -2 -1 -6 -3 -9c-43 -65 -130 -104 -223 -104z" />
    <glyph glyph-name="yen" unicode="&#xa5;" horiz-adv-x="502" 
d="M251 -8c-9 0 -16 7 -16 16v183h-138c-7 0 -13 6 -13 13s6 13 13 13h138v75h-138c-7 0 -13 6 -13 13s6 13 13 13h138l-215 336c-2 3 -3 7 -3 10c0 10 7 17 16 17c7 0 12 -3 15 -8l203 -325l202 325c4 6 9 8 14 8c10 0 17 -7 17 -17c0 -3 -1 -7 -3 -10l-214 -336h137
c7 0 13 -6 13 -13s-6 -13 -13 -13h-137v-75h137c7 0 13 -6 13 -13s-6 -13 -13 -13h-137v-183c0 -9 -7 -16 -16 -16z" />
    <glyph glyph-name="AE" unicode="&#xc6;" horiz-adv-x="854" 
d="M799 0h-351c-9 0 -16 7 -16 16v198h-252l-136 -214c-4 -6 -9 -8 -14 -8c-9 0 -16 7 -16 16c0 3 1 7 4 11l414 643c5 7 9 11 19 11h336c8 0 14 -6 14 -14s-6 -14 -14 -14h-323v-292h252c8 0 14 -6 14 -14s-6 -14 -14 -14h-252v-297h335c8 0 14 -6 14 -14s-6 -14 -14 -14z
M197 243h235v368z" />
    <glyph glyph-name="oslash" unicode="&#xf8;" horiz-adv-x="498" 
d="M249 468c65 0 117 -20 152 -61l47 49c4 4 6 4 9 4c8 0 13 -5 13 -13c0 -3 -1 -6 -4 -9l-50 -52c24 -39 37 -91 37 -158c0 -164 -76 -241 -204 -241c-66 0 -118 20 -153 62l-46 -49c-3 -3 -6 -5 -11 -5c-8 0 -12 6 -12 12c0 4 1 7 4 10l50 53c-24 38 -36 91 -36 158
c0 164 76 240 204 240zM249 13c113 0 173 65 173 215c0 57 -8 103 -26 136l-281 -295c30 -39 75 -56 134 -56zM76 228c0 -58 8 -103 25 -137l280 295c-29 38 -74 56 -132 56c-113 0 -173 -66 -173 -214z" />
    <glyph glyph-name="oacute" unicode="&#xf3;" horiz-adv-x="488" 
d="M244 468c128 0 205 -76 205 -240s-77 -241 -205 -241s-205 77 -205 241s77 240 205 240zM244 13c112 0 173 66 173 215c0 147 -61 214 -173 214s-173 -67 -173 -214c0 -149 61 -215 173 -215zM326 657c7 -6 8 -15 1 -22l-104 -112c-6 -7 -12 -5 -16 -1c-5 5 -7 10 -2 16
l99 118c6 7 14 8 22 1z" />
    <glyph glyph-name="ograve" unicode="&#xf2;" horiz-adv-x="488" 
d="M244 468c128 0 205 -76 205 -240s-77 -241 -205 -241s-205 77 -205 241s77 240 205 240zM244 13c112 0 173 66 173 215c0 147 -61 214 -173 214s-173 -67 -173 -214c0 -149 61 -215 173 -215zM185 657c8 7 16 6 22 -1l99 -118c5 -6 3 -11 -2 -16c-4 -4 -10 -6 -16 1
l-104 112c-7 7 -6 16 1 22z" />
    <glyph glyph-name="ocircumflex" unicode="&#xf4;" horiz-adv-x="488" 
d="M244 468c128 0 205 -76 205 -240s-77 -241 -205 -241s-205 77 -205 241s77 240 205 240zM244 13c112 0 173 66 173 215c0 147 -61 214 -173 214s-173 -67 -173 -214c0 -149 61 -215 173 -215zM339 537l-93 84l-93 -84c-2 -2 -5 -4 -9 -4c-7 0 -13 6 -13 13c0 5 3 8 5 10
l99 89c3 3 7 5 11 5s8 -2 11 -5l99 -89c2 -2 5 -5 5 -10c0 -7 -6 -13 -13 -13c-4 0 -7 2 -9 4z" />
    <glyph glyph-name="odieresis" unicode="&#xf6;" horiz-adv-x="488" 
d="M244 468c128 0 205 -76 205 -240s-77 -241 -205 -241s-205 77 -205 241s77 240 205 240zM244 13c112 0 173 66 173 215c0 147 -61 214 -173 214s-173 -67 -173 -214c0 -149 61 -215 173 -215zM164 544c-15 0 -22 7 -22 23s7 23 22 23s22 -7 22 -23s-7 -23 -22 -23z
M324 544c-15 0 -22 7 -22 23s7 23 22 23s22 -7 22 -23s-7 -23 -22 -23z" />
    <glyph glyph-name="otilde" unicode="&#xf5;" horiz-adv-x="488" 
d="M244 468c128 0 205 -76 205 -240s-77 -241 -205 -241s-205 77 -205 241s77 240 205 240zM244 13c112 0 173 66 173 215c0 147 -61 214 -173 214s-173 -67 -173 -214c0 -149 61 -215 173 -215zM310 535c-57 0 -83 43 -132 43c-30 0 -42 -17 -51 -37c-2 -5 -7 -8 -12 -8
c-7 0 -13 6 -13 13c0 3 1 6 2 8c9 21 31 50 74 50c57 0 83 -43 132 -43c32 0 43 19 51 39c2 5 7 8 12 8c7 0 13 -6 13 -13c0 -3 -1 -6 -2 -8c-9 -20 -31 -52 -74 -52z" />
    <glyph glyph-name="Amacron" unicode="&#x100;" horiz-adv-x="616" 
d="M459 243l-151 388l-151 -388h302zM469 214h-322l-83 -211c-2 -6 -8 -11 -16 -11c-9 0 -16 7 -16 16c0 2 1 6 2 8l259 654c2 6 7 11 15 11s14 -5 16 -11l258 -654c1 -2 2 -6 2 -8c0 -9 -7 -16 -17 -16c-8 0 -13 5 -16 12zM426 763c0 -7 -6 -13 -13 -13h-210
c-7 0 -13 6 -13 13s6 13 13 13h210c7 0 13 -6 13 -13z" />
    <glyph glyph-name="amacron" unicode="&#x101;" horiz-adv-x="463" 
d="M228 442c-81 0 -113 -36 -137 -73c-3 -5 -8 -7 -12 -7c-8 0 -14 6 -14 14c0 3 1 6 3 9c26 42 76 83 160 83c123 0 175 -66 175 -165v-296c0 -8 -6 -14 -14 -14s-14 6 -14 14v59c-33 -53 -98 -78 -165 -78c-112 0 -174 50 -174 138s71 139 185 139h154v46
c0 85 -55 131 -147 131zM210 14c87 0 165 47 165 141v85h-154c-90 0 -154 -37 -154 -114c0 -69 46 -112 143 -112zM348 567c0 -7 -6 -13 -13 -13h-210c-7 0 -13 6 -13 13s6 13 13 13h210c7 0 13 -6 13 -13z" />
    <glyph glyph-name="Abreve" unicode="&#x102;" horiz-adv-x="616" 
d="M459 243l-151 388l-151 -388h302zM469 214h-322l-83 -211c-2 -6 -8 -11 -16 -11c-9 0 -16 7 -16 16c0 2 1 6 2 8l259 654c2 6 7 11 15 11s14 -5 16 -11l258 -654c1 -2 2 -6 2 -8c0 -9 -7 -16 -17 -16c-8 0 -13 5 -16 12zM308 732c-55 0 -105 26 -105 96c0 7 6 13 13 13
s13 -6 13 -13c0 -49 27 -72 79 -72s79 23 79 72c0 7 6 13 13 13s13 -6 13 -13c0 -70 -50 -96 -105 -96z" />
    <glyph glyph-name="abreve" unicode="&#x103;" horiz-adv-x="463" 
d="M228 442c-81 0 -113 -36 -137 -73c-3 -5 -8 -7 -12 -7c-8 0 -14 6 -14 14c0 3 1 6 3 9c26 42 76 83 160 83c123 0 175 -66 175 -165v-296c0 -8 -6 -14 -14 -14s-14 6 -14 14v59c-33 -53 -98 -78 -165 -78c-112 0 -174 50 -174 138s71 139 185 139h154v46
c0 85 -55 131 -147 131zM210 14c87 0 165 47 165 141v85h-154c-90 0 -154 -37 -154 -114c0 -69 46 -112 143 -112zM230 531c-55 0 -105 26 -105 96c0 7 6 13 13 13s13 -6 13 -13c0 -49 27 -72 79 -72s79 23 79 72c0 7 6 13 13 13s13 -6 13 -13c0 -70 -50 -96 -105 -96z" />
    <glyph glyph-name="currency" unicode="&#xa4;" horiz-adv-x="467" 
d="M235 130c-47 0 -89 17 -120 45l-62 -63c-3 -3 -6 -5 -10 -5c-7 0 -13 6 -13 13c0 4 2 8 5 11l61 64c-25 32 -39 72 -39 117s15 86 40 117l-62 66c-3 3 -5 7 -5 11c0 7 6 13 13 13c4 0 7 -2 10 -5l63 -65c31 28 72 45 119 45c46 0 86 -16 116 -43l62 63c3 3 6 5 10 5
c7 0 13 -6 13 -13c0 -4 -2 -8 -5 -11l-61 -64c25 -32 40 -73 40 -119s-15 -87 -40 -118l61 -63c3 -3 5 -7 5 -11c0 -7 -6 -13 -13 -13c-4 0 -7 2 -10 5l-61 62c-30 -28 -71 -44 -117 -44zM235 156c88 0 147 70 147 156s-59 156 -147 156s-150 -70 -150 -156
s62 -156 150 -156z" />
    <glyph glyph-name="Yacute" unicode="&#xdd;" horiz-adv-x="503" 
d="M251 -8c-9 0 -16 7 -16 16v310l-215 336c-2 3 -3 7 -3 10c0 10 7 17 16 17c7 0 12 -3 15 -8l203 -325l202 325c4 6 9 8 14 8c10 0 17 -7 17 -17c0 -3 -1 -7 -3 -10l-214 -336v-310c0 -9 -7 -16 -16 -16zM335 860c7 -6 8 -15 1 -22l-104 -112c-6 -7 -12 -5 -16 -1
c-5 5 -7 10 -2 16l99 118c6 7 14 8 22 1z" />
    <glyph glyph-name="yacute" unicode="&#xfd;" horiz-adv-x="428" 
d="M214 38l167 414c1 3 5 10 14 10c8 0 15 -7 15 -15c0 -2 -1 -6 -2 -8l-211 -509c-41 -98 -89 -131 -182 -131c-7 0 -13 6 -13 13s6 13 13 13c109 0 134 55 184 179l-179 435c-1 2 -2 6 -2 8c0 8 7 15 15 15c9 0 13 -7 14 -10zM296 657c7 -6 8 -15 1 -22l-104 -112
c-6 -7 -12 -5 -16 -1c-5 5 -7 10 -2 16l99 118c6 7 14 8 22 1z" />
    <glyph glyph-name="Eth" unicode="&#xd0;" horiz-adv-x="607" 
d="M106 673h149c191 0 308 -90 308 -337s-117 -336 -308 -336h-149c-9 0 -16 7 -16 16v320h-53c-7 0 -13 6 -13 13s6 13 13 13h53v295c0 9 7 16 16 16zM365 349c0 -7 -6 -13 -13 -13h-230v-308h133c170 0 276 73 276 308c0 233 -106 309 -276 309h-133v-283h230
c7 0 13 -6 13 -13z" />
    <glyph glyph-name="c_t" horiz-adv-x="706" 
d="M536 454v52c0 94 -32 155 -127 155c-81 0 -113 -44 -113 -91c0 -74 59 -122 101 -169c2 -3 3 -6 3 -9c0 -7 -6 -13 -13 -13c-5 0 -8 2 -11 6c-18 23 -50 57 -132 57c-113 0 -174 -66 -174 -214c0 -150 61 -215 174 -215c69 0 107 29 133 49c3 2 5 3 8 3c7 0 13 -6 13 -13
c0 -3 -1 -7 -6 -11c-20 -16 -67 -54 -148 -54c-128 0 -204 77 -204 241s76 240 204 240c37 0 67 -8 88 -19c-22 22 -57 67 -57 121c0 59 37 117 136 117c101 0 155 -56 155 -180v-53h90c7 0 13 -6 13 -13s-6 -13 -13 -13h-90v-318c0 -60 34 -92 83 -92c7 0 13 -6 13 -13
s-6 -13 -13 -13c-73 0 -113 50 -113 118v318h-62c-7 0 -13 6 -13 13s6 13 13 13h62z" />
    <glyph glyph-name="Aogonek" unicode="&#x104;" horiz-adv-x="616" 
d="M626 -144c6 0 11 -5 11 -11c0 -5 -3 -8 -6 -10c-16 -9 -36 -14 -59 -14c-66 0 -88 35 -88 73c0 40 24 81 73 103c-2 2 -3 4 -4 7l-84 210h-322l-84 -210c-2 -6 -7 -12 -15 -12c-9 0 -16 7 -16 16c0 2 1 6 2 8l261 655c2 6 6 10 13 10s11 -4 13 -10l261 -655
c1 -2 2 -6 2 -8c0 -7 -4 -12 -10 -15c-47 -25 -65 -59 -65 -94c0 -30 15 -54 65 -54c22 0 32 3 45 9c2 1 4 2 7 2zM459 243l-151 385l-151 -385h302z" />
    <glyph glyph-name="aogonek" unicode="&#x105;" horiz-adv-x="463" 
d="M444 -144c6 0 11 -5 11 -11c0 -5 -3 -8 -6 -10c-16 -9 -36 -14 -59 -14c-66 0 -88 35 -88 73c0 41 25 83 76 104c-2 2 -3 5 -3 9v59c-33 -53 -98 -78 -165 -78c-112 0 -174 50 -174 138s70 139 194 139h145v46c0 85 -55 131 -147 131c-81 0 -113 -36 -137 -73
c-3 -5 -8 -7 -12 -7c-8 0 -14 6 -14 14c0 3 1 6 3 9c26 42 76 83 160 83c123 0 175 -66 175 -165v-296c0 -6 -2 -9 -9 -13c-47 -27 -67 -59 -67 -95c0 -30 15 -54 65 -54c22 0 32 3 45 9c2 1 4 2 7 2zM210 14c87 0 165 47 165 141v85h-154c-90 0 -155 -37 -155 -114
c0 -69 47 -112 144 -112z" />
    <glyph glyph-name="Eogonek" unicode="&#x118;" horiz-adv-x="512" 
d="M498 -144c6 0 11 -5 11 -11c0 -5 -3 -8 -6 -10c-16 -9 -36 -14 -59 -14c-66 0 -88 35 -88 73c0 42 27 85 81 106h-331c-9 0 -16 7 -16 16v641c0 9 7 16 16 16h339c8 0 14 -6 14 -14s-6 -14 -14 -14h-323v-292h252c8 0 14 -6 14 -14s-6 -14 -14 -14h-252v-297h335
c8 0 14 -6 14 -14c0 -6 -3 -11 -11 -14c-56 -25 -79 -63 -79 -101c0 -30 15 -54 65 -54c22 0 32 3 45 9c2 1 4 2 7 2z" />
    <glyph glyph-name="Gcircumflex" unicode="&#x11c;" horiz-adv-x="672" 
d="M352 14c108 0 183 49 220 98v175h-196c-8 0 -14 6 -14 14s6 14 14 14h212c7 0 14 -6 14 -13v-185c0 -8 -3 -15 -9 -22c-48 -56 -118 -109 -241 -109c-193 0 -308 103 -308 350s115 351 308 351c95 0 177 -41 222 -104c2 -3 4 -7 4 -11c0 -8 -6 -14 -14 -14
c-4 0 -8 1 -12 6c-40 54 -113 95 -200 95c-173 0 -276 -90 -276 -323c0 -235 100 -322 276 -322zM444 729l-93 84l-93 -84c-2 -2 -5 -4 -9 -4c-7 0 -13 6 -13 13c0 5 3 8 5 10l99 89c3 3 7 5 11 5s8 -2 11 -5l99 -89c2 -2 5 -5 5 -10c0 -7 -6 -13 -13 -13c-4 0 -7 2 -9 4z
" />
    <glyph glyph-name="Uogonek" unicode="&#x172;" horiz-adv-x="627" 
d="M458 -144c6 0 11 -5 11 -11c0 -5 -3 -8 -6 -10c-16 -9 -36 -14 -59 -14c-66 0 -88 35 -88 73c0 37 20 73 60 96c-17 -2 -36 -4 -57 -4c-184 0 -229 106 -229 212v467c0 9 7 16 16 16s16 -7 16 -16v-467c0 -93 35 -184 197 -184s196 91 196 184v467c0 9 7 16 16 16
s16 -7 16 -16v-467c0 -83 -25 -161 -127 -198c-57 -27 -79 -63 -79 -101c0 -30 15 -54 65 -54c22 0 32 3 45 9c2 1 4 2 7 2z" />
    <glyph glyph-name="Iogonek" unicode="&#x12e;" horiz-adv-x="212" 
d="M164 -144c6 0 11 -5 11 -11c0 -5 -3 -8 -6 -10c-16 -9 -36 -14 -59 -14c-66 0 -88 35 -88 73c0 40 24 81 72 103c-3 3 -4 6 -4 11v657c0 9 7 16 16 16s16 -7 16 -16v-657c0 -7 -4 -12 -10 -15c-47 -28 -65 -59 -65 -94c0 -30 15 -54 65 -54c22 0 32 3 45 9c2 1 4 2 7 2z
" />
    <glyph glyph-name="Hbar" unicode="&#x126;" horiz-adv-x="644" 
d="M522 331h-400v-323c0 -9 -7 -16 -16 -16s-16 7 -16 16v467h-40c-7 0 -13 6 -13 13s6 13 13 13h40v164c0 9 7 16 16 16s16 -7 16 -16v-164h400v164c0 9 7 16 16 16s16 -7 16 -16v-164h40c7 0 13 -6 13 -13s-6 -13 -13 -13h-40v-467c0 -9 -7 -16 -16 -16s-16 7 -16 16v323z
M122 360h400v115h-400v-115z" />
    <glyph glyph-name="oslashacute" unicode="&#x1ff;" horiz-adv-x="488" 
d="M244 468c65 0 117 -20 152 -61l47 49c4 4 6 4 9 4c8 0 13 -5 13 -13c0 -3 -1 -6 -4 -9l-50 -52c24 -39 37 -91 37 -158c0 -164 -76 -241 -204 -241c-66 0 -118 20 -153 62l-46 -49c-3 -3 -6 -5 -11 -5c-8 0 -12 6 -12 12c0 4 1 7 4 10l50 53c-24 38 -36 91 -36 158
c0 164 76 240 204 240zM244 13c113 0 174 65 174 215c0 57 -9 103 -27 136l-281 -295c30 -39 75 -56 134 -56zM70 228c0 -58 9 -103 26 -137l280 295c-29 38 -74 56 -132 56c-113 0 -174 -66 -174 -214zM303 657c7 -6 8 -15 1 -22l-104 -112c-6 -7 -12 -5 -16 -1
c-5 5 -7 10 -2 16l99 118c6 7 14 8 22 1z" />
    <glyph glyph-name="uogonek" unicode="&#x173;" horiz-adv-x="486" 
d="M369 -144c6 0 11 -5 11 -11c0 -5 -3 -8 -6 -10c-16 -9 -36 -14 -59 -14c-66 0 -88 35 -88 73c0 36 20 73 60 96c-14 -2 -28 -3 -44 -3c-151 0 -183 85 -183 178v282c0 8 7 15 15 15s15 -7 15 -15v-282c0 -82 26 -152 153 -152s153 70 153 152v282c0 8 7 15 15 15
s15 -7 15 -15v-282c0 -71 -19 -138 -95 -165c-57 -27 -79 -63 -79 -101c0 -30 15 -54 65 -54c22 0 32 3 45 9c2 1 4 2 7 2z" />
    <glyph glyph-name="eogonek" unicode="&#x119;" 
d="M40 228c0 155 76 240 204 240c166 0 188 -124 188 -191c0 -11 0 -25 -2 -37c-2 -11 -9 -16 -22 -16h-337c0 -144 67 -211 184 -211c75 0 112 26 141 50c3 2 5 3 8 3c7 0 13 -6 13 -13c0 -5 -3 -8 -6 -11c-47 -41 -151 -66 -151 -143c0 -30 15 -54 65 -54c22 0 32 3 45 9
c2 1 4 2 7 2c6 0 11 -5 11 -11c0 -5 -3 -8 -6 -10c-16 -9 -36 -14 -59 -14c-66 0 -88 35 -88 73c0 36 20 69 64 97c0 0 -21 -4 -44 -4c-133 0 -215 72 -215 241zM403 277c0 80 -31 165 -159 165c-113 0 -169 -74 -173 -193h331s1 20 1 28z" />
    <glyph glyph-name="dotlessj" unicode="&#x237;" horiz-adv-x="180" 
d="M95 462c8 0 15 -7 15 -15v-505c0 -80 -58 -143 -139 -143c-7 0 -13 6 -13 13s6 13 13 13c65 0 109 52 109 117v505c0 8 7 15 15 15z" />
    <glyph glyph-name="itilde" unicode="&#x129;" horiz-adv-x="175" 
d="M90 462c8 0 15 -7 15 -15v-440c0 -8 -7 -15 -15 -15s-15 7 -15 15v440c0 8 7 15 15 15zM154 535c-57 0 -83 43 -132 43c-30 0 -42 -17 -51 -37c-2 -5 -7 -8 -12 -8c-7 0 -13 6 -13 13c0 3 1 6 2 8c9 21 31 50 74 50c57 0 83 -43 132 -43c32 0 43 19 51 39c2 5 7 8 12 8
c7 0 13 -6 13 -13c0 -3 -1 -6 -2 -8c-9 -20 -31 -52 -74 -52z" />
    <glyph glyph-name="imacron" unicode="&#x12b;" horiz-adv-x="175" 
d="M90 462c8 0 15 -7 15 -15v-440c0 -8 -7 -15 -15 -15s-15 7 -15 15v440c0 8 7 15 15 15zM206 567c0 -7 -6 -13 -13 -13h-210c-7 0 -13 6 -13 13s6 13 13 13h210c7 0 13 -6 13 -13z" />
    <glyph glyph-name="ibreve" unicode="&#x12d;" horiz-adv-x="175" 
d="M90 462c8 0 15 -7 15 -15v-440c0 -8 -7 -15 -15 -15s-15 7 -15 15v440c0 8 7 15 15 15zM88 531c-55 0 -105 26 -105 96c0 7 6 13 13 13s13 -6 13 -13c0 -49 27 -72 79 -72s79 23 79 72c0 7 6 13 13 13s13 -6 13 -13c0 -70 -50 -96 -105 -96z" />
    <glyph glyph-name="iogonek" unicode="&#x12f;" horiz-adv-x="175" 
d="M90 462c8 0 15 -7 15 -15v-440c0 -6 -3 -10 -8 -13c-48 -27 -67 -60 -67 -95c0 -30 15 -54 65 -54c22 0 32 3 45 9c2 1 4 2 7 2c6 0 11 -5 11 -11c0 -5 -3 -8 -6 -10c-16 -9 -36 -14 -59 -14c-66 0 -88 35 -88 73c0 40 25 81 74 103c-3 3 -4 6 -4 10v440c0 8 7 15 15 15z
M90 592c-12 0 -18 6 -18 21s6 21 18 21s18 -6 18 -21s-6 -21 -18 -21z" />
    <glyph glyph-name="IJ" unicode="&#x132;" horiz-adv-x="613" 
d="M122 665v-657c0 -9 -7 -16 -16 -16s-16 7 -16 16v657c0 9 7 16 16 16s16 -7 16 -16zM236 9c-5 3 -8 7 -8 13c0 8 7 15 15 15c4 0 6 -1 12 -4c27 -14 57 -19 88 -19c107 0 149 77 149 181v470c0 9 7 16 16 16s16 -7 16 -16v-470c0 -118 -49 -209 -181 -209
c-37 0 -81 9 -107 23z" />
    <glyph glyph-name="ij" unicode="&#x133;" horiz-adv-x="355" 
d="M90 462c8 0 15 -7 15 -15v-440c0 -8 -7 -15 -15 -15s-15 7 -15 15v440c0 8 7 15 15 15zM90 592c-12 0 -18 6 -18 21s6 21 18 21s18 -6 18 -21s-6 -21 -18 -21zM270 462c8 0 15 -7 15 -15v-505c0 -80 -58 -143 -139 -143c-7 0 -13 6 -13 13s6 13 13 13
c65 0 109 52 109 117v505c0 8 7 15 15 15zM269 592c-12 0 -18 6 -18 21s6 21 18 21s18 -6 18 -21s-6 -21 -18 -21z" />
    <glyph glyph-name="jcircumflex" unicode="&#x135;" horiz-adv-x="180" 
d="M95 462c8 0 15 -7 15 -15v-505c0 -80 -58 -143 -139 -143c-7 0 -13 6 -13 13s6 13 13 13c65 0 109 52 109 117v505c0 8 7 15 15 15zM187 537l-93 84l-93 -84c-2 -2 -5 -4 -9 -4c-7 0 -13 6 -13 13c0 5 3 8 5 10l99 89c3 3 7 5 11 5s8 -2 11 -5l99 -89c2 -2 5 -5 5 -10
c0 -7 -6 -13 -13 -13c-4 0 -7 2 -9 4z" />
    <glyph glyph-name="wdieresis" unicode="&#x1e85;" horiz-adv-x="656" 
d="M328 406l-120 -404c-2 -6 -6 -10 -15 -10c-7 0 -11 4 -13 10l-160 437c-1 3 -2 5 -2 8c0 8 6 15 14 15s12 -4 14 -10l147 -411l122 412c1 4 5 9 12 9c8 0 12 -5 13 -9l122 -412l148 411c2 6 6 10 14 10s14 -6 14 -14c0 -3 -1 -6 -2 -9l-160 -437c-2 -6 -7 -10 -14 -10
c-8 0 -13 4 -15 10zM248 544c-15 0 -22 7 -22 23s7 23 22 23s22 -7 22 -23s-7 -23 -22 -23zM408 544c-15 0 -22 7 -22 23s7 23 22 23s22 -7 22 -23s-7 -23 -22 -23z" />
    <glyph glyph-name="wacute" unicode="&#x1e83;" horiz-adv-x="656" 
d="M328 406l-120 -404c-2 -6 -6 -10 -15 -10c-7 0 -11 4 -13 10l-160 437c-1 3 -2 5 -2 8c0 8 6 15 14 15s12 -4 14 -10l147 -411l122 412c1 4 5 9 12 9c8 0 12 -5 13 -9l122 -412l148 411c2 6 6 10 14 10s14 -6 14 -14c0 -3 -1 -6 -2 -9l-160 -437c-2 -6 -7 -10 -14 -10
c-8 0 -13 4 -15 10zM387 657c7 -6 8 -15 1 -22l-104 -112c-6 -7 -12 -5 -16 -1c-5 5 -7 10 -2 16l99 118c6 7 14 8 22 1z" />
    <glyph glyph-name="Wgrave" unicode="&#x1e80;" horiz-adv-x="824" 
d="M599 57l174 613c2 6 7 11 15 11c10 0 17 -7 17 -17c0 -1 0 -3 -1 -6l-189 -654c-2 -7 -8 -12 -16 -12s-13 4 -15 11l-172 609l-172 -609c-2 -7 -8 -11 -16 -11c-6 0 -13 4 -15 11l-189 656c-1 3 -1 4 -1 5c0 10 7 17 16 17c8 0 14 -5 16 -11l174 -616l172 616
c2 7 8 11 15 11s14 -4 16 -11zM353 860c8 7 16 6 22 -1l99 -118c5 -6 3 -11 -2 -16c-4 -4 -10 -6 -16 1l-104 112c-7 7 -6 16 1 22z" />
    <glyph glyph-name="wgrave" unicode="&#x1e81;" horiz-adv-x="656" 
d="M328 406l-120 -404c-2 -6 -6 -10 -15 -10c-7 0 -11 4 -13 10l-160 437c-1 3 -2 5 -2 8c0 8 6 15 14 15s12 -4 14 -10l147 -411l122 412c1 4 5 9 12 9c8 0 12 -5 13 -9l122 -412l148 411c2 6 6 10 14 10s14 -6 14 -14c0 -3 -1 -6 -2 -9l-160 -437c-2 -6 -7 -10 -14 -10
c-8 0 -13 4 -15 10zM269 657c8 7 16 6 22 -1l99 -118c5 -6 3 -11 -2 -16c-4 -4 -10 -6 -16 1l-104 112c-7 7 -6 16 1 22z" />
    <glyph glyph-name="Wacute" unicode="&#x1e82;" horiz-adv-x="824" 
d="M599 57l174 613c2 6 7 11 15 11c10 0 17 -7 17 -17c0 -1 0 -3 -1 -6l-189 -654c-2 -7 -8 -12 -16 -12s-13 4 -15 11l-172 609l-172 -609c-2 -7 -8 -11 -16 -11c-6 0 -13 4 -15 11l-189 656c-1 3 -1 4 -1 5c0 10 7 17 16 17c8 0 14 -5 16 -11l174 -616l172 616
c2 7 8 11 15 11s14 -4 16 -11zM471 860c7 -6 8 -15 1 -22l-104 -112c-6 -7 -12 -5 -16 -1c-5 5 -7 10 -2 16l99 118c6 7 14 8 22 1z" />
    <glyph glyph-name="Scommaaccent" unicode="&#x218;" horiz-adv-x="535" 
d="M453 570c-34 45 -83 90 -185 90c-126 0 -173 -63 -173 -134c0 -198 398 -115 398 -354c0 -120 -83 -186 -233 -186c-115 0 -185 54 -228 121c-2 3 -3 6 -3 9c0 8 7 15 15 15c6 0 10 -3 13 -8c38 -60 102 -109 203 -109c130 0 201 51 201 158c0 217 -398 123 -398 354
c0 86 62 161 205 161c94 0 162 -36 209 -99c2 -3 3 -6 3 -9c0 -8 -7 -15 -15 -15c-6 0 -9 2 -12 6zM288 -86c0 -43 -15 -70 -32 -93c-3 -4 -5 -6 -9 -6c-5 0 -9 4 -9 9c0 2 1 4 3 7c16 24 18 35 18 50c0 27 -17 35 -17 53c0 12 6 22 21 22c17 0 25 -10 25 -42z" />
    <glyph glyph-name="scommaaccent" unicode="&#x219;" horiz-adv-x="399" 
d="M196 442c-59 0 -117 -21 -117 -86c0 -133 286 -87 286 -245c0 -85 -72 -124 -165 -124c-84 0 -146 36 -170 69c-3 4 -4 6 -4 10c0 8 7 13 13 13c3 0 6 -1 9 -4c34 -38 77 -62 152 -62c73 0 135 26 135 98c0 129 -286 87 -286 245c0 77 65 112 147 112
c68 0 116 -23 149 -60c3 -4 4 -6 4 -10c0 -7 -6 -13 -13 -13c-2 0 -5 0 -9 4c-35 35 -73 53 -131 53zM230 -86c0 -43 -15 -70 -32 -93c-3 -4 -5 -6 -9 -6c-5 0 -9 4 -9 9c0 2 1 4 3 7c16 24 18 35 18 50c0 27 -17 35 -17 53c0 12 6 22 21 22c17 0 25 -10 25 -42z" />
    <glyph glyph-name="Lcaron" unicode="&#x13d;" horiz-adv-x="477" 
d="M122 28h311c8 0 14 -6 14 -14s-6 -14 -14 -14h-329c-8 0 -14 6 -14 14v651c0 9 7 16 16 16s16 -7 16 -16v-637zM338 639c0 -43 -16 -86 -33 -109c-3 -4 -6 -5 -10 -5c-5 0 -9 4 -9 9c0 3 1 5 2 7c15 26 20 45 20 60c0 27 -17 40 -17 58c0 12 7 22 22 22
c17 0 25 -10 25 -42z" />
    <glyph glyph-name="zcaron" unicode="&#x17e;" horiz-adv-x="388" 
d="M37 441c0 7 6 13 13 13h298c7 0 13 -6 13 -13c0 -5 -2 -8 -4 -11l-294 -404h292c7 0 13 -6 13 -13s-6 -13 -13 -13h-320c-7 0 -13 6 -13 13c0 3 1 5 3 8l297 407h-272c-7 0 -13 6 -13 13zM103 646l93 -84l93 84c2 2 5 4 9 4c7 0 13 -6 13 -13c0 -5 -3 -8 -5 -10l-99 -89
c-3 -3 -7 -5 -11 -5s-8 2 -11 5l-99 89c-2 2 -5 5 -5 10c0 7 6 13 13 13c4 0 7 -2 9 -4z" />
    <glyph glyph-name="Zcaron" unicode="&#x17d;" horiz-adv-x="497" 
d="M469 0h-445c-7 0 -13 6 -13 14c0 4 1 6 3 9l415 622h-382c-8 0 -14 6 -14 14s6 14 14 14h406c8 0 14 -6 14 -14c0 -3 -1 -6 -3 -9l-413 -622h418c8 0 14 -6 14 -14s-6 -14 -14 -14zM155 838l93 -84l93 84c2 2 5 4 9 4c7 0 13 -6 13 -13c0 -5 -3 -8 -5 -10l-99 -89
c-3 -3 -7 -5 -11 -5s-8 2 -11 5l-99 89c-2 2 -5 5 -5 10c0 7 6 13 13 13c4 0 7 -2 9 -4z" />
    <glyph glyph-name="zdotaccent" unicode="&#x17c;" horiz-adv-x="388" 
d="M37 441c0 7 6 13 13 13h298c7 0 13 -6 13 -13c0 -5 -2 -8 -4 -11l-294 -404h292c7 0 13 -6 13 -13s-6 -13 -13 -13h-320c-7 0 -13 6 -13 13c0 3 1 5 3 8l297 407h-272c-7 0 -13 6 -13 13zM196 549c-14 0 -22 7 -22 22c0 16 8 23 22 23s22 -7 22 -23c0 -15 -8 -22 -22 -22
z" />
    <glyph glyph-name="Zdotaccent" unicode="&#x17b;" horiz-adv-x="497" 
d="M469 0h-445c-7 0 -13 6 -13 14c0 4 1 6 3 9l415 622h-382c-8 0 -14 6 -14 14s6 14 14 14h406c8 0 14 -6 14 -14c0 -3 -1 -6 -3 -9l-413 -622h418c8 0 14 -6 14 -14s-6 -14 -14 -14zM248 750c-14 0 -22 7 -22 22c0 16 8 23 22 23s22 -7 22 -23c0 -15 -8 -22 -22 -22z" />
    <glyph glyph-name="zacute" unicode="&#x17a;" horiz-adv-x="388" 
d="M37 441c0 7 6 13 13 13h298c7 0 13 -6 13 -13c0 -5 -2 -8 -4 -11l-294 -404h292c7 0 13 -6 13 -13s-6 -13 -13 -13h-320c-7 0 -13 6 -13 13c0 3 1 5 3 8l297 407h-272c-7 0 -13 6 -13 13zM270 657c7 -6 8 -15 1 -22l-104 -112c-6 -7 -12 -5 -16 -1c-5 5 -7 10 -2 16
l99 118c6 7 14 8 22 1z" />
    <glyph glyph-name="Zacute" unicode="&#x179;" horiz-adv-x="497" 
d="M469 0h-445c-7 0 -13 6 -13 14c0 4 1 6 3 9l415 622h-382c-8 0 -14 6 -14 14s6 14 14 14h406c8 0 14 -6 14 -14c0 -3 -1 -6 -3 -9l-413 -622h418c8 0 14 -6 14 -14s-6 -14 -14 -14zM325 860c7 -6 8 -15 1 -22l-104 -112c-6 -7 -12 -5 -16 -1c-5 5 -7 10 -2 16l99 118
c6 7 14 8 22 1z" />
    <glyph glyph-name="ycircumflex" unicode="&#x177;" horiz-adv-x="428" 
d="M214 38l167 414c1 3 5 10 14 10c8 0 15 -7 15 -15c0 -2 -1 -6 -2 -8l-211 -509c-41 -98 -89 -131 -182 -131c-7 0 -13 6 -13 13s6 13 13 13c109 0 134 55 184 179l-179 435c-1 2 -2 6 -2 8c0 8 7 15 15 15c9 0 13 -7 14 -10zM310 537l-93 84l-93 -84c-2 -2 -5 -4 -9 -4
c-7 0 -13 6 -13 13c0 5 3 8 5 10l99 89c3 3 7 5 11 5s8 -2 11 -5l99 -89c2 -2 5 -5 5 -10c0 -7 -6 -13 -13 -13c-4 0 -7 2 -9 4z" />
    <glyph glyph-name="Ycircumflex" unicode="&#x176;" horiz-adv-x="503" 
d="M251 -8c-9 0 -16 7 -16 16v310l-215 336c-2 3 -3 7 -3 10c0 10 7 17 16 17c7 0 12 -3 15 -8l203 -325l202 325c4 6 9 8 14 8c10 0 17 -7 17 -17c0 -3 -1 -7 -3 -10l-214 -336v-310c0 -9 -7 -16 -16 -16zM344 729l-93 84l-93 -84c-2 -2 -5 -4 -9 -4c-7 0 -13 6 -13 13
c0 5 3 8 5 10l99 89c3 3 7 5 11 5s8 -2 11 -5l99 -89c2 -2 5 -5 5 -10c0 -7 -6 -13 -13 -13c-4 0 -7 2 -9 4z" />
    <glyph glyph-name="wcircumflex" unicode="&#x175;" horiz-adv-x="656" 
d="M328 406l-120 -404c-2 -6 -6 -10 -15 -10c-7 0 -11 4 -13 10l-160 437c-1 3 -2 5 -2 8c0 8 6 15 14 15s12 -4 14 -10l147 -411l122 412c1 4 5 9 12 9c8 0 12 -5 13 -9l122 -412l148 411c2 6 6 10 14 10s14 -6 14 -14c0 -3 -1 -6 -2 -9l-160 -437c-2 -6 -7 -10 -14 -10
c-8 0 -13 4 -15 10zM421 537l-93 84l-93 -84c-2 -2 -5 -4 -9 -4c-7 0 -13 6 -13 13c0 5 3 8 5 10l99 89c3 3 7 5 11 5s8 -2 11 -5l99 -89c2 -2 5 -5 5 -10c0 -7 -6 -13 -13 -13c-4 0 -7 2 -9 4z" />
    <glyph glyph-name="Wcircumflex" unicode="&#x174;" horiz-adv-x="824" 
d="M599 57l174 613c2 6 7 11 15 11c10 0 17 -7 17 -17c0 -1 0 -3 -1 -6l-189 -654c-2 -7 -8 -12 -16 -12s-13 4 -15 11l-172 609l-172 -609c-2 -7 -8 -11 -16 -11c-6 0 -13 4 -15 11l-189 656c-1 3 -1 4 -1 5c0 10 7 17 16 17c8 0 14 -5 16 -11l174 -616l172 616
c2 7 8 11 15 11s14 -4 16 -11zM505 729l-93 84l-93 -84c-2 -2 -5 -4 -9 -4c-7 0 -13 6 -13 13c0 5 3 8 5 10l99 89c3 3 7 5 11 5s8 -2 11 -5l99 -89c2 -2 5 -5 5 -10c0 -7 -6 -13 -13 -13c-4 0 -7 2 -9 4z" />
    <glyph glyph-name="uhungarumlaut" unicode="&#x171;" horiz-adv-x="486" 
d="M75 462c8 0 15 -7 15 -15v-282c0 -82 26 -152 153 -152s153 70 153 152v282c0 8 7 15 15 15s15 -7 15 -15v-282c0 -93 -32 -178 -183 -178s-183 85 -183 178v282c0 8 7 15 15 15zM291 657c7 -6 8 -15 1 -22l-104 -112c-6 -7 -12 -5 -16 -1c-5 5 -7 10 -2 16l99 118
c6 7 14 8 22 1zM395 657c7 -6 8 -15 1 -22l-104 -112c-6 -7 -12 -5 -16 -1c-5 5 -7 10 -2 16l99 118c6 7 14 8 22 1z" />
    <glyph glyph-name="Tbar" unicode="&#x166;" horiz-adv-x="532" 
d="M250 645h-207c-8 0 -14 6 -14 14s6 14 14 14h446c8 0 14 -6 14 -14s-6 -14 -14 -14h-207v-291h114c7 0 13 -6 13 -13s-6 -13 -13 -13h-114v-320c0 -9 -7 -16 -16 -16s-16 7 -16 16v320h-114c-7 0 -13 6 -13 13s6 13 13 13h114v291z" />
    <glyph glyph-name="Tcaron" unicode="&#x164;" horiz-adv-x="532" 
d="M250 645h-207c-8 0 -14 6 -14 14s6 14 14 14h446c8 0 14 -6 14 -14s-6 -14 -14 -14h-207v-637c0 -9 -7 -16 -16 -16s-16 7 -16 16v637zM173 838l93 -84l93 84c2 2 5 4 9 4c7 0 13 -6 13 -13c0 -5 -3 -8 -5 -10l-99 -89c-3 -3 -7 -5 -11 -5s-8 2 -11 5l-99 89
c-2 2 -5 5 -5 10c0 7 6 13 13 13c4 0 7 -2 9 -4z" />
    <glyph glyph-name="Tcommaaccent" unicode="&#x162;" horiz-adv-x="532" 
d="M250 645h-207c-8 0 -14 6 -14 14s6 14 14 14h446c8 0 14 -6 14 -14s-6 -14 -14 -14h-207v-637c0 -9 -7 -16 -16 -16s-16 7 -16 16v637zM289 -86c0 -43 -15 -70 -32 -93c-3 -4 -5 -6 -9 -6c-5 0 -9 4 -9 9c0 2 1 4 3 7c16 24 18 35 18 50c0 27 -17 35 -17 53
c0 12 6 22 21 22c17 0 25 -10 25 -42z" />
    <glyph glyph-name="scaron" unicode="&#x161;" horiz-adv-x="399" 
d="M196 442c-59 0 -117 -21 -117 -86c0 -133 286 -87 286 -245c0 -85 -72 -124 -165 -124c-84 0 -146 36 -170 69c-3 4 -4 6 -4 10c0 8 7 13 13 13c3 0 6 -1 9 -4c34 -38 77 -62 152 -62c73 0 135 26 135 98c0 129 -286 87 -286 245c0 77 65 112 147 112
c68 0 116 -23 149 -60c3 -4 4 -6 4 -10c0 -7 -6 -13 -13 -13c-2 0 -5 0 -9 4c-35 35 -73 53 -131 53zM105 646l93 -84l93 84c2 2 5 4 9 4c7 0 13 -6 13 -13c0 -5 -3 -8 -5 -10l-99 -89c-3 -3 -7 -5 -11 -5s-8 2 -11 5l-99 89c-2 2 -5 5 -5 10c0 7 6 13 13 13c4 0 7 -2 9 -4z
" />
    <glyph glyph-name="Scaron" unicode="&#x160;" horiz-adv-x="535" 
d="M453 570c-34 45 -83 90 -185 90c-126 0 -173 -63 -173 -134c0 -198 398 -115 398 -354c0 -120 -83 -186 -233 -186c-115 0 -185 54 -228 121c-2 3 -3 6 -3 9c0 8 7 15 15 15c6 0 10 -3 13 -8c38 -60 102 -109 203 -109c130 0 201 51 201 158c0 217 -398 123 -398 354
c0 86 62 161 205 161c94 0 162 -36 209 -99c2 -3 3 -6 3 -9c0 -8 -7 -15 -15 -15c-6 0 -9 2 -12 6zM181 838l93 -84l93 84c2 2 5 4 9 4c7 0 13 -6 13 -13c0 -5 -3 -8 -5 -10l-99 -89c-3 -3 -7 -5 -11 -5s-8 2 -11 5l-99 89c-2 2 -5 5 -5 10c0 7 6 13 13 13c4 0 7 -2 9 -4z
" />
    <glyph glyph-name="scedilla" unicode="&#x15f;" horiz-adv-x="399" 
d="M280 -139c0 -49 -32 -85 -92 -85c-28 0 -51 9 -61 18c-2 2 -3 5 -3 7c0 6 4 10 9 10c3 0 5 -1 8 -3c11 -7 25 -14 47 -14c45 0 68 23 68 67c0 48 -29 63 -60 63c-20 0 -31 -6 -37 -6s-11 5 -11 11l3 62c-59 10 -102 38 -121 65c-3 4 -4 6 -4 10c0 8 7 13 13 13
c3 0 6 -1 9 -4c34 -38 77 -62 152 -62c73 0 135 26 135 98c0 129 -286 87 -286 245c0 77 65 112 147 112c68 0 116 -23 149 -60c3 -4 4 -6 4 -10c0 -7 -6 -13 -13 -13c-2 0 -5 0 -9 4c-35 35 -73 53 -131 53c-59 0 -117 -21 -117 -86c0 -133 286 -87 286 -245
c0 -85 -72 -124 -165 -124c-10 0 -20 1 -29 2l-4 -51s13 4 29 4c51 0 84 -28 84 -81z" />
    <glyph glyph-name="Scedilla" unicode="&#x15e;" horiz-adv-x="535" 
d="M345 -139c0 -49 -32 -85 -92 -85c-28 0 -51 9 -61 18c-2 2 -3 5 -3 7c0 6 4 10 9 10c3 0 5 -1 8 -3c11 -7 25 -14 47 -14c45 0 68 23 68 67c0 48 -29 63 -60 63c-20 0 -31 -6 -37 -6s-11 5 -11 11l3 60c-89 12 -147 60 -184 118c-2 3 -3 6 -3 9c0 8 7 15 15 15
c6 0 10 -3 13 -8c38 -60 102 -109 203 -109c130 0 201 51 201 158c0 217 -398 123 -398 354c0 86 62 161 205 161c94 0 162 -36 209 -99c2 -3 3 -6 3 -9c0 -8 -7 -15 -15 -15c-6 0 -9 2 -12 6c-34 45 -83 90 -185 90c-126 0 -173 -63 -173 -134c0 -198 398 -115 398 -354
c0 -120 -83 -186 -233 -186c-9 0 -16 1 -24 1l-4 -49s13 4 29 4c51 0 84 -28 84 -81z" />
    <glyph glyph-name="racute" unicode="&#x155;" horiz-adv-x="295" 
d="M85 462c8 0 15 -7 15 -15v-98c21 67 77 118 171 118c7 0 13 -6 13 -13s-6 -13 -13 -13c-115 0 -171 -89 -171 -198v-236c0 -8 -7 -15 -15 -15s-15 7 -15 15v440c0 8 7 15 15 15zM253 657c7 -6 8 -15 1 -22l-104 -112c-6 -7 -12 -5 -16 -1c-5 5 -7 10 -2 16l99 118
c6 7 14 8 22 1z" />
    <glyph glyph-name="rcommaaccent" unicode="&#x157;" horiz-adv-x="295" 
d="M85 462c8 0 15 -7 15 -15v-98c21 67 77 118 171 118c7 0 13 -6 13 -13s-6 -13 -13 -13c-115 0 -171 -89 -171 -198v-236c0 -8 -7 -15 -15 -15s-15 7 -15 15v440c0 8 7 15 15 15zM109 -86c0 -43 -15 -70 -32 -93c-3 -4 -5 -6 -9 -6c-5 0 -9 4 -9 9c0 2 1 4 3 7
c16 24 18 35 18 50c0 27 -17 35 -17 53c0 12 6 22 21 22c17 0 25 -10 25 -42z" />
    <glyph glyph-name="rcaron" unicode="&#x159;" horiz-adv-x="295" 
d="M85 462c8 0 15 -7 15 -15v-98c21 67 77 118 171 118c7 0 13 -6 13 -13s-6 -13 -13 -13c-115 0 -171 -89 -171 -198v-236c0 -8 -7 -15 -15 -15s-15 7 -15 15v440c0 8 7 15 15 15zM71 646l93 -84l93 84c2 2 5 4 9 4c7 0 13 -6 13 -13c0 -5 -3 -8 -5 -10l-99 -89
c-3 -3 -7 -5 -11 -5s-8 2 -11 5l-99 89c-2 2 -5 5 -5 10c0 7 6 13 13 13c4 0 7 -2 9 -4z" />
    <glyph glyph-name="scircumflex" unicode="&#x15d;" horiz-adv-x="399" 
d="M196 442c-59 0 -117 -21 -117 -86c0 -133 286 -87 286 -245c0 -85 -72 -124 -165 -124c-84 0 -146 36 -170 69c-3 4 -4 6 -4 10c0 8 7 13 13 13c3 0 6 -1 9 -4c34 -38 77 -62 152 -62c73 0 135 26 135 98c0 129 -286 87 -286 245c0 77 65 112 147 112
c68 0 116 -23 149 -60c3 -4 4 -6 4 -10c0 -7 -6 -13 -13 -13c-2 0 -5 0 -9 4c-35 35 -73 53 -131 53zM297 537l-93 84l-93 -84c-2 -2 -5 -4 -9 -4c-7 0 -13 6 -13 13c0 5 3 8 5 10l99 89c3 3 7 5 11 5s8 -2 11 -5l99 -89c2 -2 5 -5 5 -10c0 -7 -6 -13 -13 -13
c-4 0 -7 2 -9 4z" />
    <glyph glyph-name="Scircumflex" unicode="&#x15c;" horiz-adv-x="535" 
d="M453 570c-34 45 -83 90 -185 90c-126 0 -173 -63 -173 -134c0 -198 398 -115 398 -354c0 -120 -83 -186 -233 -186c-115 0 -185 54 -228 121c-2 3 -3 6 -3 9c0 8 7 15 15 15c6 0 10 -3 13 -8c38 -60 102 -109 203 -109c130 0 201 51 201 158c0 217 -398 123 -398 354
c0 86 62 161 205 161c94 0 162 -36 209 -99c2 -3 3 -6 3 -9c0 -8 -7 -15 -15 -15c-6 0 -9 2 -12 6zM373 729l-93 84l-93 -84c-2 -2 -5 -4 -9 -4c-7 0 -13 6 -13 13c0 5 3 8 5 10l99 89c3 3 7 5 11 5s8 -2 11 -5l99 -89c2 -2 5 -5 5 -10c0 -7 -6 -13 -13 -13c-4 0 -7 2 -9 4z
" />
    <glyph glyph-name="sacute" unicode="&#x15b;" horiz-adv-x="399" 
d="M196 442c-59 0 -117 -21 -117 -86c0 -133 286 -87 286 -245c0 -85 -72 -124 -165 -124c-84 0 -146 36 -170 69c-3 4 -4 6 -4 10c0 8 7 13 13 13c3 0 6 -1 9 -4c34 -38 77 -62 152 -62c73 0 135 26 135 98c0 129 -286 87 -286 245c0 77 65 112 147 112
c68 0 116 -23 149 -60c3 -4 4 -6 4 -10c0 -7 -6 -13 -13 -13c-2 0 -5 0 -9 4c-35 35 -73 53 -131 53zM283 657c7 -6 8 -15 1 -22l-104 -112c-6 -7 -12 -5 -16 -1c-5 5 -7 10 -2 16l99 118c6 7 14 8 22 1z" />
    <glyph glyph-name="Sacute" unicode="&#x15a;" horiz-adv-x="535" 
d="M453 570c-34 45 -83 90 -185 90c-126 0 -173 -63 -173 -134c0 -198 398 -115 398 -354c0 -120 -83 -186 -233 -186c-115 0 -185 54 -228 121c-2 3 -3 6 -3 9c0 8 7 15 15 15c6 0 10 -3 13 -8c38 -60 102 -109 203 -109c130 0 201 51 201 158c0 217 -398 123 -398 354
c0 86 62 161 205 161c94 0 162 -36 209 -99c2 -3 3 -6 3 -9c0 -8 -7 -15 -15 -15c-6 0 -9 2 -12 6zM370 860c7 -6 8 -15 1 -22l-104 -112c-6 -7 -12 -5 -16 -1c-5 5 -7 10 -2 16l99 118c6 7 14 8 22 1z" />
    <glyph glyph-name="lcaron" unicode="&#x13e;" horiz-adv-x="200" 
d="M85 712c8 0 15 -7 15 -15v-597c0 -58 20 -82 63 -82c7 0 13 -6 13 -13s-6 -13 -13 -13c-60 0 -93 37 -93 108v597c0 8 7 15 15 15zM211 670c0 -43 -16 -86 -33 -109c-3 -4 -6 -5 -10 -5c-5 0 -9 4 -9 9c0 3 1 5 2 7c15 26 20 45 20 60c0 27 -17 40 -17 58
c0 12 7 22 22 22c17 0 25 -10 25 -42z" />
    <glyph glyph-name="nacute" unicode="&#x144;" horiz-adv-x="496" 
d="M89 -8c-8 0 -15 7 -15 15v440c0 8 7 15 15 15s15 -7 15 -15v-75c15 40 63 96 157 96c144 0 179 -85 179 -177v-284c0 -8 -7 -15 -15 -15s-15 7 -15 15v284c0 81 -28 151 -150 151c-109 0 -156 -83 -156 -161v-274c0 -8 -7 -15 -15 -15zM337 657c7 -6 8 -15 1 -22
l-104 -112c-6 -7 -12 -5 -16 -1c-5 5 -7 10 -2 16l99 118c6 7 14 8 22 1z" />
    <glyph glyph-name="Ncommaaccent" unicode="&#x145;" horiz-adv-x="621" 
d="M526 681c8 0 15 -7 15 -15v-658c0 -9 -7 -16 -16 -16c-7 0 -11 3 -15 9l-400 616v-610c0 -8 -7 -15 -15 -15s-15 7 -15 15v659c0 8 7 15 15 15c6 0 10 -3 12 -6l404 -620v611c0 8 7 15 15 15zM332 -86c0 -43 -15 -70 -32 -93c-3 -4 -5 -6 -9 -6c-5 0 -9 4 -9 9
c0 2 1 4 3 7c16 24 18 35 18 50c0 27 -17 35 -17 53c0 12 6 22 21 22c17 0 25 -10 25 -42z" />
    <glyph glyph-name="ncommaaccent" unicode="&#x146;" horiz-adv-x="496" 
d="M89 -8c-8 0 -15 7 -15 15v440c0 8 7 15 15 15s15 -7 15 -15v-75c15 40 63 96 157 96c144 0 179 -85 179 -177v-284c0 -8 -7 -15 -15 -15s-15 7 -15 15v284c0 81 -28 151 -150 151c-109 0 -156 -83 -156 -161v-274c0 -8 -7 -15 -15 -15zM277 -86c0 -43 -15 -70 -32 -93
c-3 -4 -5 -6 -9 -6c-5 0 -9 4 -9 9c0 2 1 4 3 7c16 24 18 35 18 50c0 27 -17 35 -17 53c0 12 6 22 21 22c17 0 25 -10 25 -42z" />
    <glyph glyph-name="Ncaron" unicode="&#x147;" horiz-adv-x="621" 
d="M526 681c8 0 15 -7 15 -15v-658c0 -9 -7 -16 -16 -16c-7 0 -11 3 -15 9l-400 616v-610c0 -8 -7 -15 -15 -15s-15 7 -15 15v659c0 8 7 15 15 15c6 0 10 -3 12 -6l404 -620v611c0 8 7 15 15 15zM226 838l93 -84l93 84c2 2 5 4 9 4c7 0 13 -6 13 -13c0 -5 -3 -8 -5 -10
l-99 -89c-3 -3 -7 -5 -11 -5s-8 2 -11 5l-99 89c-2 2 -5 5 -5 10c0 7 6 13 13 13c4 0 7 -2 9 -4z" />
    <glyph glyph-name="Lslash" unicode="&#x141;" horiz-adv-x="477" 
d="M122 28h311c8 0 14 -6 14 -14s-6 -14 -14 -14h-329c-8 0 -14 6 -14 14v262l-62 -29c-2 -1 -5 -1 -5 -1c-7 0 -12 5 -12 12c0 6 3 9 7 11l72 34v362c0 9 7 16 16 16s16 -7 16 -16v-347l211 99c2 1 4 2 7 2c7 0 12 -5 12 -12c0 -6 -3 -9 -7 -11l-223 -105v-263z" />
    <glyph glyph-name="lslash" unicode="&#x142;" horiz-adv-x="255" 
d="M120 712c8 0 15 -7 15 -15v-286l82 48c2 1 4 2 7 2c7 0 12 -5 12 -12c0 -5 -3 -8 -8 -11l-93 -54v-284c0 -58 20 -82 63 -82c7 0 13 -6 13 -13s-6 -13 -13 -13c-60 0 -93 37 -93 108v266l-66 -38c-2 -1 -5 -2 -8 -2c-5 0 -11 4 -11 11c0 4 1 8 6 11l79 46v303
c0 8 7 15 15 15z" />
    <glyph glyph-name="at.case" horiz-adv-x="802" 
d="M389 523c65 0 137 -31 137 -116v-173c0 -50 29 -58 70 -58c70 0 134 43 134 183c0 202 -128 314 -330 314c-207 0 -328 -108 -328 -337c0 -230 121 -336 328 -336c86 0 168 13 238 65c4 3 6 4 10 4c7 0 13 -6 13 -13c0 -4 -2 -8 -6 -11c-60 -49 -147 -71 -255 -71
c-225 0 -358 115 -358 362c0 248 133 363 358 363c209 0 360 -111 360 -340c0 -86 -33 -207 -164 -207c-44 0 -80 9 -94 50c-25 -30 -62 -50 -129 -50c-97 0 -136 50 -136 107c0 75 62 106 157 106h104v46c0 59 -51 86 -109 86c-43 0 -71 -15 -95 -39c-4 -4 -7 -6 -12 -6
c-7 0 -12 6 -12 13c0 4 2 7 4 9c16 18 51 49 115 49zM498 340h-112c-79 0 -119 -25 -119 -81c0 -38 25 -82 106 -82c88 0 125 42 125 82v81z" />
    <glyph glyph-name="ncaron" unicode="&#x148;" horiz-adv-x="496" 
d="M89 -8c-8 0 -15 7 -15 15v440c0 8 7 15 15 15s15 -7 15 -15v-75c15 40 63 96 157 96c144 0 179 -85 179 -177v-284c0 -8 -7 -15 -15 -15s-15 7 -15 15v284c0 81 -28 151 -150 151c-109 0 -156 -83 -156 -161v-274c0 -8 -7 -15 -15 -15zM163 646l93 -84l93 84c2 2 5 4 9 4
c7 0 13 -6 13 -13c0 -5 -3 -8 -5 -10l-99 -89c-3 -3 -7 -5 -11 -5s-8 2 -11 5l-99 89c-2 2 -5 5 -5 10c0 7 6 13 13 13c4 0 7 -2 9 -4z" />
    <glyph glyph-name="napostrophe" unicode="&#x149;" horiz-adv-x="496" 
d="M89 -8c-8 0 -15 7 -15 15v440c0 8 7 15 15 15s15 -7 15 -15v-75c15 40 63 96 157 96c144 0 179 -85 179 -177v-284c0 -8 -7 -15 -15 -15s-15 7 -15 15v284c0 81 -28 151 -150 151c-109 0 -156 -83 -156 -161v-274c0 -8 -7 -15 -15 -15zM90 631c0 -43 -15 -70 -32 -93
c-3 -4 -5 -6 -9 -6c-5 0 -9 4 -9 9c0 2 1 4 3 7c16 24 18 35 18 50c0 27 -17 35 -17 53c0 12 6 22 21 22c17 0 25 -10 25 -42z" />
    <glyph glyph-name="numero" unicode="&#x2116;" horiz-adv-x="1061" 
d="M633 681c8 0 15 -7 15 -15v-658c0 -9 -7 -16 -16 -16c-7 0 -11 3 -15 9l-507 623v-617c0 -8 -7 -15 -15 -15s-15 7 -15 15v659c0 8 7 15 15 15c6 0 10 -3 12 -6l511 -628v619c0 8 7 15 15 15zM873 601c93 0 148 -56 148 -172s-55 -171 -148 -171c-92 0 -147 55 -147 171
s55 172 147 172zM873 285c76 0 120 43 120 144c0 98 -44 145 -120 145s-119 -47 -119 -145c0 -101 43 -144 119 -144zM873 126c-13 0 -21 7 -21 21c0 16 8 23 21 23c14 0 22 -7 22 -23c0 -14 -8 -21 -22 -21z" />
    <glyph glyph-name="g.salt" horiz-adv-x="483" 
d="M407 129v145c0 117 -69 168 -163 168c-113 0 -173 -65 -173 -215c0 -148 60 -215 173 -215c124 0 163 117 163 117zM407 81c0 0 -40 -95 -163 -95c-128 0 -205 77 -205 241s77 241 205 241c112 0 193 -64 193 -194v-286c0 -134 -87 -189 -198 -189c-78 0 -133 27 -164 65
c-2 3 -3 6 -3 9c0 6 5 13 13 13c4 0 8 -2 11 -6c26 -31 67 -56 143 -56c101 0 168 51 168 164v93z" />
    <glyph glyph-name="gcircumflex.salt" horiz-adv-x="483" 
d="M407 129v145c0 117 -69 168 -163 168c-113 0 -173 -65 -173 -215c0 -148 60 -215 173 -215c124 0 163 117 163 117zM407 81c0 0 -40 -95 -163 -95c-128 0 -205 77 -205 241s77 241 205 241c112 0 193 -64 193 -194v-286c0 -134 -87 -189 -198 -189c-78 0 -133 27 -164 65
c-2 3 -3 6 -3 9c0 6 5 13 13 13c4 0 8 -2 11 -6c26 -31 67 -56 143 -56c101 0 168 51 168 164v93zM337 537l-93 84l-93 -84c-2 -2 -5 -4 -9 -4c-7 0 -13 6 -13 13c0 5 3 8 5 10l99 89c3 3 7 5 11 5s8 -2 11 -5l99 -89c2 -2 5 -5 5 -10c0 -7 -6 -13 -13 -13c-4 0 -7 2 -9 4z
" />
    <glyph glyph-name="gbreve.salt" horiz-adv-x="483" 
d="M407 129v145c0 117 -69 168 -163 168c-113 0 -173 -65 -173 -215c0 -148 60 -215 173 -215c124 0 163 117 163 117zM407 81c0 0 -40 -95 -163 -95c-128 0 -205 77 -205 241s77 241 205 241c112 0 193 -64 193 -194v-286c0 -134 -87 -189 -198 -189c-78 0 -133 27 -164 65
c-2 3 -3 6 -3 9c0 6 5 13 13 13c4 0 8 -2 11 -6c26 -31 67 -56 143 -56c101 0 168 51 168 164v93zM244 531c-55 0 -105 26 -105 96c0 7 6 13 13 13s13 -6 13 -13c0 -49 27 -72 79 -72s79 23 79 72c0 7 6 13 13 13s13 -6 13 -13c0 -70 -50 -96 -105 -96z" />
    <glyph glyph-name="gdotaccent.salt" horiz-adv-x="483" 
d="M407 129v145c0 117 -69 168 -163 168c-113 0 -173 -65 -173 -215c0 -148 60 -215 173 -215c124 0 163 117 163 117zM407 81c0 0 -40 -95 -163 -95c-128 0 -205 77 -205 241s77 241 205 241c112 0 193 -64 193 -194v-286c0 -134 -87 -189 -198 -189c-78 0 -133 27 -164 65
c-2 3 -3 6 -3 9c0 6 5 13 13 13c4 0 8 -2 11 -6c26 -31 67 -56 143 -56c101 0 168 51 168 164v93zM244 549c-14 0 -22 7 -22 22c0 16 8 23 22 23s22 -7 22 -23c0 -15 -8 -22 -22 -22z" />
    <glyph glyph-name="gcommaaccent.salt" horiz-adv-x="483" 
d="M407 129v145c0 117 -69 168 -163 168c-113 0 -173 -65 -173 -215c0 -148 60 -215 173 -215c124 0 163 117 163 117zM407 81c0 0 -40 -95 -163 -95c-128 0 -205 77 -205 241s77 241 205 241c112 0 193 -64 193 -194v-286c0 -134 -87 -189 -198 -189c-78 0 -133 27 -164 65
c-2 3 -3 6 -3 9c0 6 5 13 13 13c4 0 8 -2 11 -6c26 -31 67 -56 143 -56c101 0 168 51 168 164v93zM218 560c0 43 16 86 33 109c3 4 6 5 10 5c5 0 9 -4 9 -9c0 -3 -1 -5 -2 -7c-15 -26 -20 -45 -20 -60c0 -27 17 -40 17 -58c0 -12 -7 -22 -22 -22c-17 0 -25 10 -25 42z" />
    <glyph glyph-name="ccedilla" unicode="&#xe7;" horiz-adv-x="440" 
d="M336 -139c0 -49 -32 -85 -92 -85c-28 0 -51 9 -61 18c-2 2 -3 5 -3 7c0 6 4 10 9 10c3 0 5 -1 8 -3c11 -7 25 -14 47 -14c45 0 68 23 68 67c0 48 -29 63 -60 63c-20 0 -31 -6 -37 -6s-11 5 -11 11l3 61c-106 13 -168 90 -168 238c0 164 77 240 205 240
c99 0 138 -54 148 -67c2 -3 3 -6 3 -9c0 -7 -6 -13 -13 -13c-5 0 -8 2 -11 6c-17 20 -47 57 -127 57c-113 0 -173 -66 -173 -214c0 -150 60 -215 173 -215c69 0 107 29 133 49c3 2 5 3 8 3c7 0 13 -6 13 -13c0 -3 -1 -7 -6 -11c-20 -16 -67 -54 -148 -54c-6 0 -12 0 -17 1
l-4 -50s13 4 29 4c51 0 84 -28 84 -81z" />
    </font>
</defs>
</svg>
